<?xml version="1.0" standalone="no"?>
<!DOCTYPE svg PUBLIC "-//W3C//DTD SVG 1.1//EN" "http://www.w3.org/Graphics/SVG/1.1/DTD/svg11.dtd" >
<svg xmlns="http://www.w3.org/2000/svg">
<metadata>
This is a custom SVG webfont generated by Font Squirrel.
Copyright   : 2008 Erik Spiekermann  Ralph du Carrois  Erik van Blokland published by FontShop AG
Designer    : Erik Spiekermann  Ralph du Carrois  Erik van Blokland
Foundry     : Erik Spiekermann  Ralph du Carrois  Erik van Blokland
Foundry URL : httpwwwfontshopde
</metadata>
<defs>
<font id="webfontcHmhVasv" horiz-adv-x="974" >
<font-face units-per-em="2048" ascent="1638" descent="-410" />
<missing-glyph horiz-adv-x="401" />
<glyph unicode=" "  horiz-adv-x="401" />
<glyph unicode="&#x09;" horiz-adv-x="401" />
<glyph unicode="&#xa0;" horiz-adv-x="401" />
<glyph unicode="!" horiz-adv-x="647" d="M377 561h-109l-45 887h195zM465 115q0 -59 -41 -100.5t-100 -41.5t-100.5 41t-41.5 101q0 59 42 100t104 41q55 0 96 -41t41 -100z" />
<glyph unicode="&#x22;" d="M698 895h-98l-31 555h158zM375 895h-96l-33 555h157z" />
<glyph unicode="#" d="M166 -170l47 444h-141v125h155l47 443h-141v125h156l45 417h127l-45 -417h227l45 417h127l-45 -417h141v-125h-155l-47 -443h139v-125h-154l-47 -444h-127l47 444h-227l-47 -444h-127zM354 399h228l47 443h-228z" />
<glyph unicode="$" d="M469 90q129 0 181 68.5t52 175.5q0 45 -8 84t-31.5 74.5t-68.5 70.5t-119 70t-134 73.5t-102 87t-65.5 108t-23.5 136.5q0 59 18 115.5t55 103t91.5 78t125.5 41.5l-2 215h123v-211q100 -8 161.5 -36.5t102.5 -57.5l-47 -108q-45 29 -114.5 56.5t-155.5 27.5 q-106 0 -155.5 -59.5t-49.5 -153.5q0 -47 7 -83t29.5 -69t64.5 -63.5t114 -65.5q66 -33 126.5 -69.5t106.5 -86t73.5 -115t27.5 -153.5q0 -145 -76 -244.5t-215 -122.5v-225h-123v219q-100 6 -180 32t-145 69l51 118q78 -47 148.5 -73.5t156.5 -26.5z" />
<glyph unicode="%" horiz-adv-x="1474" d="M1417 354q0 -180 -69.5 -277t-196.5 -97q-119 0 -183.5 88t-64.5 254q0 180 69.5 276t196.5 96q119 0 183.5 -88t64.5 -252zM1079 1391l-549 -1430h-139l553 1432zM569 1038q0 -180 -69.5 -277t-192.5 -97q-121 0 -186.5 88t-65.5 256q0 180 70 276t199 96q117 0 181 -89 t64 -253zM1290 342q0 119 -31.5 181.5t-95.5 62.5q-66 0 -99.5 -66.5t-33.5 -189.5q0 -117 31 -179.5t92 -62.5q66 0 101.5 65.5t35.5 188.5zM444 1028q0 117 -31.5 180.5t-95.5 63.5q-66 0 -100.5 -67.5t-34.5 -190.5q0 -117 33 -179.5t94 -62.5q66 0 100.5 66.5 t34.5 189.5z" />
<glyph unicode="&#x26;" horiz-adv-x="1187" d="M836 1163q0 -111 -63.5 -211t-201.5 -198l320 -410q37 63 51 139t14 168h140q0 -125 -30 -227t-85 -180l143 -183l-116 -94l-131 170q-84 -78 -166 -116.5t-201 -38.5q-90 0 -164 27.5t-126 76.5t-80.5 118.5t-28.5 155.5q0 70 19.5 127.5t53 105.5t80.5 89t105 80 q-86 106 -128 190t-42 178q0 74 25.5 136.5t71.5 107.5t109.5 70.5t137.5 25.5q133 0 213 -84t80 -223zM524 104q92 0 155.5 35t117.5 90l-353 453q-102 -86 -139 -156.5t-37 -154.5q0 -123 69.5 -195t186.5 -72zM342 1151q0 -72 40 -146.5t112 -166.5q111 86 154.5 158.5 t43.5 152.5q0 88 -46 142.5t-124 54.5q-76 0 -128 -55.5t-52 -139.5z" />
<glyph unicode="'" horiz-adv-x="651" d="M375 895h-96l-33 555h157z" />
<glyph unicode="(" horiz-adv-x="718" d="M160 526q0 274 93 528.5t261 479.5l102 -64q-147 -215 -223 -447t-76 -497q0 -264 76 -496.5t223 -447.5l-102 -63q-168 225 -261 478t-93 529z" />
<glyph unicode=")" horiz-adv-x="718" d="M559 526q0 -276 -93 -529t-261 -478l-103 63q147 215 223 447.5t76 496.5t-75.5 496.5t-223.5 447.5l103 64q168 -225 261 -479.5t93 -528.5z" />
<glyph unicode="*" horiz-adv-x="972" d="M535 1176l253 108l43 -137l-266 -64l185 -209l-117 -83l-144 235l-141 -238l-117 84l181 209l-271 62l43 137l254 -106l-24 276h143z" />
<glyph unicode="+" d="M561 748h367v-146h-367v-391h-153v391h-365v146h365v391h153v-391z" />
<glyph unicode="," horiz-adv-x="575" d="M121 -238q47 59 82 117t47 98q-45 12 -72.5 49t-27.5 87q0 59 41.5 99t101.5 40q53 0 94 -39t41 -100q0 -113 -61.5 -213.5t-147.5 -188.5z" />
<glyph unicode="-" horiz-adv-x="684" d="M74 467v145h538v-145h-538z" />
<glyph unicode="." horiz-adv-x="575" d="M430 113q0 -59 -41 -100.5t-98 -41.5q-59 0 -100 41t-41 101q0 59 41.5 99t101.5 40q55 0 96 -41t41 -98z" />
<glyph unicode="/" horiz-adv-x="864" d="M834 1518l-766 -1979h-131l761 1979h136z" />
<glyph unicode="0" d="M887 690q0 -356 -102.5 -537.5t-301.5 -181.5q-111 0 -186.5 57.5t-121.5 152.5t-66.5 220t-20.5 263q0 348 108.5 534t307.5 186q186 0 284.5 -175t98.5 -519zM731 690q0 47 -2 90t-6 82l-442 -526q8 -27 16 -50.5t18 -45.5q29 -63 70 -96t100 -33q70 0 114 36.5 t73 108.5q29 78 44 188.5t15 245.5zM244 678q0 -49 2 -95t6 -87l444 532q-55 217 -204 217q-117 0 -182.5 -150.5t-65.5 -416.5z" />
<glyph unicode="1" d="M825 0h-567v129h225v1059l-295 -189l-47 80l365 279h123v-1229h196v-129z" />
<glyph unicode="2" d="M836 1044q0 -141 -54.5 -267t-134.5 -238.5t-173 -211.5l-169 -186h531v-141h-699v137l190 218q97 108 175 218.5t128 225t50 237.5q0 106 -51 157.5t-142 51.5q-84 0 -136 -52t-87 -173l-133 41q29 147 128 235t239 88q156 0 247 -93t91 -247z" />
<glyph unicode="3" d="M840 375q0 -92 -30 -166t-85 -127t-132 -82t-169 -29t-176 22.5t-144 59.5l54 125q68 -35 132 -51t136 -16q123 0 190.5 70.5t67.5 199.5q0 268 -285 268h-92v133h90q117 0 184.5 71t67.5 189q0 98 -51 156.5t-141 58.5q-72 0 -130.5 -31.5t-109.5 -90.5l-92 90 q66 78 146.5 118.5t193.5 40.5q76 0 137.5 -24.5t104.5 -69.5t66.5 -107.5t23.5 -138.5q0 -102 -49.5 -186t-157.5 -125q119 -29 184.5 -125t65.5 -233z" />
<glyph unicode="4" d="M586 428l22 373h121v-373h182v-125h-182v-334h-143v334h-525v135l510 930l152 -16l-510 -924h373z" />
<glyph unicode="5" d="M842 459q0 -111 -32 -201t-91.5 -153.5t-143 -98.5t-188.5 -35q-90 0 -154.5 14.5t-105.5 30.5l31 134q55 -23 113.5 -31t107.5 -8q82 0 140.5 25.5t95 71.5t54 108.5t17.5 136.5q0 131 -57.5 203.5t-155.5 72.5q-119 0 -213 -70l-121 41l58 658h557v-135h-435l-43 -430 q47 35 106.5 55t127.5 20q74 0 135.5 -29.5t104.5 -84t67.5 -129t24.5 -166.5z" />
<glyph unicode="6" d="M858 473q0 -111 -27.5 -203t-76.5 -158.5t-118 -103.5t-153 -37q-106 0 -176.5 51.5t-113.5 134.5t-60.5 185t-17.5 205q0 193 37.5 347.5t108.5 263t169 167.5t221 59q49 0 95.5 -10t80.5 -26l-41 -117q-33 12 -65.5 20.5t-77.5 8.5q-74 0 -135.5 -36t-107.5 -99.5 t-75.5 -151.5t-39.5 -191q49 74 112.5 107t134.5 33q86 0 147.5 -38t101.5 -101.5t58.5 -143.5t18.5 -166zM705 469q0 154 -56.5 234.5t-165.5 80.5q-102 0 -157.5 -80.5t-55.5 -228.5q0 -176 55.5 -270t159.5 -94t162 92t58 266z" />
<glyph unicode="7" d="M371 -10l-154 14l438 1215h-538v139h706v-80z" />
<glyph unicode="8" d="M485 -29q-94 0 -169.5 27t-128 76t-81 117.5t-28.5 152.5q0 145 77.5 234.5t211.5 140.5q-109 49 -171.5 128t-62.5 202q0 80 27.5 142t77 105t114 65.5t137.5 22.5q78 0 141.5 -23.5t109.5 -64.5t72 -99t26 -128q0 -129 -57.5 -209t-164.5 -139q145 -68 211 -160 t66 -211q0 -84 -29.5 -153.5t-83 -119.5t-128.5 -78t-167 -28zM737 338q0 96 -61.5 170t-196.5 133q-119 -51 -181 -121.5t-62 -181.5q0 -109 69.5 -173.5t183.5 -64.5q111 0 179.5 67t68.5 171zM692 1051q0 98 -56 153.5t-153 55.5q-90 0 -144 -55.5t-54 -147.5 q0 -98 57 -160.5t150 -114.5q90 45 145 106t55 163z" />
<glyph unicode="9" d="M842 809q0 -197 -34 -352.5t-97.5 -263t-154.5 -165t-204 -57.5q-55 0 -105 9.5t-85 25.5l18 121q23 -8 61 -15.5t85 -7.5q162 0 242.5 122t111.5 349q-39 -66 -97.5 -105.5t-150.5 -39.5q-86 0 -148.5 40t-102.5 106.5t-58.5 150.5t-18.5 170q0 109 28 199t78 154.5 t119.5 99t153.5 34.5q359 0 359 -575zM686 913q0 162 -53 247t-156 85q-100 0 -158.5 -92t-58.5 -246q0 -160 55.5 -251t155.5 -91q104 0 159.5 90t55.5 258z" />
<glyph unicode=":" horiz-adv-x="575" d="M428 854q0 -59 -40 -99t-99 -40t-99 40t-40 99t41.5 99t101.5 40q53 0 94 -41t41 -98zM428 113q0 -59 -41 -100.5t-98 -41.5q-59 0 -99 41t-40 101q0 59 41.5 99t101.5 40q53 0 94 -41t41 -98z" />
<glyph unicode=";" horiz-adv-x="575" d="M428 854q0 -59 -40 -99t-99 -40t-99 40t-40 99t41.5 99t101.5 40q53 0 94 -41t41 -98zM121 -238q47 59 82 117t47 98q-45 12 -72.5 49t-27.5 87q0 59 41.5 99t101.5 40q53 0 94 -39t41 -100q0 -113 -61.5 -213.5t-147.5 -188.5z" />
<glyph unicode="&#x3c;" d="M53 606v137l860 437l5 -154l-697 -352l697 -352l-7 -152z" />
<glyph unicode="=" d="M43 782v146h885v-146h-885zM43 422v145h885v-145h-885z" />
<glyph unicode="&#x3e;" d="M922 743v-137l-861 -436l-4 154l697 352l-697 352l6 152z" />
<glyph unicode="?" horiz-adv-x="827" d="M709 1165q0 -63 -21.5 -113.5t-54.5 -95.5t-72 -86t-71.5 -88t-54 -101t-21.5 -124v-90h-138v98q0 82 20.5 142.5t52.5 108.5t68 88t67.5 79t52 82t20.5 96q0 94 -57.5 134t-155.5 40q-100 0 -223 -59l-41 123q53 29 120.5 49t155.5 20q160 0 256.5 -74.5t96.5 -228.5z M489 115q0 -59 -40.5 -100.5t-100.5 -41.5q-59 0 -99 41t-40 101q0 59 42 100t101 41q55 0 96 -42t41 -99z" />
<glyph unicode="@" horiz-adv-x="1837" d="M1704 772q0 -125 -36 -244.5t-100.5 -214t-151.5 -152t-191 -57.5q-78 0 -121 51.5t-45 145.5q-119 -195 -268 -195q-78 0 -123 63.5t-45 174.5q0 94 20.5 193.5t65.5 181.5t114.5 135t167.5 53q66 0 128.5 -13t140.5 -48l-78 -404q-8 -41 -13.5 -73.5t-5.5 -46.5 q0 -43 18.5 -75t61.5 -32q68 0 128.5 45t106.5 121t73.5 177t27.5 212q0 125 -40 219t-109.5 157.5t-166 96.5t-208.5 33q-166 0 -310.5 -68.5t-251 -188.5t-168 -282t-61.5 -348q0 -311 158 -478t448 -167q152 0 302.5 38t277.5 116l45 -115q-135 -70 -287.5 -113 t-351.5 -43q-172 0 -307 52.5t-227.5 149.5t-141.5 236.5t-49 313.5q0 209 69.5 393t193.5 321.5t293 217.5t366 80q139 0 258 -38t207 -115t137 -193.5t49 -272.5zM1112 766q-35 14 -65.5 18t-57.5 4q-70 0 -114 -50t-69.5 -120.5t-34.5 -145.5t-9 -122q0 -117 67 -117 q39 0 76 24t68 64.5t55.5 97t38.5 124.5z" />
<glyph unicode="A" horiz-adv-x="1042" d="M831 0l-112 442h-402l-112 -442h-170l401 1450h170l404 -1450h-179zM352 578h332l-121 483l-45 207l-43 -207z" />
<glyph unicode="B" horiz-adv-x="1081" d="M973 397q0 -117 -35 -193.5t-91 -121.5t-130 -63.5t-150 -18.5h-379v1450h365q72 0 138.5 -14.5t116.5 -52t81 -105.5t31 -172q0 -121 -48.5 -210t-142.5 -138q117 -31 180.5 -126.5t63.5 -234.5zM750 1090q0 127 -50.5 178t-171.5 51h-184v-514h188q43 0 83 15.5t70 49 t47.5 88t17.5 132.5zM801 403q0 66 -19.5 117t-53.5 85t-78 51.5t-93 17.5h-213v-543h193q115 0 189.5 63.5t74.5 208.5z" />
<glyph unicode="C" horiz-adv-x="899" d="M102 739q0 141 17.5 274.5t64.5 237t131 166t217 62.5q78 0 162 -34t164 -122l-96 -102q-59 59 -113.5 92t-120.5 33q-133 0 -194.5 -139.5t-61.5 -448.5q0 -324 70 -489t205 -165q59 0 112.5 31t118.5 96l92 -100q-70 -86 -157.5 -123t-171.5 -37q-213 0 -326 188.5 t-113 579.5z" />
<glyph unicode="D" horiz-adv-x="1081" d="M463 1450q266 0 390 -175t124 -523q0 -383 -135 -567.5t-410 -184.5h-244v1450h275zM809 752q0 143 -15.5 249.5t-57.5 175t-116.5 102.5t-193.5 34h-80v-1176h98q111 0 181.5 37t111.5 112.5t56.5 191.5t15.5 274z" />
<glyph unicode="E" horiz-adv-x="901" d="M811 1313h-465v-494h410v-129h-410v-553h492v-137h-650v1450h656z" />
<glyph unicode="F" horiz-adv-x="829" d="M811 1313h-465v-512h410v-129h-410v-672h-158v1450h656z" />
<glyph unicode="G" horiz-adv-x="1034" d="M752 594h-181v133h338v-664q-70 -47 -160 -69.5t-180 -22.5q-229 0 -348 187.5t-119 560.5q0 383 121 571.5t352 188.5q98 0 179.5 -31t152.5 -90l-73 -111q-59 47 -120 76t-139 29q-158 0 -230.5 -146.5t-72.5 -462.5q0 -174 18.5 -296.5t58.5 -199.5t101.5 -112 t147.5 -35q76 0 154 37v457z" />
<glyph unicode="H" horiz-adv-x="1189" d="M846 0v688h-502v-688h-156v1450h156v-629h502v629h158v-1450h-158z" />
<glyph unicode="I" horiz-adv-x="649" d="M244 1325h-170v125h499v-125h-172v-1200h172v-125h-499v125h170v1200z" />
<glyph unicode="J" horiz-adv-x="860" d="M348 100q59 0 97 21.5t58.5 63.5t28 105.5t7.5 147.5v879h-367v133h522v-1001q0 -238 -79.5 -358t-268.5 -120q-147 0 -237.5 99.5t-90.5 300.5h148q0 -133 43 -202t139 -69z" />
<glyph unicode="K" horiz-adv-x="1007" d="M827 -10l-481 708v-698h-158v1450h158v-729l496 741l141 -43l-481 -700l485 -680z" />
<glyph unicode="L" horiz-adv-x="864" d="M188 0v1450h158v-1315h498l-37 -135h-619z" />
<glyph unicode="M" horiz-adv-x="1298" d="M963 1139l4 102l-41 -143l-232 -754h-106l-223 754l-41 170l4 -133l-31 -1135h-154l76 1450h164l235 -772l27 -125l27 125l235 772h170l76 -1450h-160z" />
<glyph unicode="N" horiz-adv-x="1116" d="M799 0l-447 1077l-57 185l14 -193v-1069h-141v1450h178l424 -1012l53 -174l-8 178v1008h139v-1450h-155z" />
<glyph unicode="O" horiz-adv-x="1081" d="M979 727q0 -375 -113.5 -565.5t-337.5 -190.5q-211 0 -318.5 187.5t-107.5 556.5q0 387 113 575.5t342 188.5q209 0 315.5 -189.5t106.5 -562.5zM807 711q0 166 -17.5 299t-56.5 215q-59 125 -192 125q-66 0 -119 -37t-82 -101q-35 -78 -51.5 -195.5t-16.5 -285.5 q0 -164 19.5 -292t56.5 -214q57 -125 191 -125q70 0 121 36t79 102q33 78 50.5 196.5t17.5 276.5z" />
<glyph unicode="P" horiz-adv-x="937" d="M905 1063q0 -207 -101.5 -326t-318.5 -119h-139v-618h-158v1450h320q90 0 163.5 -18.5t126 -63.5t80 -118.5t27.5 -186.5zM743 1063q0 129 -56 190.5t-189 61.5h-152v-555h129q135 0 201.5 70.5t66.5 232.5z" />
<glyph unicode="Q" horiz-adv-x="1081" d="M979 727q0 -408 -135 -594q39 -49 96 -98t121 -96l-143 -95q-16 12 -40 34l-50 46q-26 25 -50 51.5t-43 51.5q-45 -27 -96 -41.5t-111 -14.5q-211 0 -318.5 187.5t-107.5 556.5q0 387 113 575.5t342 188.5q209 0 315.5 -189.5t106.5 -562.5zM807 711q0 170 -17.5 301 t-56.5 213q-59 125 -192 125q-66 0 -119 -37t-82 -101q-68 -154 -68 -481q0 -164 19.5 -292t56.5 -214q57 -125 191 -125q70 0 121 36t79 102q33 78 50.5 196.5t17.5 276.5z" />
<glyph unicode="R" horiz-adv-x="1019" d="M809 -10l-315 674h-148v-664h-158v1450h312q86 0 160.5 -15.5t128 -55.5t84 -108.5t30.5 -176.5q0 -156 -66.5 -265.5t-189.5 -152.5l332 -653zM741 1081q0 129 -58 185.5t-181 56.5h-156v-537h150q121 0 183 70.5t62 224.5z" />
<glyph unicode="S" horiz-adv-x="937" d="M854 381q0 -92 -29.5 -168t-84 -130t-132.5 -84t-174 -30q-57 0 -112.5 9.5t-102.5 24.5t-86 33.5t-63 35.5l55 135q66 -39 141.5 -67.5t167.5 -28.5q117 0 183.5 68.5t66.5 178.5q0 47 -10 86t-36 76t-72 75t-117 85l-100 61q-38 25 -63.5 43.5t-43 35t-35.5 38.5 q-41 47 -65.5 109.5t-24.5 140.5q0 80 28.5 148.5t79.5 117.5t123 78t160 29q102 0 189 -30t134 -60l-53 -129q-59 35 -125.5 57t-144.5 22q-104 0 -164.5 -56t-60.5 -159q0 -121 77 -188q16 -14 31 -25.5t38.5 -28t62.5 -40.5l102 -64q59 -37 107.5 -76.5t82 -87t52 -104.5 t18.5 -131z" />
<glyph unicode="T" horiz-adv-x="815" d="M786 1317h-309v-1317h-158v1317h-313v133h809z" />
<glyph unicode="U" horiz-adv-x="1150" d="M987 381q0 -205 -114.5 -307.5t-311.5 -102.5q-201 0 -299 100.5t-98 311.5v1067h158v-1063q0 -156 56 -221.5t193 -65.5q135 0 200 70t65 217v1063h151v-1069z" />
<glyph unicode="V" horiz-adv-x="935" d="M555 0h-180l-352 1440l161 20l252 -1165l29 -156l31 156l260 1165l159 -22z" />
<glyph unicode="W" horiz-adv-x="1331" d="M1014 0h-176l-146 1028l-26 205l-31 -205l-176 -1028h-166l-256 1440l156 20l169 -1100l21 -233l25 233l192 1090h152l161 -1098l23 -233l20 233l183 1108l153 -20z" />
<glyph unicode="X" horiz-adv-x="935" d="M752 -10l-246 536l-41 97l-41 -97l-250 -536l-160 26l365 740l-340 674l160 30l223 -463l47 -106l47 106l223 463l154 -30l-342 -668l367 -746z" />
<glyph unicode="Y" horiz-adv-x="923" d="M547 616v-616h-158v612l-393 824l176 24l248 -575l51 -135l51 137l242 573l164 -24z" />
<glyph unicode="Z" horiz-adv-x="862" d="M831 0h-780v133l576 1184h-547l20 133h709v-121l-582 -1192h604v-137z" />
<glyph unicode="[" horiz-adv-x="716" d="M606 -434h-381v1945h381v-116h-233v-1710h233v-119z" />
<glyph unicode="\" horiz-adv-x="862" d="M160 1518l762 -1979h-131l-766 1979h135z" />
<glyph unicode="]" horiz-adv-x="716" d="M111 1511h381v-1945h-381v117h233v1710h-233v118z" />
<glyph unicode="^" d="M774 821l-289 529l-286 -529h-148l346 629h183l342 -629h-148z" />
<glyph unicode="_" horiz-adv-x="999" d="M-2 -270v112h1003v-112h-1003z" />
<glyph unicode="`" d="M547 1163l-359 211l86 123l324 -262z" />
<glyph unicode="a" horiz-adv-x="892" d="M739 240q0 -57 7.5 -114.5t23.5 -119.5l-115 -16q-4 8 -18 42t-27 79q-66 -70 -130 -100.5t-142 -30.5q-119 0 -188.5 76.5t-69.5 209.5q0 356 514 369v70q0 106 -41 151t-137 45q-59 0 -112.5 -17.5t-131.5 -52.5l-49 119q68 35 140.5 59.5t170.5 24.5q305 0 305 -293 v-501zM594 508q-367 -4 -367 -229q0 -76 40 -124.5t104 -48.5q98 0 223 123v279z" />
<glyph unicode="b" horiz-adv-x="972" d="M516 -29q-84 0 -136 24.5t-101 67.5l-31 -73l-115 16q16 61 23.5 118.5t7.5 115.5v1269l145 21v-594q78 59 136.5 82.5t123.5 23.5q152 0 227.5 -117.5t75.5 -349.5q0 -311 -88 -457.5t-268 -146.5zM309 184q45 -37 98.5 -57.5t106.5 -20.5q104 0 153.5 106.5t49.5 340.5 q0 186 -41 270t-133 84q-53 0 -104.5 -23.5t-129.5 -84.5v-615z" />
<glyph unicode="c" horiz-adv-x="792" d="M711 813q-37 31 -66 51.5t-52.5 30.5t-46 14t-48.5 4q-117 0 -177.5 -102t-60.5 -301q0 -203 54.5 -306.5t162.5 -103.5q33 0 59.5 6.5t54 19.5t57.5 35l69 52l57 -115q-57 -51 -130 -89t-177 -38q-174 0 -270.5 135.5t-96.5 376.5q0 129 28 233.5t78 176.5t123.5 110.5 t166.5 38.5q90 0 160.5 -34.5t125.5 -87.5z" />
<glyph unicode="d" horiz-adv-x="960" d="M807 1530v-1290q0 -57 7 -114.5t24 -119.5l-115 -16q-4 8 -16.5 36.5t-24.5 69.5q-86 -68 -148.5 -96.5t-127.5 -28.5q-143 0 -224.5 143.5t-81.5 403.5q0 248 92.5 386t256.5 138q47 0 101 -17t112 -54v538zM436 106q51 0 110.5 32t115.5 91v609q-115 70 -199 69 q-111 0 -159 -89t-48 -292q0 -221 42 -320.5t138 -99.5z" />
<glyph unicode="e" horiz-adv-x="901" d="M256 473q10 -193 77.5 -281t180.5 -88q66 0 126 24t120 67l57 -125q-61 -41 -136 -70t-177 -29q-92 0 -167 38t-127 106.5t-81 167t-29 221.5t27 223t77 170t120.5 107.5t158.5 37.5q104 0 173 -47t110 -119.5t57.5 -160.5t16.5 -172v-30q0 -19 -2 -40h-582zM483 920 q-90 0 -153.5 -73t-71.5 -249h434q-4 156 -57.5 239t-151.5 83z" />
<glyph unicode="f" horiz-adv-x="585" d="M614 1014l-24 -121h-262v-893h-146v893h-149v121h149v203q0 55 12.5 111t43 100.5t82 73t131.5 28.5q49 0 104 -14.5t102 -49.5l-47 -108q-41 23 -75.5 36t-88.5 13q-41 0 -64.5 -17.5t-35.5 -45t-15 -61.5t-3 -66v-203h286z" />
<glyph unicode="g" horiz-adv-x="972" d="M465 1042q66 0 117 -21.5t108 -64.5q10 31 19.5 53.5t13.5 28.5l115 -16q-16 -61 -23.5 -118.5t-7.5 -115.5v-378q0 -164 7 -278t7 -208q0 -371 -346 -370q-84 0 -165 24.5t-146 59.5l51 120q61 -33 131 -53t121 -20q119 0 165 60t46 187q0 31 -1 51.5t-2 49.5l-2 58 q-1 30 -1 48q-61 -55 -126 -88t-143 -33q-141 0 -221 126t-80 352q0 270 94.5 408t268.5 138zM430 156q53 0 108.5 26.5t125.5 85.5v574q-53 31 -100.5 49t-88.5 18q-104 0 -160.5 -94t-56.5 -287q0 -186 40 -279t132 -93z" />
<glyph unicode="h" horiz-adv-x="999" d="M702 0v729q0 104 -29.5 144t-105.5 40q-59 0 -118.5 -31.5t-141.5 -107.5v-774h-145v1509l145 21v-631q80 80 147.5 111.5t155.5 31.5q137 0 186.5 -77.5t49.5 -241.5v-723h-144z" />
<glyph unicode="i" horiz-adv-x="503" d="M195 0v893h-160v121h303v-1014h-143zM369 1391q0 -51 -35 -86t-82 -35q-49 0 -83 34.5t-34 86.5q0 51 34 85.5t85 34.5q47 0 81 -34.5t34 -85.5z" />
<glyph unicode="j" horiz-adv-x="501" d="M336 -104q0 -68 -12.5 -129.5t-44 -108.5t-86 -74.5t-140.5 -27.5q-59 0 -117.5 17t-103.5 46l57 115q43 -23 85 -36t85 -13q47 0 74 18t40 50t16.5 74t3.5 89v977h-179v121h322v-1118zM369 1391q0 -51 -35 -86t-82 -35q-49 0 -83 34.5t-34 86.5q0 51 34 85.5t85 34.5 q47 0 81 -35.5t34 -84.5z" />
<glyph unicode="k" horiz-adv-x="860" d="M844 39l-139 -49l-398 542v-532h-143v1509l143 21v-993l383 487l150 -35l-375 -448z" />
<glyph unicode="l" horiz-adv-x="546" d="M537 20q-33 -16 -75 -28t-89 -12q-41 0 -79 12t-66.5 37.5t-46 66.5t-17.5 99v1314l145 21v-1346q0 -47 22.5 -66.5t59.5 -19.5q31 0 57.5 9.5t51.5 21.5z" />
<glyph unicode="m" horiz-adv-x="1394" d="M307 0h-143v788q0 57 -7 115t-24 119l115 16l17 -42q13 -32 26 -76q78 70 139.5 96t128.5 26q137 0 184 -124q86 68 152 96t133 28q61 0 102 -21.5t66 -60t35 -93t10 -119.5v-748h-145v754q0 160 -125 159q-49 0 -90 -18t-111 -70v-825h-141v752q0 162 -125 161 q-49 0 -92 -20.5t-105 -73.5v-819z" />
<glyph unicode="n" horiz-adv-x="993" d="M307 0h-143v788q0 57 -7 115t-24 119l115 16q4 -10 19.5 -39.5t27.5 -101.5q90 78 161.5 111.5t151.5 33.5q68 0 120 -26.5t79 -73.5q10 -18 16 -36.5t10.5 -42t5.5 -56.5t1 -78v-729h-144v731q0 98 -29.5 140t-101.5 42q-43 0 -111.5 -38.5t-146.5 -100.5v-774z" />
<glyph unicode="o" horiz-adv-x="972" d="M872 514q0 -260 -104 -401.5t-293 -141.5q-180 0 -277.5 138.5t-97.5 392.5q0 258 104.5 399t293.5 141q178 0 276 -140t98 -388zM717 516q0 197 -58.5 299.5t-175.5 102.5q-111 0 -169 -101.5t-58 -292.5q0 -74 7 -149.5t30.5 -137t70 -101.5t123.5 -40q74 0 119 37 t69.5 97.5t33 135t8.5 150.5z" />
<glyph unicode="p" horiz-adv-x="960" d="M164 788q0 57 -7 115t-24 119l115 16q4 -8 16 -39.5l27 -74.5q76 63 138.5 90.5t131.5 27.5q94 0 153.5 -48t91.5 -123.5t43 -166t11 -176.5q0 -129 -22.5 -232t-64.5 -175t-101.5 -111t-134.5 -39q-66 0 -116 21.5t-114 75.5v-488l-143 -20v1228zM535 909 q-47 0 -101.5 -25.5t-126.5 -80.5v-604q66 -49 115 -69.5t100 -20.5q98 0 140.5 96t42.5 323q0 49 -3.5 114t-19.5 124t-50 101t-97 42z" />
<glyph unicode="q" horiz-adv-x="952" d="M655 -440v538q-63 -66 -126.5 -96.5t-131.5 -30.5q-137 0 -217 140.5t-80 382.5q0 260 89.5 404t248.5 144q66 0 120 -21.5t120 -72.5q12 35 22.5 58.5t14.5 31.5l114 -16q-16 -61 -23 -118.5t-7 -115.5v-1208zM655 825q-59 41 -109 62.5t-97 21.5q-96 0 -144.5 -100 t-48.5 -295q0 -84 7 -157.5t27.5 -129t55.5 -87t88 -31.5q49 0 102.5 29.5t118.5 94.5v592z" />
<glyph unicode="r" horiz-adv-x="626" d="M569 881q-12 4 -29.5 9t-39.5 5q-37 0 -85 -42t-108 -140v-713h-143v788q0 57 -7 115t-24 119l115 16l21 -55q17 -45 30 -102q33 51 61.5 83.5t56 49t55.5 22.5t58 6q23 0 47.5 -4t45.5 -14z" />
<glyph unicode="s" horiz-adv-x="755" d="M676 268q0 -129 -84 -213t-232 -84q-82 0 -161.5 24.5t-139.5 59.5l58 115q61 -35 123.5 -54.5t121.5 -19.5q78 0 122 43t44 115t-38.5 105.5t-118.5 74.5l-106.5 60.5t-86.5 65.5t-57.5 82t-20.5 110q0 63 21.5 116.5t61.5 92t96.5 60t123.5 21.5q70 0 138.5 -21.5 t115.5 -55.5l-55 -109q-55 33 -101 47.5t-100 14.5q-74 0 -116.5 -40t-42.5 -110q0 -45 16 -75.5t48 -55.5t77 -48l100 -54q106 -57 149.5 -117t43.5 -150z" />
<glyph unicode="t" horiz-adv-x="647" d="M662 49q-53 -35 -121 -52t-127 -17q-123 0 -180.5 67.5t-57.5 196.5v649h-158v121h158v311l143 21v-332h312l-29 -121h-283v-608q0 -35 2.5 -68t13.5 -57.5t35.5 -40t67.5 -15.5q41 0 83 13.5t104 44.5z" />
<glyph unicode="u" horiz-adv-x="993" d="M840 240q0 -57 7 -114.5t23 -119.5l-114 -16q-4 8 -16.5 35.5t-24.5 68.5q-80 -70 -144.5 -96.5t-140.5 -26.5q-129 0 -197.5 67.5t-68.5 209.5v756l143 20v-662q0 -145 31 -200.5t111 -55.5q59 0 124.5 30t120.5 83v785l146 20v-784z" />
<glyph unicode="v" horiz-adv-x="868" d="M494 0h-140l-327 1006l159 18l207 -727l35 -141l35 141l227 727l152 -18z" />
<glyph unicode="w" horiz-adv-x="1187" d="M1167 1006l-256 -1006h-135l-145 659l-27 138l-31 -140l-172 -657h-133l-225 1006l158 18l121 -731l20 -121l25 121l178 721h135l151 -721l19 -115l20 115l150 731z" />
<glyph unicode="x" horiz-adv-x="864" d="M674 -10l-197 350l-41 78l-43 -78l-209 -350l-166 22l332 508l-289 475l156 29l182 -313l41 -78l41 78l189 313l151 -29l-297 -460l318 -523z" />
<glyph unicode="y" horiz-adv-x="868" d="M545 -111q-25 -98 -55.5 -163.5t-67.5 -103.5t-81 -54.5t-95 -16.5q-61 0 -124 23t-110 61l58 111q53 -41 94 -57.5t82 -16.5q25 0 45 7.5t38.5 28t35 58t34.5 97.5l41 137h-88l-317 1006l158 18l235 -819l37 -137l33 139l182 817l154 -18z" />
<glyph unicode="z" horiz-adv-x="790" d="M721 0h-660v102l502 789h-461v123h635v-105l-497 -784h518z" />
<glyph unicode="{" horiz-adv-x="827" d="M207 600q94 0 123.5 45t29.5 150v401q0 166 77 243t247 77l53 -5v-114h-49q-100 0 -141 -43t-41 -152v-403q0 -102 -28.5 -157.5t-104.5 -94.5l-25 -8l25 -7q37 -20 62.5 -42.5t41 -51t22.5 -67.5t7 -90v-404q0 -109 41 -151.5t141 -42.5h49v-119h-53q-170 0 -247 76.5 t-77 242.5v402q0 104 -29.5 149t-123.5 45l-45 2v117z" />
<glyph unicode="|" horiz-adv-x="595" d="M225 -362v1812h146v-1812h-146z" />
<glyph unicode="}" horiz-adv-x="827" d="M621 479q-94 0 -124 -45t-30 -149v-402q0 -166 -77 -242.5t-247 -76.5l-53 4v115h49q100 0 141.5 43t41.5 151v404q0 51 7 90t22.5 67.5t41 51t62.5 42.5l24 9l-24 6q-76 39 -104.5 94t-28.5 158v403q0 109 -41 152t-142 43h-49v119h53q170 0 247 -77t77 -243v-401 q0 -104 29.5 -149.5t124.5 -45.5l45 -2v-117z" />
<glyph unicode="~" d="M10 592q57 125 121 182t145 57q20 0 41 -4t47.5 -13t60.5 -28l81 -45l72 -40q29 -15 49 -22t36.5 -10t34.5 -3q53 0 92 33.5t84 123.5l91 -65q-57 -125 -121 -182.5t-146 -57.5q-41 0 -89 17.5t-142 72.5l-71 40q-28 15 -49 22.5t-36.5 10.5t-34.5 3q-53 0 -92 -34 t-84 -124z" />
<glyph unicode="&#xa1;" horiz-adv-x="647" d="M270 461h109l45 -887h-195zM182 907q0 59 41 100.5t101 41.5q59 0 100 -41t41 -101q0 -59 -42 -100t-104 -41q-55 0 -96 41t-41 100z" />
<glyph unicode="&#xa2;" d="M502 -61v196q-160 12 -248 146.5t-88 365.5q0 240 88 385.5t248 169.5v203h112v-203q72 -10 129.5 -42t104.5 -77l-72 -110q-37 31 -65.5 51t-52 30.5t-46 14.5t-49.5 4q-117 0 -176 -100.5t-59 -298.5q0 -406 215 -406q33 0 59.5 6.5t54 19.5t57.5 35l68 52l58 -119 q-45 -41 -99.5 -73.5t-126.5 -47.5v-202h-112z" />
<glyph unicode="&#xa3;" d="M260 127l14 80q6 35 10.5 64.5t5.5 58t1 59.5q0 61 -7.5 121.5t-25.5 144.5h-197v129h168q-16 76 -23 123t-7 101q0 84 28.5 153.5t81.5 118.5t128 76.5t167 27.5q84 0 149.5 -18t139.5 -63l-68 -111q-53 29 -105 48.5t-124 19.5q-117 0 -185.5 -67t-68.5 -177 q0 -23 1 -42.5t4 -44t9 -59t17 -86.5h280v-129h-252l18 -92q7 -39 11 -69.5t5 -57t1 -53.5q0 -45 -6 -106.5t-22 -147.5h544l-32 -129h-846v127h186z" />
<glyph unicode="&#xa4;" d="M825 913q29 -47 44.5 -107.5t15.5 -133.5q0 -72 -15.5 -131.5t-40.5 -104.5l146 -145l-103 -103l-137 136q-55 -45 -119.5 -64.5t-128.5 -19.5q-66 0 -130 19.5t-121 64.5l-136 -136l-102 103l145 145q-25 47 -39 105.5t-14 130.5q0 74 14.5 133t40.5 106l-147 152 l102 102l142 -143q55 41 118.5 61.5t126.5 20.5q59 0 123 -20.5t119 -61.5l143 143l103 -102zM236 672q0 -84 21.5 -142.5t56 -95.5t80.5 -53t93 -16t92.5 16t81 53t57 95.5t21.5 142.5t-21.5 142t-57 95t-80.5 53.5t-93 16.5q-47 0 -93 -16.5t-80.5 -53.5t-56 -95 t-21.5 -142z" />
<glyph unicode="&#xa5;" d="M565 459v-459h-149v459h-373v104h367l-58 121h-309v104h258l-278 586l167 25l252 -576l52 -135l51 137l246 574l155 -25l-272 -586h254v-104h-303l-56 -121h359v-104h-363z" />
<glyph unicode="&#xa6;" horiz-adv-x="595" d="M225 748v702h146v-702h-146zM225 -365v703h146v-703h-146z" />
<glyph unicode="&#xa7;" d="M819 600q0 -98 -54 -174t-177 -154q109 -66 150.5 -125t41.5 -143q0 -63 -24.5 -118.5t-67.5 -95.5t-103.5 -63.5t-133.5 -23.5q-90 0 -169 30.5t-132 73.5l63 113q70 -49 121 -68.5t127 -19.5q78 0 121 44t43 114q0 41 -12.5 71.5t-51.5 63.5q-25 20 -60 41l-89 49 q-76 43 -126 78t-80 71.5t-42 77.5t-12 95q0 109 53 184.5t176 144.5q-98 51 -140 110.5t-42 141.5q0 59 23.5 110.5t64.5 88.5t97 58.5t124 21.5q143 0 252 -88l-60 -127q-53 47 -103 63.5t-99 16.5q-68 0 -111 -38t-43 -98q0 -33 14.5 -58.5t40.5 -47.5q16 -14 54 -37 l78 -47l79 -47l56 -35q74 -51 113.5 -108.5t39.5 -145.5zM674 580q0 70 -43 120t-156 111q-92 -53 -134 -115.5t-42 -138.5q0 -49 15.5 -81t41 -55.5t59.5 -42.5l70 -42q104 63 146.5 118.5t42.5 125.5z" />
<glyph unicode="&#xa8;" horiz-adv-x="972" d="M780 1321q0 -45 -29.5 -76t-72.5 -31t-73 31t-30 78q0 43 30 73.5t73 30.5t72.5 -30.5t29.5 -75.5zM397 1321q0 -45 -29.5 -76t-72.5 -31t-72.5 31t-29.5 78q0 43 29.5 73.5t72.5 30.5t72.5 -30.5t29.5 -75.5z" />
<glyph unicode="&#xa9;" horiz-adv-x="1374" d="M696 276q111 0 203 35t158.5 103.5t103.5 171t37 239.5t-37 239.5t-103.5 171.5t-158.5 103.5t-203 34.5t-203 -34.5t-158.5 -103.5t-104 -171t-37.5 -240q0 -137 37.5 -239.5t104 -171t158.5 -103.5t203 -35zM696 174q-125 0 -236.5 44t-194.5 128t-132 205t-49 276 q0 154 49 275t132 204t194.5 127t236.5 44t236.5 -44t194.5 -127t132.5 -204t49.5 -275q0 -156 -49.5 -276.5t-132.5 -204.5t-194.5 -128t-236.5 -44zM403 834q0 70 13.5 137t47.5 118.5t90 83t144 31.5q53 0 116 -23.5t118 -66.5l-43 -88q-41 29 -93.5 53.5t-101.5 24.5 q-47 0 -79.5 -12.5t-53 -41t-30 -79.5t-9.5 -127q0 -162 42 -227.5t138 -65.5q43 0 88.5 21.5t92.5 56.5l51 -78q-45 -43 -113.5 -71.5t-126.5 -28.5q-139 0 -215 93t-76 290z" />
<glyph unicode="&#xaa;" horiz-adv-x="647" d="M412 967q-53 -41 -89 -55.5t-81 -14.5q-84 0 -131.5 48t-47.5 130q0 109 86.5 170.5t239.5 61.5v41q0 84 -100 84q-45 0 -78 -9.5t-80 -31.5l-41 90q27 20 87.5 39.5t125.5 19.5q94 0 150.5 -44t56.5 -140v-287q0 -45 4 -78t21 -63l-91 -25q-18 19 -32 64zM389 1214 q-109 -4 -156 -34.5t-47 -96.5q0 -37 19.5 -59.5t52.5 -22.5q63 0 131 62v151z" />
<glyph unicode="&#xab;" horiz-adv-x="931" d="M475 100l-96 -59l-328 424v78l328 426l96 -58l-258 -405zM836 100l-97 -59l-327 424v78l327 426l97 -58l-258 -405z" />
<glyph unicode="&#xac;" d="M928 336h-154v287h-731v145h885v-432z" />
<glyph unicode="&#xad;" horiz-adv-x="684" d="M74 467v145h538v-145h-538z" />
<glyph unicode="&#xae;" horiz-adv-x="1374" d="M696 559q82 0 152 25.5t121 78t78.5 129t27.5 181.5q0 102 -27.5 180t-78.5 130t-121 77.5t-152 25.5q-84 0 -153.5 -25.5t-119.5 -77.5t-79 -130t-29 -180q0 -104 29 -181t79 -129.5t119.5 -78t153.5 -25.5zM696 471q-96 0 -181 34t-149.5 98.5t-102.5 157.5t-38 214 q0 119 38 211t102.5 156.5t149.5 98.5t181 34t181.5 -34t150 -98.5t102 -156.5t37.5 -211q0 -121 -37.5 -214t-102 -157.5t-150 -98.5t-181.5 -34zM829 696l-155 230h-70v-224h-90v558h174q94 0 151.5 -37t57.5 -121q0 -127 -127 -160l156 -233zM807 1100q0 47 -32 62.5 t-93 15.5h-78v-172h74q66 0 97.5 17.5t31.5 76.5z" />
<glyph unicode="&#xaf;" d="M729 1350v-121h-483v121h483z" />
<glyph unicode="&#xb0;" horiz-adv-x="972" d="M788 1155q0 -68 -20 -127t-59 -103t-95.5 -70t-126.5 -26t-126 26t-95 70t-59.5 103t-20.5 127q0 70 21.5 129t61.5 103.5t95.5 70t124.5 25.5q70 0 125.5 -25.5t94.5 -71t59 -104.5t20 -127zM666 1155q0 41 -9.5 81t-30 70.5t-56 49t-87.5 18.5q-53 0 -85.5 -19.5 t-53 -50t-28 -69.5t-7.5 -80t8.5 -81t29 -70.5t54 -49t84.5 -18.5t86 18.5t55.5 49t30 70.5t9.5 81z" />
<glyph unicode="&#xb1;" d="M561 748h367v-146h-367v-305h-153v305h-365v146h365v391h153v-391zM43 0v145h885v-145h-885z" />
<glyph unicode="&#xb2;" horiz-adv-x="684" d="M567 1038v-125h-469v121q53 59 113.5 117.5t112 117t85 121t33.5 130.5q0 53 -27.5 81.5t-74.5 28.5q-43 0 -73.5 -25.5t-53.5 -93.5l-115 33q23 92 93.5 146.5t154.5 54.5q104 0 165.5 -60.5t61.5 -160.5q0 -84 -35.5 -155t-88 -130t-109.5 -109.5t-98 -91.5h325z" />
<glyph unicode="&#xb3;" horiz-adv-x="684" d="M588 1147q0 -115 -78 -182.5t-209 -67.5q-68 0 -123 19.5t-90 41.5l51 95q27 -16 64 -30.5t102 -14.5q74 0 114 36.5t40 106.5q0 139 -174 139h-64v107h64q72 0 112.5 36.5t40.5 100.5q0 49 -34.5 78.5t-86.5 29.5q-35 0 -71.5 -15t-77.5 -56l-72 71q49 49 105.5 77 t120.5 28q104 0 170.5 -58.5t66.5 -152.5q0 -59 -24.5 -102t-77.5 -80q131 -60 131 -207z" />
<glyph unicode="&#xb4;" d="M377 1235l323 262l86 -123l-358 -211z" />
<glyph unicode="&#xb5;" horiz-adv-x="993" d="M840 240q0 -57 7 -114.5t23 -119.5l-114 -16q-4 8 -16.5 35.5t-24.5 68.5q-80 -70 -148.5 -96.5t-122.5 -26.5q-41 0 -77.5 16.5t-59.5 45.5v-453l-143 -20v1444l143 20v-662q0 -141 32 -198.5t112 -57.5q59 0 123.5 30t119.5 83v785l146 20v-784z" />
<glyph unicode="&#xb6;" horiz-adv-x="1187" d="M1008 1450v-1843h-134v1718h-124v-1718h-134v768q-57 -10 -86.5 -13.5t-60.5 -3.5q-176 0 -267 141.5t-91 415.5q0 184 54 308.5t159 181.5q45 25 110.5 35t181.5 10h392zM616 1325q-57 0 -94 -1t-61.5 -4t-41 -10t-30.5 -18q-59 -41 -84.5 -131t-25.5 -250 q0 -223 57 -323.5t190 -100.5q23 0 42.5 2.5t47.5 8.5v827z" />
<glyph unicode="&#xb7;" horiz-adv-x="575" d="M397 674q0 -47 -30.5 -80t-77.5 -33t-79 33t-32 80t31 79.5t78 32.5t78.5 -32.5t31.5 -79.5z" />
<glyph unicode="&#xb8;" d="M643 -250q0 -72 -55.5 -117t-141.5 -45q-39 0 -70.5 7.5t-53.5 17.5l28 100q16 -4 41 -11t60 -7q78 0 77 49q0 20 -14 33.5t-45 13.5h-20q-10 0 -21 -4l-55 23l26 210h101l-4 -143q70 0 108.5 -30.5t38.5 -96.5z" />
<glyph unicode="&#xb9;" horiz-adv-x="684" d="M170 1505l-43 74l223 152h96v-713h123v-105h-383v105h142v575z" />
<glyph unicode="&#xba;" horiz-adv-x="649" d="M580 1225q0 -154 -70 -241t-195 -87q-117 0 -182 85t-65 237q0 158 69.5 243.5t192.5 85.5q117 0 183.5 -84.5t66.5 -238.5zM455 1227q0 217 -131 217q-129 0 -129 -211q0 -233 131 -234q129 1 129 228z" />
<glyph unicode="&#xbb;" horiz-adv-x="931" d="M455 909l96 60l328 -424v-78l-328 -426l-96 57l258 406zM94 909l96 60l328 -424v-78l-328 -426l-96 57l258 406z" />
<glyph unicode="&#xbc;" horiz-adv-x="1624" d="M150 1165l-44 74l224 152h96v-713h123v-105h-383v105h141v575zM1118 1393l-557 -1430h-133l559 1430h131zM1255 485h101v-206h90v-105h-90v-182h-119v182h-346v100l330 551l129 -14l-322 -532h209z" />
<glyph unicode="&#xbd;" horiz-adv-x="1624" d="M1118 1393l-557 -1430h-133l559 1430h131zM150 1165l-44 74l224 152h96v-713h123v-105h-383v105h141v575zM1448 125v-125h-469v121q53 59 113.5 117.5t111.5 117t85 121t34 129.5q0 53 -27.5 82t-74.5 29q-43 0 -74 -25.5t-53 -93.5l-115 33q23 92 93.5 146t154.5 54 q104 0 165.5 -60t61.5 -161q0 -84 -36 -154.5t-88 -130t-109.5 -109.5t-98.5 -91h326z" />
<glyph unicode="&#xbe;" horiz-adv-x="1624" d="M1118 1393l-557 -1430h-133l559 1430h131zM588 807q0 -115 -78 -182.5t-209 -67.5q-68 0 -123 19.5t-90 41.5l51 95q27 -16 64 -30.5t102 -14.5q74 0 114 36.5t40 106.5q0 139 -174 139h-64v107h64q72 0 112.5 36.5t40.5 100.5q0 49 -34.5 79t-86.5 30q-35 0 -71.5 -15.5 t-77.5 -56.5l-72 72q49 49 105.5 76.5t120.5 27.5q104 0 170.5 -58.5t66.5 -152.5q0 -59 -24.5 -102t-77.5 -80q131 -60 131 -207zM1255 485h101v-206h90v-105h-90v-182h-119v182h-346v100l330 551l129 -14l-322 -532h209z" />
<glyph unicode="&#xbf;" horiz-adv-x="827" d="M119 -145q0 94 46 162.5t101.5 132t101.5 136t46 177.5v90h137v-98q0 -82 -20.5 -142.5t-52.5 -108.5t-67.5 -88l-67.5 -79t-52.5 -82t-20.5 -96q0 -94 57.5 -134t155.5 -40q100 0 224 59l41 -123q-53 -29 -121 -49.5t-156 -20.5q-160 0 -256 75t-96 229zM338 905 q0 59 41 100.5t100 41.5t99 -41t40 -101q0 -59 -41.5 -100t-101.5 -41q-55 0 -96 42t-41 99z" />
<glyph unicode="&#xc0;" horiz-adv-x="1042" d="M831 0l-112 442h-402l-112 -442h-170l401 1450h170l404 -1450h-179zM352 578h332l-121 483l-45 207l-43 -207zM612 1548l-358 211l86 123l323 -262z" />
<glyph unicode="&#xc1;" horiz-adv-x="1042" d="M831 0l-112 442h-402l-112 -442h-170l401 1450h170l404 -1450h-179zM352 578h332l-121 483l-45 207l-43 -207zM399 1620l324 262l86 -123l-358 -211z" />
<glyph unicode="&#xc2;" horiz-adv-x="1042" d="M831 0l-112 442h-402l-112 -442h-170l401 1450h170l404 -1450h-179zM352 578h332l-121 483l-45 207l-43 -207zM563 1835l217 -193l-69 -79l-191 135l-190 -135l-70 79l217 193h86z" />
<glyph unicode="&#xc3;" horiz-adv-x="1042" d="M831 0l-112 442h-402l-112 -442h-170l401 1450h170l404 -1450h-179zM352 578h332l-121 483l-45 207l-43 -207zM807 1755q-29 -66 -67.5 -107.5t-110.5 -41.5q-29 0 -51.5 6t-65.5 35q-39 25 -59.5 30.5t-40.5 5.5q-29 0 -51.5 -22.5t-40.5 -54.5l-86 47q31 72 71.5 110.5 t102.5 38.5q29 0 55.5 -6t71.5 -35q23 -14 45 -25.5t45 -11.5q29 0 55.5 24t40.5 54z" />
<glyph unicode="&#xc4;" horiz-adv-x="1042" d="M831 0l-112 442h-402l-112 -442h-170l401 1450h170l404 -1450h-179zM352 578h332l-121 483l-45 207l-43 -207zM816 1706q0 -45 -30 -76t-73 -31t-72.5 31t-29.5 78q0 43 29.5 73.5t72.5 30.5t73 -30.5t30 -75.5zM433 1706q0 -45 -30 -76t-73 -31t-72.5 31t-29.5 78 q0 43 29.5 73.5t72.5 30.5t73 -30.5t30 -75.5z" />
<glyph unicode="&#xc5;" horiz-adv-x="1042" d="M831 0l-112 442h-402l-112 -442h-170l401 1450h170l404 -1450h-179zM352 578h332l-121 483l-45 207l-43 -207zM699 1716q0 -84 -53.5 -132t-124.5 -48q-72 0 -125.5 49t-53.5 135t53.5 133.5t129.5 47.5q68 0 121 -50.5t53 -134.5zM607 1716q0 53 -23.5 78t-64.5 25 q-84 0 -84 -103q0 -53 22.5 -75.5t63.5 -22.5t63.5 22.5t22.5 75.5z" />
<glyph unicode="&#xc6;" horiz-adv-x="1331" d="M1241 1313h-465v-494h410v-129h-410v-553h492v-137h-643v442h-363l-182 -442h-176l637 1450h733zM317 578h308v770l-101 -267z" />
<glyph unicode="&#xc7;" horiz-adv-x="899" d="M715 -250q0 -72 -55.5 -117t-141.5 -45q-39 0 -70.5 7.5t-54.5 17.5l29 100q16 -4 40.5 -11t59.5 -7q78 0 78 49q0 20 -14.5 33.5t-44.5 13.5h-21q-10 0 -20 -4l-56 23l21 167q-178 31 -270.5 218.5t-92.5 543.5q0 141 17.5 274.5t64.5 237t131 166t217 62.5 q78 0 162 -34t164 -122l-96 -102q-59 59 -113.5 92t-120.5 33q-133 0 -194.5 -139.5t-61.5 -448.5q0 -324 70 -489t205 -165q59 0 112.5 31t118.5 96l92 -100q-63 -78 -143 -114.5t-158 -43.5l-2 -96q70 0 109 -30.5t39 -96.5z" />
<glyph unicode="&#xc8;" horiz-adv-x="901" d="M811 1313h-465v-494h410v-129h-410v-553h492v-137h-650v1450h656zM584 1548l-358 211l86 123l323 -262z" />
<glyph unicode="&#xc9;" horiz-adv-x="901" d="M811 1313h-465v-494h410v-129h-410v-553h492v-137h-650v1450h656zM368 1620l324 262l86 -123l-358 -211z" />
<glyph unicode="&#xca;" horiz-adv-x="901" d="M811 1313h-465v-494h410v-129h-410v-553h492v-137h-650v1450h656zM555 1835l217 -193l-69 -79l-191 135l-190 -135l-70 79l217 193h86z" />
<glyph unicode="&#xcb;" horiz-adv-x="901" d="M811 1313h-465v-494h410v-129h-410v-553h492v-137h-650v1450h656zM807 1706q0 -45 -30 -76t-73 -31t-72.5 31t-29.5 78q0 43 29.5 73.5t72.5 30.5t73 -30.5t30 -75.5zM424 1706q0 -45 -30 -76t-73 -31t-72.5 31t-29.5 78q0 43 29.5 73.5t72.5 30.5t73 -30.5t30 -75.5z " />
<glyph unicode="&#xcc;" horiz-adv-x="649" d="M244 1325h-170v125h499v-125h-172v-1200h172v-125h-499v125h170v1200zM397 1548l-358 211l86 123l323 -262z" />
<glyph unicode="&#xcd;" horiz-adv-x="649" d="M244 1325h-170v125h499v-125h-172v-1200h172v-125h-499v125h170v1200zM202 1620l324 262l86 -123l-358 -211z" />
<glyph unicode="&#xce;" horiz-adv-x="649" d="M244 1325h-170v125h499v-125h-172v-1200h172v-125h-499v125h170v1200zM368 1835l217 -193l-69 -79l-191 135l-190 -135l-70 79l217 193h86z" />
<glyph unicode="&#xcf;" horiz-adv-x="649" d="M244 1325h-170v125h499v-125h-172v-1200h172v-125h-499v125h170v1200zM619 1706q0 -45 -30 -76t-73 -31t-72.5 31t-29.5 78q0 43 29.5 73.5t72.5 30.5t73 -30.5t30 -75.5zM236 1706q0 -45 -30 -76t-73 -31t-72.5 31t-29.5 78q0 43 29.5 73.5t72.5 30.5t73 -30.5t30 -75.5 z" />
<glyph unicode="&#xd0;" horiz-adv-x="1081" d="M463 1450q266 0 390 -175t124 -523q0 -383 -135 -567.5t-410 -184.5h-244v696h-131v121h131v633h275zM809 752q0 143 -15.5 249.5t-57.5 175t-116.5 102.5t-193.5 34h-80v-496h260v-121h-260v-559h98q111 0 181.5 37t111.5 112.5t56.5 191.5t15.5 274z" />
<glyph unicode="&#xd1;" horiz-adv-x="1116" d="M799 0l-447 1077l-57 185l14 -193v-1069h-141v1450h178l424 -1012l53 -174l-8 178v1008h139v-1450h-155zM844 1755q-29 -66 -67.5 -107.5t-110.5 -41.5q-29 0 -51.5 6t-65.5 35q-39 25 -59.5 30.5t-40.5 5.5q-29 0 -51.5 -22.5t-40.5 -54.5l-86 47q31 72 71.5 110.5 t102.5 38.5q29 0 55.5 -6t71.5 -35q23 -14 45 -25.5t45 -11.5q29 0 55.5 24t40.5 54z" />
<glyph unicode="&#xd2;" horiz-adv-x="1081" d="M979 727q0 -375 -113.5 -565.5t-337.5 -190.5q-211 0 -318.5 187.5t-107.5 556.5q0 387 113 575.5t342 188.5q209 0 315.5 -189.5t106.5 -562.5zM807 711q0 166 -17.5 299t-56.5 215q-59 125 -192 125q-66 0 -119 -37t-82 -101q-35 -78 -51.5 -195.5t-16.5 -285.5 q0 -164 19.5 -292t56.5 -214q57 -125 191 -125q70 0 121 36t79 102q33 78 50.5 196.5t17.5 276.5zM612 1548l-358 211l86 123l323 -262z" />
<glyph unicode="&#xd3;" horiz-adv-x="1081" d="M979 727q0 -375 -113.5 -565.5t-337.5 -190.5q-211 0 -318.5 187.5t-107.5 556.5q0 387 113 575.5t342 188.5q209 0 315.5 -189.5t106.5 -562.5zM807 711q0 166 -17.5 299t-56.5 215q-59 125 -192 125q-66 0 -119 -37t-82 -101q-35 -78 -51.5 -195.5t-16.5 -285.5 q0 -164 19.5 -292t56.5 -214q57 -125 191 -125q70 0 121 36t79 102q33 78 50.5 196.5t17.5 276.5zM417 1620l324 262l86 -123l-358 -211z" />
<glyph unicode="&#xd4;" horiz-adv-x="1081" d="M979 727q0 -375 -113.5 -565.5t-337.5 -190.5q-211 0 -318.5 187.5t-107.5 556.5q0 387 113 575.5t342 188.5q209 0 315.5 -189.5t106.5 -562.5zM807 711q0 166 -17.5 299t-56.5 215q-59 125 -192 125q-66 0 -119 -37t-82 -101q-35 -78 -51.5 -195.5t-16.5 -285.5 q0 -164 19.5 -292t56.5 -214q57 -125 191 -125q70 0 121 36t79 102q33 78 50.5 196.5t17.5 276.5zM583 1835l217 -193l-69 -79l-191 135l-190 -135l-70 79l217 193h86z" />
<glyph unicode="&#xd5;" horiz-adv-x="1081" d="M979 727q0 -375 -113.5 -565.5t-337.5 -190.5q-211 0 -318.5 187.5t-107.5 556.5q0 387 113 575.5t342 188.5q209 0 315.5 -189.5t106.5 -562.5zM807 711q0 166 -17.5 299t-56.5 215q-59 125 -192 125q-66 0 -119 -37t-82 -101q-35 -78 -51.5 -195.5t-16.5 -285.5 q0 -164 19.5 -292t56.5 -214q57 -125 191 -125q70 0 121 36t79 102q33 78 50.5 196.5t17.5 276.5zM827 1755q-29 -66 -67.5 -107.5t-110.5 -41.5q-29 0 -51.5 6t-65.5 35q-39 25 -59.5 30.5t-40.5 5.5q-29 0 -51.5 -22.5t-40.5 -54.5l-86 47q31 72 71.5 110.5t102.5 38.5 q29 0 55.5 -6t71.5 -35q23 -14 45 -25.5t45 -11.5q29 0 55.5 24t40.5 54z" />
<glyph unicode="&#xd6;" horiz-adv-x="1081" d="M979 727q0 -375 -113.5 -565.5t-337.5 -190.5q-211 0 -318.5 187.5t-107.5 556.5q0 387 113 575.5t342 188.5q209 0 315.5 -189.5t106.5 -562.5zM807 711q0 166 -17.5 299t-56.5 215q-59 125 -192 125q-66 0 -119 -37t-82 -101q-35 -78 -51.5 -195.5t-16.5 -285.5 q0 -164 19.5 -292t56.5 -214q57 -125 191 -125q70 0 121 36t79 102q33 78 50.5 196.5t17.5 276.5zM834 1706q0 -45 -30 -76t-73 -31t-72.5 31t-29.5 78q0 43 29.5 73.5t72.5 30.5t73 -30.5t30 -75.5zM451 1706q0 -45 -30 -76t-73 -31t-72.5 31t-29.5 78q0 43 29.5 73.5 t72.5 30.5t73 -30.5t30 -75.5z" />
<glyph unicode="&#xd7;" d="M483 776l262 262l103 -102l-262 -262l262 -262l-103 -103l-262 262l-260 -260l-102 103l260 260l-260 260l102 102z" />
<glyph unicode="&#xd8;" horiz-adv-x="1081" d="M979 727q0 -375 -113.5 -565.5t-337.5 -190.5q-147 0 -243 90l-72 -153l-104 41l100 213q-106 186 -107 553q0 387 113 575.5t342 188.5q135 0 229 -84l78 164l109 -41l-107 -224q113 -190 113 -567zM807 711q0 117 -8 213t-25 172l-420 -887q57 -109 185 -109 q70 0 121 36t79 102q33 78 50.5 196.5t17.5 276.5zM272 731q0 -106 8.5 -198.5t24.5 -167.5l414 884q-31 51 -74 76t-104 25q-66 0 -119 -37t-82 -101q-68 -153 -68 -481z" />
<glyph unicode="&#xd9;" horiz-adv-x="1150" d="M987 381q0 -205 -114.5 -307.5t-311.5 -102.5q-201 0 -299 100.5t-98 311.5v1067h158v-1063q0 -156 56 -221.5t193 -65.5q135 0 200 70t65 217v1063h151v-1069zM647 1548l-358 211l86 123l323 -262z" />
<glyph unicode="&#xda;" horiz-adv-x="1150" d="M987 381q0 -205 -114.5 -307.5t-311.5 -102.5q-201 0 -299 100.5t-98 311.5v1067h158v-1063q0 -156 56 -221.5t193 -65.5q135 0 200 70t65 217v1063h151v-1069zM452 1620l324 262l86 -123l-358 -211z" />
<glyph unicode="&#xdb;" horiz-adv-x="1150" d="M987 381q0 -205 -114.5 -307.5t-311.5 -102.5q-201 0 -299 100.5t-98 311.5v1067h158v-1063q0 -156 56 -221.5t193 -65.5q135 0 200 70t65 217v1063h151v-1069zM618 1835l217 -193l-69 -79l-191 135l-190 -135l-70 79l217 193h86z" />
<glyph unicode="&#xdc;" horiz-adv-x="1150" d="M987 381q0 -205 -114.5 -307.5t-311.5 -102.5q-201 0 -299 100.5t-98 311.5v1067h158v-1063q0 -156 56 -221.5t193 -65.5q135 0 200 70t65 217v1063h151v-1069zM869 1706q0 -45 -30 -76t-73 -31t-72.5 31t-29.5 78q0 43 29.5 73.5t72.5 30.5t73 -30.5t30 -75.5zM486 1706 q0 -45 -30 -76t-73 -31t-72.5 31t-29.5 78q0 43 29.5 73.5t72.5 30.5t73 -30.5t30 -75.5z" />
<glyph unicode="&#xdd;" horiz-adv-x="923" d="M547 616v-616h-158v612l-393 824l176 24l248 -575l51 -135l51 137l242 573l164 -24zM380 1620l324 262l86 -123l-358 -211z" />
<glyph unicode="&#xde;" horiz-adv-x="978" d="M485 1200q109 0 189 -30.5t131 -88t75.5 -140.5t24.5 -185q0 -207 -101.5 -326t-318.5 -119h-139v-311h-158v1450h158v-250h139zM346 453h129q135 0 201.5 70.5t66.5 232.5t-66.5 232.5t-201.5 70.5h-129v-606z" />
<glyph unicode="&#xdf;" horiz-adv-x="1130" d="M1030 311q0 -80 -24.5 -148.5t-65.5 -109.5q-74 -76 -225 -76q-72 0 -134.5 16.5t-97.5 35.5l37 121q94 -47 207 -48q164 0 164 183q0 37 -6 65.5t-28.5 59t-64.5 69.5t-116 96l-53 43l-33 27q-12 10 -20.5 18.5t-16.5 18.5q-25 29 -40 65.5t-15 81.5q0 68 24.5 115 t81.5 103q29 29 48.5 52t31.5 46.5t17.5 47.5t5.5 52q0 78 -48.5 123t-134.5 45q-117 0 -166 -62.5t-49 -201.5v-1149h-143v1155q0 186 84 277q90 98 287 98q150 0 234.5 -70.5t84.5 -195.5q0 -47 -12.5 -92.5t-36.5 -84.5q-8 -12 -15 -21l-18 -22q-10 -12 -26 -28l-41 -43 q-35 -35 -50.5 -62.5t-15.5 -60.5q0 -18 3 -31.5t23.5 -34t61.5 -55.5l119 -96q98 -78 140 -154t42 -168z" />
<glyph unicode="&#xe0;" horiz-adv-x="892" d="M739 240q0 -57 7.5 -114.5t23.5 -119.5l-115 -16q-4 8 -18 42t-27 79q-66 -70 -130 -100.5t-142 -30.5q-119 0 -188.5 76.5t-69.5 209.5q0 356 514 369v70q0 106 -41 151t-137 45q-59 0 -112.5 -17.5t-131.5 -52.5l-49 119q68 35 140.5 59.5t170.5 24.5q305 0 305 -293 v-501zM594 508q-367 -4 -367 -229q0 -76 40 -124.5t104 -48.5q98 0 223 123v279zM518 1163l-359 211l86 123l324 -262z" />
<glyph unicode="&#xe1;" horiz-adv-x="892" d="M739 240q0 -57 7.5 -114.5t23.5 -119.5l-115 -16q-4 8 -18 42t-27 79q-66 -70 -130 -100.5t-142 -30.5q-119 0 -188.5 76.5t-69.5 209.5q0 356 514 369v70q0 106 -41 151t-137 45q-59 0 -112.5 -17.5t-131.5 -52.5l-49 119q68 35 140.5 59.5t170.5 24.5q305 0 305 -293 v-501zM594 508q-367 -4 -367 -229q0 -76 40 -124.5t104 -48.5q98 0 223 123v279zM324 1235l323 262l86 -123l-358 -211z" />
<glyph unicode="&#xe2;" horiz-adv-x="892" d="M739 240q0 -57 7.5 -114.5t23.5 -119.5l-115 -16q-4 8 -18 42t-27 79q-66 -70 -130 -100.5t-142 -30.5q-119 0 -188.5 76.5t-69.5 209.5q0 356 514 369v70q0 106 -41 151t-137 45q-59 0 -112.5 -17.5t-131.5 -52.5l-49 119q68 35 140.5 59.5t170.5 24.5q305 0 305 -293 v-501zM594 508q-367 -4 -367 -229q0 -76 40 -124.5t104 -48.5q98 0 223 123v279zM490 1450l217 -193l-70 -79l-190 135l-191 -135l-69 79l217 193h86z" />
<glyph unicode="&#xe3;" horiz-adv-x="892" d="M739 240q0 -57 7.5 -114.5t23.5 -119.5l-115 -16q-4 8 -18 42t-27 79q-66 -70 -130 -100.5t-142 -30.5q-119 0 -188.5 76.5t-69.5 209.5q0 356 514 369v70q0 106 -41 151t-137 45q-59 0 -112.5 -17.5t-131.5 -52.5l-49 119q68 35 140.5 59.5t170.5 24.5q305 0 305 -293 v-501zM594 508q-367 -4 -367 -229q0 -76 40 -124.5t104 -48.5q98 0 223 123v279zM733 1370q-29 -66 -67.5 -107.5t-110.5 -41.5q-29 0 -51.5 6t-65.5 35q-39 25 -59 30.5t-41 5.5q-29 0 -51.5 -22.5t-40.5 -54.5l-86 47q31 72 72 110.5t102 38.5q29 0 55.5 -6t71.5 -35 q23 -14 45.5 -25.5t44.5 -11.5q29 0 55.5 23.5t40.5 54.5z" />
<glyph unicode="&#xe4;" horiz-adv-x="892" d="M739 240q0 -57 7.5 -114.5t23.5 -119.5l-115 -16q-4 8 -18 42t-27 79q-66 -70 -130 -100.5t-142 -30.5q-119 0 -188.5 76.5t-69.5 209.5q0 356 514 369v70q0 106 -41 151t-137 45q-59 0 -112.5 -17.5t-131.5 -52.5l-49 119q68 35 140.5 59.5t170.5 24.5q305 0 305 -293 v-501zM594 508q-367 -4 -367 -229q0 -76 40 -124.5t104 -48.5q98 0 223 123v279zM742 1321q0 -45 -30 -76t-73 -31t-72.5 31t-29.5 78q0 43 29.5 73.5t72.5 30.5t73 -30.5t30 -75.5zM359 1321q0 -45 -30 -76t-73 -31t-72.5 31t-29.5 78q0 43 29.5 73.5t72.5 30.5t73 -30.5 t30 -75.5z" />
<glyph unicode="&#xe5;" horiz-adv-x="892" d="M739 240q0 -57 7.5 -114.5t23.5 -119.5l-115 -16q-4 8 -18 42t-27 79q-66 -70 -130 -100.5t-142 -30.5q-119 0 -188.5 76.5t-69.5 209.5q0 356 514 369v70q0 106 -41 151t-137 45q-59 0 -112.5 -17.5t-131.5 -52.5l-49 119q68 35 140.5 59.5t170.5 24.5q305 0 305 -293 v-501zM594 508q-367 -4 -367 -229q0 -76 40 -124.5t104 -48.5q98 0 223 123v279zM617 1352q0 -84 -53.5 -132.5t-124.5 -48.5q-72 0 -125.5 49.5t-53.5 135.5t53.5 133t129.5 47q68 0 121 -50t53 -134zM525 1352q0 53 -23.5 77.5t-64.5 24.5q-84 0 -84 -102q0 -53 22.5 -76 t63.5 -23t63.5 23t22.5 76z" />
<glyph unicode="&#xe6;" horiz-adv-x="1376" d="M434 1034q88 -2 148.5 -32.5t107.5 -102.5q90 143 268 143q104 0 173 -47t110 -119.5t57.5 -160.5t16.5 -172v-30q0 -19 -2 -40h-582q10 -193 78 -280t180 -87q66 0 126.5 24t119.5 67l57 -127q-61 -41 -136 -70t-177 -29q-207 0 -301 170q-84 -82 -164 -121.5 t-174 -39.5q-123 0 -191.5 75.5t-68.5 210.5q0 172 126 259t394 93v87q0 104 -42 150t-140 46q-61 0 -114.5 -17.5t-131.5 -52.5l-49 119q68 35 140.5 59.5t170.5 24.5zM600 494q-201 -8 -286 -57.5t-85 -160.5q0 -78 39 -124t105 -46q57 0 112.5 29t114.5 94v265zM958 920 q-90 0 -153.5 -73t-71.5 -249h434q-4 156 -57.5 239t-151.5 83z" />
<glyph unicode="&#xe7;" horiz-adv-x="792" d="M664 -250q0 -72 -55.5 -117t-141.5 -45q-39 0 -70.5 7.5t-54.5 17.5l29 100q16 -4 40.5 -11t59.5 -7q78 0 78 49q0 20 -14.5 33.5t-45.5 13.5h-20q-10 0 -20 -4l-56 23l21 165q-150 20 -232 152.5t-82 355.5q0 129 28 233.5t78 176.5t123.5 110.5t166.5 38.5 q90 0 160.5 -34.5t125.5 -87.5l-71 -107q-37 31 -66 51.5t-52.5 30.5t-46 14t-48.5 4q-117 0 -177.5 -102t-60.5 -301q0 -203 54.5 -306.5t162.5 -103.5q33 0 59.5 6.5t54 19.5t57.5 35l69 52l57 -115q-49 -45 -110.5 -78.5t-145.5 -44.5l-2 -98q70 0 109 -30.5t39 -96.5z " />
<glyph unicode="&#xe8;" horiz-adv-x="901" d="M256 473q10 -193 77.5 -281t180.5 -88q66 0 126 24t120 67l57 -125q-61 -41 -136 -70t-177 -29q-92 0 -167 38t-127 106.5t-81 167t-29 221.5t27 223t77 170t120.5 107.5t158.5 37.5q104 0 173 -47t110 -119.5t57.5 -160.5t16.5 -172v-30q0 -19 -2 -40h-582zM483 920 q-90 0 -153.5 -73t-71.5 -249h434q-4 156 -57.5 239t-151.5 83zM584 1163l-359 211l86 123l324 -262z" />
<glyph unicode="&#xe9;" horiz-adv-x="901" d="M256 473q10 -193 77.5 -281t180.5 -88q66 0 126 24t120 67l57 -125q-61 -41 -136 -70t-177 -29q-92 0 -167 38t-127 106.5t-81 167t-29 221.5t27 223t77 170t120.5 107.5t158.5 37.5q104 0 173 -47t110 -119.5t57.5 -160.5t16.5 -172v-30q0 -19 -2 -40h-582zM483 920 q-90 0 -153.5 -73t-71.5 -249h434q-4 156 -57.5 239t-151.5 83zM369 1235l323 262l86 -123l-358 -211z" />
<glyph unicode="&#xea;" horiz-adv-x="901" d="M256 473q10 -193 77.5 -281t180.5 -88q66 0 126 24t120 67l57 -125q-61 -41 -136 -70t-177 -29q-92 0 -167 38t-127 106.5t-81 167t-29 221.5t27 223t77 170t120.5 107.5t158.5 37.5q104 0 173 -47t110 -119.5t57.5 -160.5t16.5 -172v-30q0 -19 -2 -40h-582zM483 920 q-90 0 -153.5 -73t-71.5 -249h434q-4 156 -57.5 239t-151.5 83zM529 1450l217 -193l-70 -79l-190 135l-191 -135l-69 79l217 193h86z" />
<glyph unicode="&#xeb;" horiz-adv-x="901" d="M256 473q10 -193 77.5 -281t180.5 -88q66 0 126 24t120 67l57 -125q-61 -41 -136 -70t-177 -29q-92 0 -167 38t-127 106.5t-81 167t-29 221.5t27 223t77 170t120.5 107.5t158.5 37.5q104 0 173 -47t110 -119.5t57.5 -160.5t16.5 -172v-30q0 -19 -2 -40h-582zM483 920 q-90 0 -153.5 -73t-71.5 -249h434q-4 156 -57.5 239t-151.5 83zM777 1321q0 -45 -30 -76t-73 -31t-72.5 31t-29.5 78q0 43 29.5 73.5t72.5 30.5t73 -30.5t30 -75.5zM394 1321q0 -45 -30 -76t-73 -31t-72.5 31t-29.5 78q0 43 29.5 73.5t72.5 30.5t73 -30.5t30 -75.5z" />
<glyph unicode="&#xec;" horiz-adv-x="503" d="M195 0v893h-160v121h303v-1014h-143zM344 1163l-359 211l86 123l324 -262z" />
<glyph unicode="&#xed;" horiz-adv-x="503" d="M195 0v893h-160v121h303v-1014h-143zM148 1235l323 262l86 -123l-358 -211z" />
<glyph unicode="&#xee;" horiz-adv-x="503" d="M195 0v893h-160v121h303v-1014h-143zM295 1450l217 -193l-70 -79l-190 135l-191 -135l-69 79l217 193h86z" />
<glyph unicode="&#xef;" horiz-adv-x="503" d="M506 1321q0 -45 -30 -76t-73 -31t-72.5 31t-29.5 78q0 43 29.5 73.5t72.5 30.5t73 -30.5t30 -75.5zM205 1321q0 -45 -30 -76t-73 -31t-72.5 31t-29.5 78q0 43 29.5 73.5t72.5 30.5t73 -30.5t30 -75.5zM195 0v893h-160v121h303v-1014h-143z" />
<glyph unicode="&#xf0;" horiz-adv-x="972" d="M479 1364l-57 90l-57 84l114 37l52 -72q28 -37 53 -78l174 105l49 -92l-168 -101q51 -88 94 -184t74 -196.5t48 -202t17 -199.5q0 -281 -104 -432.5t-295 -151.5q-176 0 -274.5 141.5t-98.5 397.5q0 123 27 221t74 168q100 143 274 143q53 0 97 -19t90 -60 q-14 70 -48 149.5t-82 161.5l-176 -105l-49 93zM719 504q0 201 -59.5 307.5t-176.5 106.5q-111 0 -169 -98.5t-58 -284.5q0 -106 17.5 -200.5t48.5 -148.5q25 -45 70.5 -69.5t99.5 -24.5q55 0 101 25.5t69 70.5q29 49 43 132.5t14 183.5z" />
<glyph unicode="&#xf1;" horiz-adv-x="993" d="M307 0h-143v788q0 57 -7 115t-24 119l115 16q4 -10 19.5 -39.5t27.5 -101.5q90 78 161.5 111.5t151.5 33.5q68 0 120 -26.5t79 -73.5q10 -18 16 -36.5t10.5 -42t5.5 -56.5t1 -78v-729h-144v731q0 98 -29.5 140t-101.5 42q-43 0 -111.5 -38.5t-146.5 -100.5v-774z M782 1370q-29 -66 -67.5 -107.5t-110.5 -41.5q-29 0 -51.5 6t-65.5 35q-39 25 -59 30.5t-41 5.5q-29 0 -51.5 -22.5t-40.5 -54.5l-86 47q31 72 72 110.5t102 38.5q29 0 55.5 -6t71.5 -35q23 -14 45.5 -25.5t44.5 -11.5q29 0 55.5 23.5t40.5 54.5z" />
<glyph unicode="&#xf2;" horiz-adv-x="972" d="M872 514q0 -260 -104 -401.5t-293 -141.5q-180 0 -277.5 138.5t-97.5 392.5q0 258 104.5 399t293.5 141q178 0 276 -140t98 -388zM717 516q0 197 -58.5 299.5t-175.5 102.5q-111 0 -169 -101.5t-58 -292.5q0 -74 7 -149.5t30.5 -137t70 -101.5t123.5 -40q74 0 119 37 t69.5 97.5t33 135t8.5 150.5zM582 1163l-359 211l86 123l324 -262z" />
<glyph unicode="&#xf3;" horiz-adv-x="972" d="M872 514q0 -260 -104 -401.5t-293 -141.5q-180 0 -277.5 138.5t-97.5 392.5q0 258 104.5 399t293.5 141q178 0 276 -140t98 -388zM717 516q0 197 -58.5 299.5t-175.5 102.5q-111 0 -169 -101.5t-58 -292.5q0 -74 7 -149.5t30.5 -137t70 -101.5t123.5 -40q74 0 119 37 t69.5 97.5t33 135t8.5 150.5zM365 1235l323 262l86 -123l-358 -211z" />
<glyph unicode="&#xf4;" horiz-adv-x="972" d="M872 514q0 -260 -104 -401.5t-293 -141.5q-180 0 -277.5 138.5t-97.5 392.5q0 258 104.5 399t293.5 141q178 0 276 -140t98 -388zM717 516q0 197 -58.5 299.5t-175.5 102.5q-111 0 -169 -101.5t-58 -292.5q0 -74 7 -149.5t30.5 -137t70 -101.5t123.5 -40q74 0 119 37 t69.5 97.5t33 135t8.5 150.5zM531 1450l217 -193l-70 -79l-190 135l-191 -135l-69 79l217 193h86z" />
<glyph unicode="&#xf5;" horiz-adv-x="972" d="M872 514q0 -260 -104 -401.5t-293 -141.5q-180 0 -277.5 138.5t-97.5 392.5q0 258 104.5 399t293.5 141q178 0 276 -140t98 -388zM717 516q0 197 -58.5 299.5t-175.5 102.5q-111 0 -169 -101.5t-58 -292.5q0 -74 7 -149.5t30.5 -137t70 -101.5t123.5 -40q74 0 119 37 t69.5 97.5t33 135t8.5 150.5zM774 1370q-29 -66 -67.5 -107.5t-110.5 -41.5q-29 0 -51.5 6t-65.5 35q-39 25 -59 30.5t-41 5.5q-29 0 -51.5 -22.5t-40.5 -54.5l-86 47q31 72 72 110.5t102 38.5q29 0 55.5 -6t71.5 -35q23 -14 45.5 -25.5t44.5 -11.5q29 0 55.5 23.5 t40.5 54.5z" />
<glyph unicode="&#xf6;" horiz-adv-x="972" d="M872 514q0 -260 -104 -401.5t-293 -141.5q-180 0 -277.5 138.5t-97.5 392.5q0 258 104.5 399t293.5 141q178 0 276 -140t98 -388zM717 516q0 197 -58.5 299.5t-175.5 102.5q-111 0 -169 -101.5t-58 -292.5q0 -74 7 -149.5t30.5 -137t70 -101.5t123.5 -40q74 0 119 37 t69.5 97.5t33 135t8.5 150.5zM781 1321q0 -45 -30 -76t-73 -31t-72.5 31t-29.5 78q0 43 29.5 73.5t72.5 30.5t73 -30.5t30 -75.5zM398 1321q0 -45 -30 -76t-73 -31t-72.5 31t-29.5 78q0 43 29.5 73.5t72.5 30.5t73 -30.5t30 -75.5z" />
<glyph unicode="&#xf7;" d="M594 1036q0 -47 -31 -80.5t-76 -33.5q-47 0 -78.5 33.5t-31.5 80.5t31.5 79t78.5 32q45 0 76 -32t31 -79zM594 311q0 -47 -31 -79.5t-76 -32.5q-47 0 -78.5 32.5t-31.5 79.5t31.5 81t78.5 34q45 0 76 -34t31 -81zM43 602v146h885v-146h-885z" />
<glyph unicode="&#xf8;" horiz-adv-x="972" d="M872 514q0 -260 -104 -401.5t-293 -141.5q-47 0 -88 10.5t-78 28.5l-47 -102l-98 41l59 129q-123 139 -123 424q0 258 104.5 399t293.5 141q86 0 157 -36l56 120l98 -41l-68 -145q63 -68 97 -175.5t34 -250.5zM717 516q0 170 -47 270l-303 -653q45 -37 120 -37 q74 0 119 37t69.5 97.5t33 135t8.5 150.5zM256 524q0 -76 7 -152.5t32 -140.5l301 652q-47 35 -113 35q-111 0 -169 -102t-58 -292z" />
<glyph unicode="&#xf9;" horiz-adv-x="993" d="M840 240q0 -57 7 -114.5t23 -119.5l-114 -16q-4 8 -16.5 35.5t-24.5 68.5q-80 -70 -144.5 -96.5t-140.5 -26.5q-129 0 -197.5 67.5t-68.5 209.5v756l143 20v-662q0 -145 31 -200.5t111 -55.5q59 0 124.5 30t120.5 83v785l146 20v-784zM567 1163l-359 211l86 123l324 -262 z" />
<glyph unicode="&#xfa;" horiz-adv-x="993" d="M840 240q0 -57 7 -114.5t23 -119.5l-114 -16q-4 8 -16.5 35.5t-24.5 68.5q-80 -70 -144.5 -96.5t-140.5 -26.5q-129 0 -197.5 67.5t-68.5 209.5v756l143 20v-662q0 -145 31 -200.5t111 -55.5q59 0 124.5 30t120.5 83v785l146 20v-784zM375 1235l323 262l86 -123 l-358 -211z" />
<glyph unicode="&#xfb;" horiz-adv-x="993" d="M840 240q0 -57 7 -114.5t23 -119.5l-114 -16q-4 8 -16.5 35.5t-24.5 68.5q-80 -70 -144.5 -96.5t-140.5 -26.5q-129 0 -197.5 67.5t-68.5 209.5v756l143 20v-662q0 -145 31 -200.5t111 -55.5q59 0 124.5 30t120.5 83v785l146 20v-784zM547 1450l217 -193l-70 -79 l-190 135l-191 -135l-69 79l217 193h86z" />
<glyph unicode="&#xfc;" horiz-adv-x="993" d="M840 240q0 -57 7 -114.5t23 -119.5l-114 -16q-4 8 -16.5 35.5t-24.5 68.5q-80 -70 -144.5 -96.5t-140.5 -26.5q-129 0 -197.5 67.5t-68.5 209.5v756l143 20v-662q0 -145 31 -200.5t111 -55.5q59 0 124.5 30t120.5 83v785l146 20v-784zM801 1321q0 -45 -30 -76t-73 -31 t-72.5 31t-29.5 78q0 43 29.5 73.5t72.5 30.5t73 -30.5t30 -75.5zM418 1321q0 -45 -30 -76t-73 -31t-72.5 31t-29.5 78q0 43 29.5 73.5t72.5 30.5t73 -30.5t30 -75.5z" />
<glyph unicode="&#xfd;" horiz-adv-x="868" d="M565 -111q-25 -98 -55.5 -163.5t-67.5 -103.5t-81 -54.5t-95 -16.5q-61 0 -124 23t-110 61l58 111q53 -41 94 -57.5t82 -16.5q25 0 45 7.5t38.5 28t35 58t34.5 97.5l41 137h-88l-317 1006l158 18l235 -819l37 -137l33 139l182 817l154 -18zM332 1235l323 262l86 -123 l-358 -211z" />
<glyph unicode="&#xfe;" horiz-adv-x="960" d="M307 928q70 55 129.5 84.5t124.5 29.5q94 0 153.5 -48t91.5 -123.5t43 -166t11 -176.5q0 -129 -22.5 -232t-64.5 -175t-101.5 -111t-134.5 -39q-66 0 -116 21.5t-114 75.5v-488l-143 -20v1949l143 21v-602zM535 909q-47 0 -101.5 -25.5t-126.5 -80.5v-604 q66 -49 115 -69.5t100 -20.5q98 0 140.5 96t42.5 319v8q0 45 -3.5 110t-19.5 124t-50 101t-97 42z" />
<glyph unicode="&#xff;" horiz-adv-x="868" d="M565 -111q-25 -98 -55.5 -163.5t-67.5 -103.5t-81 -54.5t-95 -16.5q-61 0 -124 23t-110 61l58 111q53 -41 94 -57.5t82 -16.5q25 0 45 7.5t38.5 28t35 58t34.5 97.5l41 137h-88l-317 1006l158 18l235 -819l37 -137l33 139l182 817l154 -18zM730 1321q0 -45 -30 -76 t-73 -31t-72.5 31t-29.5 78q0 43 29.5 73.5t72.5 30.5t73 -30.5t30 -75.5zM347 1321q0 -45 -30 -76t-73 -31t-72.5 31t-29.5 78q0 43 29.5 73.5t72.5 30.5t73 -30.5t30 -75.5z" />
<glyph unicode="&#x131;" horiz-adv-x="503" d="M195 0v893h-160v121h303v-1014h-143z" />
<glyph unicode="&#x152;" horiz-adv-x="1476" d="M1386 1313h-464v-494h409v-129h-409v-553h491v-137h-649v96q-47 -57 -106.5 -91t-143.5 -34t-156.5 41t-121.5 117q-70 102 -102 245.5t-32 346.5q0 223 36 373.5t110 246.5q51 66 123.5 102t156.5 36q88 0 141.5 -30t94.5 -73v74h655zM528 100q55 0 117 29t119 107v976 q-47 61 -102.5 99.5t-126.5 38.5q-74 0 -124.5 -45t-81 -128t-44 -198t-13.5 -256q0 -301 65.5 -462t190.5 -161z" />
<glyph unicode="&#x153;" horiz-adv-x="1513" d="M868 473q10 -193 78 -280t180 -87q66 0 126.5 24t119.5 67l58 -127q-61 -41 -136 -70t-178 -29q-111 0 -192.5 53.5t-128.5 151.5q-49 -98 -125 -151.5t-193 -53.5q-180 0 -278.5 137.5t-98.5 393.5t103.5 398t288.5 142q100 0 173.5 -46t133.5 -148q47 92 120.5 143 t176.5 51q104 0 172.5 -47t109.5 -119.5t57.5 -160.5t16.5 -172v-30q0 -19 -2 -40h-582zM721 516q0 401 -240 402q-111 0 -168 -102.5t-57 -289.5q0 -106 15.5 -195t45.5 -143q25 -43 72 -68.5t100 -25.5q55 0 100.5 24.5t67.5 65.5q31 53 47.5 140.5t16.5 191.5zM1096 920 q-90 0 -153.5 -73t-72.5 -249h435q-4 156 -57.5 239t-151.5 83z" />
<glyph unicode="&#x178;" horiz-adv-x="923" d="M547 616v-616h-158v612l-393 824l176 24l248 -575l51 -135l51 137l242 573l164 -24zM758 1706q0 -45 -30 -76t-73 -31t-72.5 31t-29.5 78q0 43 29.5 73.5t72.5 30.5t73 -30.5t30 -75.5zM375 1706q0 -45 -30 -76t-73 -31t-72.5 31t-29.5 78q0 43 29.5 73.5t72.5 30.5 t73 -30.5t30 -75.5z" />
<glyph unicode="&#x2c6;" d="M530 1450l218 -193l-70 -79l-191 135l-190 -135l-70 79l217 193h86z" />
<glyph unicode="&#x2dc;" d="M774 1370q-29 -66 -67.5 -107.5t-110.5 -41.5q-29 0 -51.5 6t-65.5 35q-39 25 -59.5 30.5t-40.5 5.5q-29 0 -51.5 -22.5t-40.5 -54.5l-86 47q31 72 71.5 110.5t102.5 38.5q29 0 55.5 -6t71.5 -35q23 -14 45 -25.5t45 -11.5q29 0 55.5 23.5t40.5 54.5z" />
<glyph unicode="&#x300;" horiz-adv-x="2" d="M-389 1163l-359 211l86 123l324 -262z" />
<glyph unicode="&#x301;" horiz-adv-x="2" d="M-606 1235l323 262l86 -123l-358 -211z" />
<glyph unicode="&#x302;" horiz-adv-x="2" d="M-440 1450l217 -193l-70 -79l-190 135l-191 -135l-69 79l217 193h86z" />
<glyph unicode="&#x303;" horiz-adv-x="2" d="M-197 1370q-29 -66 -67.5 -107.5t-110.5 -41.5q-29 0 -51.5 6t-65.5 35q-39 25 -59 30.5t-41 5.5q-29 0 -51.5 -22.5t-40.5 -54.5l-86 47q31 72 72 110.5t102 38.5q29 0 55.5 -6t71.5 -35q23 -14 45.5 -25.5t44.5 -11.5q29 0 55.5 23.5t40.5 54.5z" />
<glyph unicode="&#x308;" horiz-adv-x="2" d="M-190 1321q0 -45 -30 -76t-73 -31t-72.5 31t-29.5 78q0 43 29.5 73.5t72.5 30.5t73 -30.5t30 -75.5zM-573 1321q0 -45 -30 -76t-73 -31t-72.5 31t-29.5 78q0 43 29.5 73.5t72.5 30.5t73 -30.5t30 -75.5z" />
<glyph unicode="&#x30a;" horiz-adv-x="2" d="M-307 1352q0 -84 -53.5 -132.5t-124.5 -48.5q-72 0 -125.5 49.5t-53.5 135.5t53.5 133t129.5 47q68 0 121 -50t53 -134zM-399 1352q0 53 -23.5 77.5t-64.5 24.5q-84 0 -84 -102q0 -53 22.5 -76t63.5 -23t63.5 23t22.5 76z" />
<glyph unicode="&#x2000;" horiz-adv-x="950" />
<glyph unicode="&#x2001;" horiz-adv-x="1900" />
<glyph unicode="&#x2002;" horiz-adv-x="950" />
<glyph unicode="&#x2003;" horiz-adv-x="1900" />
<glyph unicode="&#x2004;" horiz-adv-x="632" />
<glyph unicode="&#x2005;" horiz-adv-x="475" />
<glyph unicode="&#x2006;" horiz-adv-x="315" />
<glyph unicode="&#x2007;" horiz-adv-x="315" />
<glyph unicode="&#x2008;" horiz-adv-x="237" />
<glyph unicode="&#x2009;" horiz-adv-x="378" />
<glyph unicode="&#x200a;" horiz-adv-x="104" />
<glyph unicode="&#x2010;" horiz-adv-x="684" d="M74 467v145h538v-145h-538z" />
<glyph unicode="&#x2011;" horiz-adv-x="684" d="M74 467v145h538v-145h-538z" />
<glyph unicode="&#x2012;" horiz-adv-x="684" d="M74 467v145h538v-145h-538z" />
<glyph unicode="&#x2013;" horiz-adv-x="972" d="M74 467v145h823v-145h-823z" />
<glyph unicode="&#x2014;" horiz-adv-x="1513" d="M74 467v145h1366v-145h-1366z" />
<glyph unicode="&#x2018;" horiz-adv-x="405" d="M348 1481q-41 -53 -72.5 -104.5t-42.5 -88.5q41 -10 66 -44t25 -79q0 -53 -38 -89t-91 -36q-49 0 -86 37t-37 92q0 102 55 190.5t133 168.5z" />
<glyph unicode="&#x2019;" horiz-adv-x="405" d="M57 1087q41 53 73 104.5t42 88.5q-41 10 -65.5 44t-24.5 79q0 53 38 89t91 36q49 0 86 -37t37 -92q0 -102 -55.5 -190.5t-133.5 -168.5z" />
<glyph unicode="&#x201a;" horiz-adv-x="466" d="M72 -201q41 53 72.5 104.5t41.5 88.5q-41 10 -65.5 44t-24.5 79q0 53 38 89t91 36q49 0 86 -37t37 -92q0 -102 -55 -190.5t-133 -168.5z" />
<glyph unicode="&#x201c;" horiz-adv-x="753" d="M348 1481q-41 -53 -72.5 -104.5t-42.5 -88.5q41 -10 66 -44t25 -79q0 -53 -38 -89t-91 -36q-49 0 -86 37t-37 92q0 102 55 190.5t133 168.5zM696 1481q-41 -53 -72.5 -104.5t-41.5 -88.5q41 -10 65.5 -44t24.5 -79q0 -53 -38 -89t-91 -36q-49 0 -86 37t-37 92 q0 102 55 190.5t133 168.5z" />
<glyph unicode="&#x201d;" horiz-adv-x="753" d="M406 1087q41 53 72.5 104.5t41.5 88.5q-41 10 -65.5 44t-24.5 79q0 53 38 89t91 36q49 0 86 -37t37 -92q0 -102 -55.5 -190.5t-132.5 -168.5zM57 1087q41 53 73 104.5t42 88.5q-41 10 -65.5 44t-24.5 79q0 53 38 89t91 36q49 0 86 -37t37 -92q0 -102 -55.5 -190.5 t-133.5 -168.5z" />
<glyph unicode="&#x201e;" horiz-adv-x="792" d="M420 -201q41 53 72.5 104.5t42.5 88.5q-41 10 -66 44t-25 79q0 53 38 89t91 36q49 0 86 -37t37 -92q0 -102 -55 -190.5t-133 -168.5zM72 -201q41 53 72.5 104.5t41.5 88.5q-41 10 -65.5 44t-24.5 79q0 53 38 89t91 36q49 0 86 -37t37 -92q0 -102 -55 -190.5t-133 -168.5z " />
<glyph unicode="&#x2022;" d="M766 735q0 -61 -21.5 -115.5t-59.5 -95.5t-88 -64.5t-108 -23.5q-57 0 -108 23.5t-89 64.5t-60.5 95.5t-22.5 115.5q0 63 21.5 118.5t59.5 96.5t89 64.5t110 23.5q55 0 105.5 -23.5t88.5 -64.5t60.5 -96.5t22.5 -118.5z" />
<glyph unicode="&#x2026;" horiz-adv-x="1730" d="M1579 115q0 -59 -40 -101.5t-95 -42.5q-59 0 -98 42t-39 102q0 59 41 99t98 40q53 0 93 -41t40 -98zM1001 115q0 -59 -39.5 -101.5t-95.5 -42.5q-59 0 -98 42t-39 102q0 59 40 99t99 40q53 0 93 -41t40 -98zM426 115q0 -59 -41 -101.5t-94 -42.5q-59 0 -98 42t-39 102 q0 59 39.5 99t99.5 40q53 0 93 -41t40 -98z" />
<glyph unicode="&#x202f;" horiz-adv-x="378" />
<glyph unicode="&#x2039;" horiz-adv-x="575" d="M522 100l-96 -59l-328 424v78l328 426l96 -58l-258 -405z" />
<glyph unicode="&#x203a;" horiz-adv-x="575" d="M53 909l97 60l327 -424v-78l-327 -426l-97 57l258 406z" />
<glyph unicode="&#x205f;" horiz-adv-x="475" />
<glyph unicode="&#x20ac;" d="M393 520q20 -227 96 -324.5t191 -97.5q61 0 106 26t111 91l80 -94q-66 -80 -143.5 -115t-159.5 -35q-190 0 -300 131t-132 418h-146l21 105h119v120h-140l21 105h125q8 113 34.5 210t76.5 168.5t127 112.5t186 41q61 0 140 -26.5t159 -114.5l-91 -102q-59 66 -110 91 t-102 25q-53 0 -98.5 -21.5t-81.5 -69.5t-60.5 -124.5t-32.5 -189.5h393l-20 -105h-377v-38v-42q0 -19 2 -40h354l-20 -105h-328z" />
<glyph unicode="&#x2122;" horiz-adv-x="1333" d="M854 834l-92 260l-49 155l-6 -202l-13 -420h-112l45 823h118l154 -481l154 481h125l45 -823h-117l-12 411l-7 211l-53 -162l-94 -253h-86zM326 1362v-735h-113v735h-190v88h507l-16 -88h-188z" />
<glyph unicode="&#xe000;" horiz-adv-x="1025" d="M0 1025h1025v-1025h-1025v1025z" />
<glyph unicode="&#xfb01;" horiz-adv-x="1009" d="M700 0v893h-372v-893h-146v893h-149v121h149v203q0 55 12.5 111t43 100.5t82 73t131.5 28.5q33 0 65.5 -7t71.5 -24l-47 -108q-25 8 -44.5 12t-50.5 4q-41 0 -64.5 -17.5t-35.5 -45t-15 -61.5t-3 -66v-203h516v-1014h-144zM874 1391q0 -51 -34.5 -86t-81.5 -35 q-49 0 -83 34.5t-34 86.5q0 51 34 85.5t85 34.5q47 0 80.5 -34.5t33.5 -85.5z" />
<glyph unicode="&#xfb02;" horiz-adv-x="1105" d="M590 1014l-25 -121h-237v-893h-146v893h-149v121h149v203q0 55 12.5 111t43 100.5t82 73t131.5 28.5q49 0 101 -12.5t99 -47.5l-47 -108q-41 23 -74.5 34t-83.5 11q-41 0 -64.5 -17.5t-35.5 -45t-15 -61.5t-3 -66v-203h262zM1096 20q-33 -16 -75 -28t-89 -12 q-41 0 -79 12t-66.5 37.5t-46 66.5t-17.5 99v1314l145 21v-1346q0 -47 22.5 -66.5t59.5 -19.5q31 0 57.5 9.5t51.5 21.5z" />
<glyph unicode="&#xfb03;" horiz-adv-x="1542" d="M715 1014v203q0 55 12 111t43 100.5t82 73t131 28.5q33 0 65.5 -7t71.5 -24l-47 -108q-25 8 -44 12t-50 4q-41 0 -64.5 -17.5t-36 -45t-15.5 -61.5t-3 -66v-203h516v-1014h-143v893h-373v-893h-145v893h-387v-893h-146v893h-149v121h149v203q0 55 12.5 111t43 100.5 t82 73t131.5 28.5q49 0 104 -14.5t102 -49.5l-47 -108q-41 23 -75.5 36t-88.5 13q-41 0 -64.5 -17.5t-35.5 -45t-15 -61.5t-3 -66v-203h387zM1407 1391q0 -51 -35 -86t-82 -35q-49 0 -82.5 34.5t-33.5 86.5q0 51 33.5 85.5t84.5 34.5q47 0 81 -34.5t34 -85.5z" />
<glyph unicode="&#xfb04;" horiz-adv-x="1640" d="M1124 1014l-24 -121h-238v-893h-145v893h-389v-893h-146v893h-149v121h149v203q0 55 12.5 111t43 100.5t82 73t131.5 28.5q49 0 104 -14.5t102 -49.5l-47 -108q-41 23 -75.5 36t-88.5 13q-41 0 -64.5 -17.5t-35.5 -45t-15 -61.5t-3 -66v-203h389v203q0 55 12 111 t43 100.5t82 73t131 28.5q49 0 101.5 -12.5t99.5 -47.5l-47 -108q-41 23 -75 34t-83 11q-41 0 -64.5 -17.5t-36 -45t-15.5 -61.5t-3 -66v-203h262zM1630 20q-33 -16 -75 -28t-89 -12q-41 0 -78.5 12t-66.5 37.5t-46.5 66.5t-17.5 99v1314l146 21v-1346q0 -47 22.5 -66.5 t59.5 -19.5q31 0 57.5 9.5t50.5 21.5z" />
<glyph horiz-adv-x="2" d="M-467 1548l-358 211l86 123l323 -262z" />
<glyph horiz-adv-x="2" d="M-662 1620l324 262l86 -123l-358 -211z" />
<glyph horiz-adv-x="2" d="M-496 1835l217 -193l-69 -79l-191 135l-190 -135l-70 79l217 193h86z" />
<glyph horiz-adv-x="2" d="M-252 1755q-29 -66 -67.5 -107.5t-110.5 -41.5q-29 0 -51.5 6t-65.5 35q-39 25 -59.5 30.5t-40.5 5.5q-29 0 -51.5 -22.5t-40.5 -54.5l-86 47q31 72 71.5 110.5t102.5 38.5q29 0 55.5 -6t71.5 -35q23 -14 45 -25.5t45 -11.5q29 0 55.5 24t40.5 54z" />
<glyph horiz-adv-x="2" d="M-190 1706q0 -45 -30 -76t-73 -31t-72.5 31t-29.5 78q0 43 29.5 73.5t72.5 30.5t73 -30.5t30 -75.5zM-573 1706q0 -45 -30 -76t-73 -31t-72.5 31t-29.5 78q0 43 29.5 73.5t72.5 30.5t73 -30.5t30 -75.5z" />
<glyph horiz-adv-x="2" d="M-307 1716q0 -84 -53.5 -132t-124.5 -48q-72 0 -125.5 49t-53.5 135t53.5 133.5t129.5 47.5q68 0 121 -50.5t53 -134.5zM-399 1716q0 53 -23.5 78t-64.5 25q-84 0 -84 -103q0 -53 22.5 -75.5t63.5 -22.5t63.5 22.5t22.5 75.5z" />
</font>
</defs>
</svg>
