<?xml version="1.0" standalone="no"?>
<!DOCTYPE svg PUBLIC "-//W3C//DTD SVG 1.1//EN" "http://www.w3.org/Graphics/SVG/1.1/DTD/svg11.dtd" >
<svg xmlns="http://www.w3.org/2000/svg">
<metadata>
This is a custom SVG webfont generated by Font Squirrel.
Copyright   : 2008 Erik Spiekermann  Ralph du Carrois  Erik van Blokland published by FontShop AG
Designer    : Erik Spiekermann  Ralph du Carrois  Erik van Blokland
Foundry     : Erik Spiekermann  Ralph du Carrois  Erik van Blokland
Foundry URL : httpwwwfontshopde
</metadata>
<defs>
<font id="webfontv8qsKuMs" horiz-adv-x="974" >
<font-face units-per-em="2048" ascent="1638" descent="-410" />
<missing-glyph horiz-adv-x="401" />
<glyph unicode=" "  horiz-adv-x="401" />
<glyph unicode="&#x09;" horiz-adv-x="401" />
<glyph unicode="&#xa0;" horiz-adv-x="401" />
<glyph unicode="!" horiz-adv-x="698" d="M481 557h-270l-49 909h368zM559 154q0 -43 -16.5 -82t-46 -68t-67.5 -45t-81 -16t-81 16t-67.5 45t-46 68t-16.5 82t16.5 80.5t46 67.5t68.5 46.5t82 16.5t81 -16.5t66.5 -46.5t45 -67.5t16.5 -80.5z" />
<glyph unicode="&#x22;" d="M393 872h-205l-53 578h309zM786 872h-204l-54 578h310z" />
<glyph unicode="#" horiz-adv-x="1355" d="M205 -170l39 363h-164v268h192l35 319h-166v269h195l37 335h291l-37 -335h186l37 335h291l-37 -335h164v-269h-193l-35 -319h164v-268h-192l-39 -363h-291l39 363h-186l-39 -363h-291zM563 461h187l34 319h-186z" />
<glyph unicode="$" d="M387 -254v229q-102 10 -192.5 40t-153.5 71l78 258q82 -49 167 -75.5t163 -26.5q61 0 106 37.5t45 105.5q0 31 -9 56.5t-34 51t-68 55.5t-110 68q-147 86 -233.5 182.5t-86.5 233.5q0 158 84 258.5t244 128.5v197h219v-193q92 -12 167 -40.5t122 -59.5l-94 -223 q-86 43 -157 60.5t-130 17.5q-51 0 -98 -30t-47 -99q0 -37 16 -65t49 -54.5t82 -55.5l115 -67q143 -86 215 -176t72 -221q0 -170 -80 -280t-232 -144v-240h-219z" />
<glyph unicode="%" horiz-adv-x="1712" d="M1237 1391l-530 -1430h-232l531 1430h231zM709 1012q0 -80 -20.5 -153t-60.5 -127t-101.5 -86t-143.5 -32q-78 0 -138.5 29t-101.5 80t-61.5 121.5t-20.5 154.5q0 86 21.5 158t63.5 124t101.5 82t137.5 30q154 0 239 -104.5t85 -276.5zM471 1008q0 115 -19.5 157.5 t-66.5 42.5t-67.5 -47t-20.5 -160q0 -111 19.5 -153.5t66.5 -42.5t67.5 46t20.5 157zM1653 365q0 -80 -20.5 -153t-60.5 -127t-101.5 -86t-143.5 -32q-78 0 -138.5 29t-101 80t-61 121.5t-20.5 154.5q0 86 21.5 158t63.5 124t101 81.5t137 29.5q154 0 239 -104t85 -276z M1415 360q0 115 -19.5 158t-66.5 43t-67.5 -47t-20.5 -160q0 -111 19.5 -153.5t66.5 -42.5t67.5 45.5t20.5 156.5z" />
<glyph unicode="&#x26;" horiz-adv-x="1267" d="M946 1135q0 -111 -63.5 -209.5t-167.5 -184.5l184 -229q14 45 23.5 101.5t13.5 115.5h252q-2 -104 -27.5 -209.5t-77.5 -200.5l154 -176l-211 -186l-117 139q-74 -70 -163 -104.5t-207 -34.5q-102 0 -187.5 26.5t-145 79t-92 128t-32.5 171.5q0 72 18.5 129.5t50 105.5 t77.5 90t102 83q-72 92 -111 173t-39 169q0 82 30 150.5t83 119t127 78t160 27.5q84 0 151.5 -25.5t115.5 -72t73.5 -110.5t25.5 -144zM561 197q59 0 103.5 27.5t78.5 64.5l-249 305q-61 -59 -82 -109.5t-21 -101.5q0 -82 43 -134t127 -52zM463 1130q0 -55 28.5 -110 t67.5 -107q66 59 87.5 111.5t21.5 101.5q0 59 -18.5 99.5t-82.5 40.5q-63 0 -82.5 -41.5t-21.5 -94.5z" />
<glyph unicode="'" horiz-adv-x="581" d="M393 872h-205l-53 578h309z" />
<glyph unicode="(" horiz-adv-x="854" d="M150 520q0 154 34.5 301.5t95 283.5t138.5 258t164 226l221 -133q-70 -111 -129.5 -216t-103.5 -216t-69.5 -233.5t-25.5 -270.5q0 -147 25.5 -270t69.5 -233.5t103.5 -216t129.5 -216.5l-221 -133q-86 104 -164 226t-138.5 257.5t-95 282.5t-34.5 303z" />
<glyph unicode=")" horiz-adv-x="854" d="M705 520q0 -154 -35 -301t-95.5 -283.5t-138.5 -258t-164 -226.5l-221 133q70 111 129.5 216.5t103.5 216t69.5 233.5t25.5 270t-25.5 270t-69.5 234t-103.5 216.5t-129.5 215.5l221 133q86 -104 164 -226t138.5 -257t95.5 -282.5t35 -303.5z" />
<glyph unicode="*" horiz-adv-x="1042" d="M623 1155l270 125l82 -252l-293 -59l203 -221l-215 -156l-146 258l-147 -260l-213 155l201 220l-293 59l82 252l270 -123l-35 297h266z" />
<glyph unicode="+" d="M631 809h299v-268h-299v-330h-289v330h-297v268h297v330h289v-330z" />
<glyph unicode="," horiz-adv-x="602" d="M66 -283q55 82 88.5 138.5t54.5 121.5q-53 29 -86 80.5t-33 116.5q0 94 63.5 157.5t157.5 63.5q45 0 85 -17.5t70 -47t47 -70.5t17 -86q0 -74 -23.5 -146.5t-62 -140t-91 -130t-107.5 -117.5z" />
<glyph unicode="-" horiz-adv-x="796" d="M74 410v268h649v-268h-649z" />
<glyph unicode="." horiz-adv-x="602" d="M522 174q0 -45 -17.5 -85t-47 -70.5t-70.5 -48t-86 -17.5q-47 0 -87 17.5t-68.5 47t-46 69.5t-17.5 87q0 94 63.5 157.5t157.5 63.5q45 0 85 -17.5t69.5 -47t47 -70.5t17.5 -86z" />
<glyph unicode="/" horiz-adv-x="876" d="M868 1522l-653 -1979h-260l657 1979h256z" />
<glyph unicode="0" d="M930 700q0 -166 -21.5 -301t-74 -231t-138.5 -149.5t-213 -53.5q-125 0 -210 55.5t-136 150.5t-73.5 222t-22.5 271q0 154 23.5 285.5t78 230t141.5 154t214 55.5q123 0 204.5 -52.5t133 -144.5t73 -218.5t21.5 -273.5zM645 672v39q0 18 -2 37l-293 -353 q37 -188 139 -188q80 0 118 111.5t38 353.5zM328 606l297 357q-37 184 -133 184q-78 0 -121 -116t-43 -357v-68z" />
<glyph unicode="1" d="M862 0h-669v233h188v756l-195 -115l-104 189l387 293h215v-1123h178v-233z" />
<glyph unicode="2" d="M885 999q0 -96 -38 -194t-99.5 -192.5t-139.5 -182.5t-157 -168h426v-262h-781v262l197 224q90 99 155.5 185.5t102.5 162t37 153.5q0 72 -30 115t-83 43q-35 0 -58.5 -17.5t-41 -45t-28.5 -65.5t-21 -77l-269 74q10 82 47 150.5t95.5 118.5t134.5 78t164 28 q176 0 281.5 -104t105.5 -286z" />
<glyph unicode="3" d="M883 410q0 -100 -31 -181.5t-89 -139.5t-141 -90t-186 -32q-113 0 -207 28t-174 81l70 231q78 -45 140.5 -67.5t129.5 -22.5q96 0 137 57.5t41 151.5q0 72 -44 117t-142 45h-86v246h78q82 0 126 42t44 119q0 72 -35 112t-90 40q-45 0 -90 -27.5t-84 -85.5l-180 166 q80 98 177 143.5t214 45.5q174 0 277.5 -98.5t103.5 -270.5q0 -43 -14.5 -86t-41 -82t-64.5 -69.5t-85 -47.5q53 -10 98 -39.5t78 -72.5t51.5 -97.5t18.5 -115.5z" />
<glyph unicode="4" d="M545 522l63 332h209v-332h121v-254h-121v-303h-289v303h-501v275l428 848l262 -84l-414 -785h242z" />
<glyph unicode="5" d="M905 471q0 -115 -33.5 -208t-97 -159.5t-156 -102.5t-208.5 -36q-104 0 -188.5 23.5t-149.5 60.5l45 238q63 -29 125.5 -48.5t150.5 -19.5q106 0 167 64.5t61 185.5q0 104 -43 144t-109 40q-49 0 -81 -14t-77 -51l-217 86l51 682h670v-260h-405l-25 -262q35 31 81 46 t95 15q74 0 136.5 -26.5t108.5 -81t72.5 -133.5t26.5 -183z" />
<glyph unicode="6" d="M901 475q0 -115 -28.5 -209t-83 -160.5t-131 -103.5t-171.5 -37q-115 0 -193.5 49t-127.5 132t-71.5 193t-22.5 230q0 190 37.5 342t110.5 257.5t175.5 163t231.5 57.5q72 0 132 -15.5t99 -44.5l-70 -223q-45 27 -80.5 36t-76.5 9q-88 0 -164 -72.5t-107 -236.5 q41 53 96.5 80.5t110.5 27.5q74 0 135.5 -33.5t105.5 -96t68.5 -151t24.5 -194.5zM623 479q0 129 -31 186.5t-92 57.5q-59 0 -95 -58.5t-36 -185.5q0 -141 33.5 -207.5t91.5 -66.5q129 0 129 274z" />
<glyph unicode="7" d="M442 -25l-307 48l397 1069h-462v264h798v-189z" />
<glyph unicode="8" d="M481 -35q-215 0 -330.5 105.5t-115.5 298.5q0 106 63.5 197t161.5 153q-74 55 -126 134t-52 171t32.5 161.5t88 116t129.5 70t155 23.5q186 0 297 -96.5t111 -266.5q0 -100 -54.5 -177t-131.5 -132q106 -68 166.5 -156t60.5 -190q0 -104 -36 -182t-98.5 -129.5 t-145.5 -76t-175 -24.5zM625 375q0 72 -36 123t-112 100q-70 -47 -104.5 -98t-34.5 -125q0 -78 38 -126t109 -48q66 0 103 48t37 126zM604 1016q0 70 -30.5 106.5t-84.5 36.5q-53 0 -83.5 -37t-30.5 -102q0 -61 32.5 -104.5t88.5 -84.5q45 35 76.5 77t31.5 108z" />
<glyph unicode="9" d="M899 809q0 -193 -27.5 -349.5t-91 -267t-164 -170t-243.5 -59.5q-82 0 -136.5 15.5t-86.5 31.5l49 232q25 -10 67.5 -20.5t98.5 -10.5q53 0 92 19.5t68.5 60.5t52 105.5t40.5 154.5q-14 -31 -38.5 -53.5t-53 -38t-59.5 -22.5t-55 -7q-80 0 -144.5 36t-108.5 98.5 t-67.5 148.5t-23.5 186q0 115 30.5 206t86 153.5t133 96.5t171.5 34q205 0 307.5 -141.5t102.5 -438.5zM600 901q0 137 -32.5 191.5t-88.5 54.5q-66 0 -96.5 -57.5t-30.5 -192.5q0 -131 29 -186.5t90 -55.5q59 0 94 55.5t35 190.5z" />
<glyph unicode=":" horiz-adv-x="622" d="M530 862q0 -47 -17 -87t-47 -69.5t-71 -47t-86 -17.5q-47 0 -87 17.5t-68.5 47t-46 69.5t-17.5 87q0 45 17.5 86t47 71t69.5 47t87 17q45 0 85 -17t70 -47t47 -71t17 -86zM530 174q0 -47 -17 -87t-47 -69.5t-71 -47t-86 -17.5q-47 0 -87 17.5t-68.5 47t-46 69.5t-17.5 87 q0 45 17.5 86t47 70.5t69.5 47t87 17.5q45 0 85 -17.5t70 -47t47 -70.5t17 -86z" />
<glyph unicode=";" horiz-adv-x="622" d="M66 -283q55 82 88.5 138.5t54.5 121.5q-53 29 -86 80.5t-33 116.5q0 94 63.5 157.5t157.5 63.5q45 0 85 -17.5t70 -47t47 -70.5t17 -86q0 -74 -23.5 -146.5t-62 -140t-91 -130t-107.5 -117.5zM530 862q0 -47 -17 -87t-47 -69.5t-71 -47t-86 -17.5q-47 0 -87 17.5 t-68.5 47t-46 69.5t-17.5 87q0 45 17.5 86t47 71t69.5 47t87 17q45 0 85 -17t70 -47t47 -71t17 -86z" />
<glyph unicode="&#x3c;" d="M41 555v240l893 528v-348l-561 -301l555 -301v-346z" />
<glyph unicode="=" d="M45 745v269h885v-269h-885zM45 336v268h885v-268h-885z" />
<glyph unicode="&#x3e;" d="M934 795v-240l-893 -528v348l561 301l-555 301v346z" />
<glyph unicode="?" horiz-adv-x="987" d="M662 156q0 -43 -16.5 -82t-45.5 -68t-66.5 -45t-80.5 -16q-45 0 -84 16t-68 45t-45 68t-16 82t16 81.5t46 66.5t69 44.5t82 16.5t80.5 -16.5t66.5 -45.5t45.5 -66.5t16.5 -80.5zM893 1165q0 -82 -21.5 -142t-53.5 -108.5t-69.5 -90.5t-69.5 -87t-53.5 -97t-21.5 -122v-31 h-313v58q0 88 21.5 154.5t53 117.5t68.5 91l69 75q32 35 53.5 67.5t21.5 71.5q0 90 -127 90q-61 0 -128 -28.5t-130 -65.5l-113 240q72 47 175 89t224 42q195 0 304.5 -85t109.5 -239z" />
<glyph unicode="@" horiz-adv-x="1935" d="M1761 760q0 -139 -34.5 -261t-100 -212t-158 -143.5t-208.5 -53.5q-80 0 -135.5 37t-65.5 106q-53 -70 -104.5 -106.5t-123.5 -36.5q-102 0 -149 74t-47 192q0 86 18.5 186.5t63.5 184.5t118.5 140.5t184.5 56.5q78 0 166 -25t160 -59l-82 -453q-6 -25 -7 -49 q0 -29 13.5 -49.5t48.5 -20.5q45 0 87 42t74.5 109.5t52 153.5t19.5 177q0 115 -34.5 202.5t-97 147t-149.5 89.5t-190 30q-152 0 -278.5 -64.5t-217.5 -175.5t-142.5 -260.5t-51.5 -319.5q0 -152 41 -260t113.5 -179t172 -104.5t218.5 -33.5q291 0 528 131l76 -182 q-51 -33 -119.5 -61.5t-147.5 -49t-164 -32t-169 -11.5q-168 0 -309.5 49t-242.5 145.5t-158.5 242t-57.5 339.5q0 217 70.5 403.5t194.5 322.5t293 214t366 78q141 0 262 -41t211 -123t141 -203.5t51 -283.5zM1114 715q-39 23 -92 22q-47 0 -77 -45t-47 -104.5t-24.5 -122 t-7.5 -94.5q0 -41 9.5 -68t42.5 -27q47 0 94 67t67 183z" />
<glyph unicode="A" horiz-adv-x="1169" d="M799 0l-74 371h-295l-76 -371h-331l387 1450h340l405 -1450h-356zM477 610h199l-64 322l-37 227l-34 -227z" />
<glyph unicode="B" horiz-adv-x="1097" d="M1026 420q0 -111 -31.5 -189.5t-89 -130t-134.5 -76t-167 -24.5h-489v1450h465q90 0 163.5 -21.5t127 -67.5t82 -115.5t28.5 -166.5q0 -111 -57.5 -195.5t-143.5 -119.5q53 -16 98.5 -49t78 -79t51 -101.5t18.5 -114.5zM670 1044q0 88 -30 127t-116 39h-88v-354h94 q70 0 105 45t35 143zM709 438q0 94 -41 139.5t-138 45.5h-94v-375h96q98 0 137.5 49t39.5 141z" />
<glyph unicode="C" horiz-adv-x="991" d="M74 739q0 150 27.5 285t88 237.5t157.5 163t237 60.5q119 0 207 -43t159 -113l-110 -237q-51 43 -111.5 82.5t-128.5 39.5q-41 0 -76 -22.5t-60.5 -74.5t-39.5 -136t-14 -207q0 -147 16 -249.5t44 -167t66.5 -93t86.5 -28.5q37 0 69.5 12t61 29.5t52 37t40.5 35.5 l108 -237q-82 -72 -173 -110t-189 -38q-131 0 -228.5 52.5t-162 151.5t-96 242.5t-31.5 327.5z" />
<glyph unicode="D" horiz-adv-x="1144" d="M1069 741q0 -174 -27.5 -312t-92 -233.5t-169 -145.5t-258.5 -50h-407v1450h372q152 0 262.5 -40t181 -126t104.5 -220.5t34 -322.5zM735 733q0 90 -5 172t-28.5 143.5t-69.5 98.5t-128 37h-58v-916h62q76 0 121 30t68.5 88t30.5 145t7 202z" />
<glyph unicode="E" horiz-adv-x="956" d="M446 881h345v-267h-345v-344h435v-270h-766v1450h772l-35 -268h-406v-301z" />
<glyph unicode="F" horiz-adv-x="894" d="M446 854h345v-266h-345v-588h-331v1450h772l-35 -268h-406v-328z" />
<glyph unicode="G" horiz-adv-x="1130" d="M741 532h-149v259h446v-691q-106 -74 -209.5 -104.5t-212.5 -30.5q-276 0 -409 192.5t-133 555.5q0 160 28.5 301t94 245.5t171 165t261.5 60.5q129 0 225 -39t168 -98l-119 -242q-53 41 -117.5 72.5t-146.5 31.5q-51 0 -94 -23.5t-74 -77.5t-48 -145.5t-17 -226.5 q0 -96 9 -188t33.5 -164t69.5 -115t117 -43q23 0 53.5 5.5t52.5 17.5v282z" />
<glyph unicode="H" horiz-adv-x="1173" d="M729 0v610h-285v-610h-329v1450h329v-569h285v569h330v-1450h-330z" />
<glyph unicode="I" horiz-adv-x="669" d="M168 1200h-125v250h582v-250h-125v-950h125v-250h-582v250h125v950z" />
<glyph unicode="J" horiz-adv-x="944" d="M408 223q63 0 78.5 51.5t15.5 147.5v774h-293v254h625v-1004q0 -238 -97.5 -359.5t-316.5 -121.5q-193 0 -295 115t-102 326v45h288v-37q0 -109 22 -150t75 -41z" />
<glyph unicode="K" horiz-adv-x="1146" d="M786 -23l-340 601v-578h-331v1450h331v-594l324 614l326 -67l-383 -664l422 -688z" />
<glyph unicode="L" horiz-adv-x="942" d="M115 0v1450h334v-1159h456l-28 -291h-762z" />
<glyph unicode="M" horiz-adv-x="1378" d="M965 709l6 284l-60 -284l-106 -369h-236l-102 369l-59 280l6 -280l-15 -709h-311l78 1450h344l135 -494l49 -217l54 217l135 494h338l69 -1450h-309z" />
<glyph unicode="N" horiz-adv-x="1175" d="M774 0l-313 739l-78 228l18 -242v-725h-290v1450h311l293 -694l78 -228l-17 244v678h289v-1450h-291z" />
<glyph unicode="O" horiz-adv-x="1159" d="M1085 739q0 -381 -124.5 -577.5t-387.5 -196.5q-258 0 -378.5 196.5t-120.5 573.5q0 166 26.5 304.5t87 236.5t157.5 153.5t239 55.5q256 0 378.5 -190.5t122.5 -555.5zM748 723q0 68 -3.5 157t-19.5 167.5t-50 133t-95 54.5t-95 -55.5t-50.5 -134t-20.5 -166.5t-4 -156 q0 -74 4 -163t20.5 -165t50 -127t95.5 -51q61 0 95 50t50 126t19.5 165t3.5 165z" />
<glyph unicode="P" horiz-adv-x="1024" d="M981 1042q0 -109 -29.5 -196.5t-88 -150t-145.5 -96.5t-200 -34h-72v-565h-331v1450h436q88 0 167 -20.5t137 -68.5t92 -126t34 -193zM678 1028q0 98 -41 138t-121 40h-70v-385h58q94 0 134 47t40 160z" />
<glyph unicode="Q" horiz-adv-x="1159" d="M1085 739q0 -387 -129 -583q41 -37 95.5 -77t95.5 -67l-209 -200l-104 86q-45 39 -95 92q-74 -25 -166 -25q-258 0 -378.5 196.5t-120.5 573.5q0 166 26.5 304.5t87 236.5t157.5 153.5t239 55.5q256 0 378.5 -190.5t122.5 -555.5zM748 723q0 68 -3.5 157t-19.5 167.5 t-50 133t-95 54.5t-95 -55.5t-50.5 -134t-20.5 -166.5t-4 -156q0 -74 4 -163t20.5 -165t50 -127t95.5 -51q61 0 95 50t50 126t19.5 165t3.5 165z" />
<glyph unicode="R" horiz-adv-x="1095" d="M737 -20l-239 614h-60v-594h-323v1450h395q111 0 198 -21.5t147 -68.5t92 -123t32 -186q0 -143 -53.5 -246t-139.5 -156l289 -616zM668 1032q0 98 -40 137t-118 39h-72v-377h66q88 0 126 47.5t38 153.5z" />
<glyph unicode="S" horiz-adv-x="1001" d="M938 420q0 -102 -32 -184t-91 -141.5t-145 -91.5t-193 -32q-123 0 -237.5 33t-192.5 82l78 262q82 -49 169 -75.5t165 -26.5q86 0 124 41t38 108q0 39 -9.5 65.5t-33 52.5t-66.5 53.5t-111 66.5q-74 43 -134 83t-104 90t-68.5 113.5t-24.5 151.5q0 92 32.5 167t93 129 t146.5 83t193 29q125 0 226 -33t161 -74l-95 -246q-86 43 -157.5 63.5t-130.5 20.5q-74 0 -110 -33.5t-36 -86.5q0 -47 17.5 -78t51.5 -55.5t84 -50t116 -64.5q72 -43 124 -86t85.5 -92.5t50 -108.5t16.5 -135z" />
<glyph unicode="T" horiz-adv-x="933" d="M901 1167h-264v-1167h-332v1167h-280v283h909z" />
<glyph unicode="U" horiz-adv-x="1206" d="M1096 467q0 -129 -36 -223t-102.5 -156.5t-159.5 -92.5t-208 -30q-131 0 -222.5 33t-147.5 95.5t-81.5 153.5t-25.5 210v993h327v-969q0 -147 37 -199.5t123 -52.5q92 0 134 58.5t42 193.5v969h320v-983z" />
<glyph unicode="V" horiz-adv-x="1079" d="M705 0h-338l-353 1442l336 28l156 -874l37 -262l32 258l162 878l326 -28z" />
<glyph unicode="W" horiz-adv-x="1519" d="M1229 0h-330l-108 764l-29 283l-33 -285l-125 -762h-323l-265 1442l318 28l106 -817l29 -282l25 278l127 801h286l125 -803l29 -287l26 287l107 823l313 -26z" />
<glyph unicode="X" horiz-adv-x="1122" d="M758 -20l-160 434l-39 141l-39 -141l-160 -434l-342 32l344 750l-315 674l346 34l123 -358l43 -151l39 151l113 358l346 -34l-299 -672l342 -754z" />
<glyph unicode="Y" horiz-adv-x="1050" d="M690 592v-592h-328v592l-374 850l352 28l152 -462l36 -140l37 140l150 462l346 -30z" />
<glyph unicode="Z" horiz-adv-x="1030" d="M969 0h-908v209l510 967h-475l27 274h813v-219l-494 -944h527v-287z" />
<glyph unicode="[" horiz-adv-x="882" d="M731 -426h-524v1946h524v-260h-203v-1424h203v-262z" />
<glyph unicode="\" horiz-adv-x="876" d="M264 1522l658 -1979h-260l-654 1979h256z" />
<glyph unicode="]" horiz-adv-x="882" d="M147 1520h525v-1946h-525v260h203v1423h-203v263z" />
<glyph unicode="^" d="M635 788l-148 400l-149 -400h-307l311 662h287l313 -662h-307z" />
<glyph unicode="_" horiz-adv-x="1105" d="M-2 -338v229h1110v-229h-1110z" />
<glyph unicode="`" d="M174 1364l127 248l449 -303l-88 -164z" />
<glyph unicode="a" horiz-adv-x="956" d="M864 258q0 -57 3 -120.5t20 -125.5l-238 -32q-12 23 -23 52l-22 58q-49 -53 -110.5 -85t-133.5 -32q-141 0 -220 85t-79 233q0 102 42 173t113 115t161 63.5t188 19.5v59q0 57 -25.5 85t-103.5 28q-45 0 -108.5 -17.5t-128.5 -52.5l-76 217q78 39 167 62.5t179 23.5 q88 0 160.5 -18.5t125 -57.5t81 -100.5t28.5 -147.5v-485zM565 473q-123 0 -167 -44t-44 -122q0 -59 17.5 -96t62.5 -37q35 0 66.5 21.5t64.5 58.5v219z" />
<glyph unicode="b" horiz-adv-x="1026" d="M573 -33q-70 0 -122 23.5t-93 58.5l-34 -69l-244 32q16 61 19 125t3 121v1235l306 45v-545q47 39 100 58.5t106 19.5q180 0 262 -128t82 -374q0 -141 -21.5 -252.5t-67.5 -189.5t-119 -119t-177 -41zM408 217q49 -33 106 -33q72 0 108.5 85t36.5 282q0 166 -31.5 236.5 t-86.5 70.5q-29 0 -60.5 -12t-72.5 -47v-582z" />
<glyph unicode="c" horiz-adv-x="864" d="M745 731q-51 41 -97 72t-105 31q-78 0 -124 -76t-46 -248q0 -84 12 -142.5t33.5 -95t51.5 -53t67 -16.5q59 0 105 29.5t93 66.5l103 -197q-51 -55 -142.5 -96t-199.5 -41q-211 0 -319.5 141.5t-108.5 391.5q0 131 30.5 237.5t89 180t142.5 113.5t192 40q104 0 179 -34 t141 -93z" />
<glyph unicode="d" horiz-adv-x="1024" d="M922 1538v-1280q0 -57 3 -120.5t19 -125.5l-244 -32l-21 39l-22 44q-61 -47 -125.5 -72.5t-117.5 -25.5q-90 0 -155.5 39t-107.5 111.5t-62.5 176t-20.5 230.5q0 117 19 217.5t63.5 173t117 114.5t176.5 42q45 0 91.5 -12.5t82.5 -34.5v471zM487 186q29 0 66 16.5 t65 45.5v579q-29 14 -59.5 23.5t-58.5 9.5q-35 0 -60.5 -16.5t-42 -54t-24.5 -102t-8 -159.5q0 -96 7 -161.5t22.5 -105.5t38.5 -57.5t54 -17.5z" />
<glyph unicode="e" horiz-adv-x="983" d="M362 453q8 -145 57.5 -200.5t127.5 -55.5q72 0 133 27.5t117 62.5l104 -201q-86 -63 -181 -92t-194 -29q-231 0 -344.5 146.5t-113.5 398.5q0 127 28.5 230.5t84 176t137 112.5t190.5 40q113 0 190.5 -41t125.5 -114.5t69.5 -174t21.5 -217.5q0 -12 -1 -33.5t-3 -35.5 h-549zM504 870q-66 0 -97.5 -50t-41.5 -173h276q-4 119 -40 171t-97 52z" />
<glyph unicode="f" horiz-adv-x="710" d="M702 1034l-32 -229h-201v-805h-303v805h-127v229h127v121q0 170 85 272.5t257 102.5q78 0 149.5 -19.5t124.5 -54.5l-77 -211q-31 16 -72 31.5t-82 15.5q-49 0 -65.5 -36.5t-16.5 -92.5v-129h233z" />
<glyph unicode="g" horiz-adv-x="1026" d="M457 1069q53 0 107 -20.5t100 -55.5l19 39q9 18 19 35l244 -33q-16 -61 -19 -124.5t-3 -121.5v-382q0 -129 4 -237t4 -212q0 -205 -106.5 -302t-295.5 -97q-94 0 -203.5 22.5t-195.5 71.5l80 219q72 -35 143.5 -52.5t134.5 -17.5q72 0 103 32t31 118v8q0 6 -3.5 46 t-5.5 75q-41 -29 -90 -47.5t-104 -18.5q-168 0 -258 128t-90 370q0 127 23.5 229.5t71.5 175t120 112.5t170 40zM487 219q63 0 127 60v534q-25 16 -51 26.5t-57 10.5q-61 0 -99 -74t-38 -248q0 -160 31.5 -234.5t86.5 -74.5z" />
<glyph unicode="h" horiz-adv-x="1030" d="M631 0v733q0 66 -18.5 90.5t-59.5 24.5q-37 0 -69.5 -18.5t-73.5 -57.5v-772h-304v1493l304 45v-571q102 102 243 102q160 0 222.5 -87t62.5 -245v-737h-307z" />
<glyph unicode="i" horiz-adv-x="585" d="M168 0v793h-111v241h418v-1034h-307zM498 1393q0 -39 -14.5 -75t-40 -62.5t-60.5 -42t-74 -15.5q-41 0 -74.5 15.5t-58 42t-39 62.5t-14.5 75q0 78 53 134t135 56q39 0 73 -15.5t59.5 -42t40 -60t14.5 -72.5z" />
<glyph unicode="j" horiz-adv-x="589" d="M502 1393q0 -39 -14.5 -75t-39 -62.5t-59.5 -42t-76 -15.5t-74.5 15.5t-58 42t-39 62.5t-14.5 75q0 78 53 134t135 56q39 0 74 -15.5t59.5 -42t39 -61t14.5 -71.5zM479 31q0 -231 -78.5 -351t-271.5 -120q-84 0 -152.5 24.5t-111.5 48.5l76 220q47 -23 82.5 -34.5 t72.5 -11.5q53 0 64.5 55.5t11.5 172.5v758h-111v241h418v-1003z" />
<glyph unicode="k" horiz-adv-x="1001" d="M1001 29l-339 -49l-250 458v-438h-310v1493l310 45v-870l254 397l307 -39l-318 -455z" />
<glyph unicode="l" horiz-adv-x="598" d="M596 37q-41 -29 -105.5 -48.5t-119.5 -19.5q-90 0 -144.5 33t-83 88t-37 129t-8.5 156v1118l305 45v-1145q0 -57 2.5 -90t8.5 -50t19 -21.5t36 -4.5q12 0 32.5 6.5t39.5 16.5z" />
<glyph unicode="m" horiz-adv-x="1480" d="M406 0h-304v788q0 57 -3 121t-19 125l244 33q27 -49 55 -117q55 53 115.5 86t138.5 33q82 0 134 -34t83 -93q61 61 125.5 94t142.5 33q82 0 133.5 -26.5t79 -72.5t36.5 -106.5t9 -128.5v-735h-305v752q0 100 -65 100q-33 0 -57.5 -14.5t-59.5 -44.5v-793h-295v750 q0 100 -68 100q-31 0 -58.5 -14.5t-61.5 -47.5v-788z" />
<glyph unicode="n" horiz-adv-x="1040" d="M406 0h-304v788q0 57 -3 121t-19 125l244 33q14 -25 28.5 -55.5t26.5 -65.5q66 66 131 94.5t143 28.5q84 0 141.5 -29.5t90.5 -78.5q29 -43 39 -97.5t10 -136.5v-727h-307v735q0 113 -76 113q-39 0 -72 -18.5t-73 -59.5v-770z" />
<glyph unicode="o" horiz-adv-x="1028" d="M961 518q0 -125 -29 -226.5t-85 -174t-139 -112.5t-192 -40q-225 0 -336.5 145.5t-111.5 407.5q0 256 114.5 403.5t337.5 147.5q111 0 193 -38t137 -109.5t83 -174t28 -229.5zM655 520q0 94 -9 157.5t-26.5 102.5t-44 55.5t-61.5 16.5t-61.5 -16.5t-45 -55.5 t-27.5 -101.5t-9 -156.5q0 -174 32.5 -257t110.5 -83t109.5 82t31.5 256z" />
<glyph unicode="p" horiz-adv-x="1024" d="M102 -442v1230q0 57 -3 121t-19 125l244 33l22 -43q12 -23 23 -49q53 49 111.5 72.5t117.5 23.5q102 0 171 -42t111 -115.5t59 -174t17 -217.5q0 -270 -88 -413.5t-282 -143.5q-49 0 -95.5 14.5t-80.5 36.5v-411zM539 848q-59 0 -129 -62v-575q29 -16 60.5 -25.5 t53.5 -9.5q33 0 57.5 15.5t41 54.5t24.5 105.5t8 168.5q0 72 -5 132.5t-19.5 103.5t-36.5 67.5t-55 24.5z" />
<glyph unicode="q" horiz-adv-x="1024" d="M612 -442v475q-43 -31 -93 -49.5t-97 -18.5q-180 0 -267 140.5t-87 381.5q0 281 94 432.5t278 151.5q119 0 222 -82l19 42q9 19 19 36l244 -33q-16 -61 -19 -124.5t-3 -121.5v-1183zM492 178q59 0 120 62v565q-29 18 -58.5 29.5t-55.5 11.5q-29 0 -53.5 -17.5t-41 -58.5 t-25.5 -107.5t-9 -164.5q0 -166 32 -243t91 -77z" />
<glyph unicode="r" horiz-adv-x="741" d="M668 760q-27 18 -49.5 25.5t-57.5 7.5q-47 0 -76.5 -30t-58.5 -89v-674h-303v788q0 57 -3 121t-20 125l244 33q14 -27 30.5 -68t26.5 -92q33 72 83.5 117t127.5 45q45 0 76 -10t66 -33z" />
<glyph unicode="s" horiz-adv-x="851" d="M791 295q0 -162 -102.5 -246t-262.5 -84q-123 0 -219 32t-162 66l70 228l54.5 -27.5t68 -29t77.5 -23.5t84 -10q47 0 77 20.5t30 67.5q0 41 -39 66.5t-105 56.5t-117.5 60.5t-88.5 67.5t-56.5 87t-19.5 116q0 76 27.5 136.5t76.5 102.5t117 64.5t148 22.5 q104 0 186 -25.5t133 -54.5l-86 -215q-47 23 -102.5 43.5t-112.5 20.5q-49 0 -78 -21.5t-29 -62.5q0 -47 35 -73t105 -58q70 -33 124 -63t91 -65.5t56.5 -82.5t19.5 -117z" />
<glyph unicode="t" horiz-adv-x="778" d="M766 37q-25 -14 -60.5 -26.5t-74.5 -21.5t-77 -14.5t-69 -5.5q-84 0 -141 23.5t-92 67.5t-50.5 105.5t-15.5 135.5v504h-149v229h149v293l306 45v-338h251l-28 -229h-223v-486q0 -43 11 -70.5t52 -27.5q29 0 66.5 10.5t89.5 34.5z" />
<glyph unicode="u" horiz-adv-x="1024" d="M926 258q0 -57 3 -120.5t19 -125.5l-243 -32q-25 39 -50 98q-53 -55 -113.5 -84t-138.5 -29q-98 0 -159.5 30t-95 79t-45 111.5t-11.5 127.5v701l309 30v-708q0 -78 17.5 -114t64.5 -36q39 0 73 19.5t62 48.5v760l308 30v-786z" />
<glyph unicode="v" horiz-adv-x="1013" d="M653 0h-299l-321 1014l329 37l121 -557l29 -197l31 197l129 557l309 -37z" />
<glyph unicode="w" horiz-adv-x="1327" d="M1315 1014l-275 -1014h-272l-88 516l-21 207l-22 -205l-107 -518h-266l-246 1014l304 37l79 -549l21 -166l18 166l101 532h258l92 -532l16 -162l21 162l96 549z" />
<glyph unicode="x" horiz-adv-x="1017" d="M668 -20l-125 258l-35 94l-37 -94l-127 -258l-324 30l295 514l-268 490l322 37l106 -244l35 -94l37 94l121 244l319 -37l-287 -484l299 -522z" />
<glyph unicode="y" horiz-adv-x="1019" d="M743 33q-25 -104 -52 -190.5t-71.5 -150t-112 -98t-171.5 -34.5q-59 0 -138 20.5t-151 77.5l107 209q29 -18 74.5 -40t86.5 -22t69 22.5t46 88.5l25 84h-107l-321 1014l321 37l148 -641l32 -222l33 220l123 643l299 -37z" />
<glyph unicode="z" horiz-adv-x="913" d="M834 0h-773v190l412 605h-371v239h746v-194l-408 -592h432z" />
<glyph unicode="{" horiz-adv-x="980" d="M633 797q0 -94 -53.5 -160t-118.5 -94q66 -29 119 -94.5t53 -159.5v-342q0 -74 28.5 -97.5t90.5 -23.5h53v-258l-131 -6q-180 0 -268.5 81t-88.5 261v375q0 72 -22.5 99.5t-67.5 27.5l-53 6v262l53 6q45 0 67.5 27.5t22.5 99.5v375q0 180 88.5 261t268.5 81l131 -6v-258 h-53q-61 0 -90 -24t-29 -97v-342z" />
<glyph unicode="|" horiz-adv-x="735" d="M217 -362v1812h301v-1812h-301z" />
<glyph unicode="}" horiz-adv-x="980" d="M362 289q0 94 53.5 159.5t119.5 94.5q-66 29 -119.5 94t-53.5 160v342q0 74 -28.5 97.5t-89.5 23.5h-54v258l132 6q180 0 268 -81t88 -261v-375q0 -72 22.5 -99.5t67.5 -27.5l53 -6v-262l-53 -6q-45 0 -67.5 -28t-22.5 -99v-375q0 -180 -88 -261t-268 -81l-132 6v258h54 q61 0 89.5 23.5t28.5 97.5v342z" />
<glyph unicode="~" d="M664 508q-49 0 -94.5 20.5t-88.5 46t-86 46t-90 20.5q-41 0 -69.5 -33t-53.5 -82l-155 119q20 49 44.5 94t57.5 79t77 54.5t105 20.5q49 0 94.5 -20.5t88.5 -46t86 -46t90 -20.5q41 0 69.5 32.5t53.5 81.5l155 -118q-20 -49 -44.5 -94.5t-57.5 -79t-77 -54t-105 -20.5z " />
<glyph unicode="&#xa1;" horiz-adv-x="698" d="M217 457h270l50 -910h-369zM139 860q0 43 16.5 82t46 67.5t67.5 45t81 16.5t81 -16.5t67.5 -45t46 -67.5t16.5 -82t-16.5 -81t-46 -67.5t-68.5 -46t-82 -16.5t-81 16.5t-66.5 46t-45 67.5t-16.5 81z" />
<glyph unicode="&#xa2;" d="M422 -78v230q-166 31 -250 167t-84 357q0 225 87 370.5t247 186.5v190h219v-186q66 -12 119 -42t102 -75l-96 -207q-51 41 -97 72t-106 31q-78 0 -127 -78t-49 -250q0 -170 49 -240.5t121 -70.5q59 0 105.5 29.5t93.5 66.5l102 -192q-35 -39 -92 -72t-125 -51v-236h-219z " />
<glyph unicode="&#xa3;" d="M246 266l10 83q4 34 4 71q0 23 -1 40t-4 35.5t-7 39.5l-10 49h-136v227h86q-8 45 -13 84t-5 80q0 98 31.5 175t92 130t144.5 81t189 28q104 0 183 -29t122 -57l-107 -224l-52 26q-24 11 -45 17t-43.5 9.5t-51.5 3.5q-78 0 -118 -45.5t-40 -124.5q0 -33 3 -64t14 -86h266 v-231h-217q6 -27 10 -47.5t7 -39t4 -38t1 -43.5q0 -41 -2 -75t-8 -75h383l-35 -266h-825v266h170z" />
<glyph unicode="&#xa4;" d="M838 887q47 -90 47 -215q0 -123 -41 -211l151 -150l-143 -143l-139 139q-53 -37 -111.5 -52t-114.5 -15q-57 0 -116.5 15t-110.5 52l-137 -137l-146 141l152 152q-18 43 -28.5 94t-10.5 115q0 66 10.5 118t30.5 97l-156 157l146 142l143 -146q51 35 107.5 49.5 t115.5 14.5q113 0 218 -66l147 148l145 -142zM295 672q0 -66 16.5 -111t43 -72.5t61.5 -41t71 -13.5q37 0 72 13.5t61.5 41t43 72.5t16.5 111q0 63 -16.5 109t-43 74t-61.5 41t-72 13t-71.5 -13t-61 -41t-43 -74t-16.5 -109z" />
<glyph unicode="&#xa5;" d="M629 438v-438h-293v438h-268v187h239l-37 100h-202v186h131l-187 490l291 29l152 -463l37 -140l36 140l144 463l291 -31l-193 -488h141v-186h-215l-39 -100h254v-187h-282z" />
<glyph unicode="&#xa6;" horiz-adv-x="735" d="M217 723v727h301v-727h-301zM217 -362v727h301v-727h-301z" />
<glyph unicode="&#xa7;" d="M907 606q0 -94 -53 -173t-135 -138q66 -47 107.5 -106.5t41.5 -151.5q0 -72 -27.5 -136.5t-77.5 -111.5t-122 -74.5t-160 -27.5q-115 0 -216 32.5t-169 75.5l84 236q29 -18 67 -36t75.5 -31t74.5 -22.5t64 -9.5q39 0 71.5 21.5t32.5 64.5q0 41 -27.5 64.5t-72.5 46.5 q-66 33 -134.5 63.5t-124.5 73.5t-93 106.5t-37 162.5q0 100 53 179t150 136q-25 14 -50.5 35.5t-47 51.5t-35 66.5t-13.5 79.5q0 74 31 135.5t84 104.5t122.5 66.5t147.5 23.5q102 0 185 -33.5t155 -81.5l-96 -217q-47 35 -104.5 68t-127.5 33q-41 0 -66.5 -20.5 t-25.5 -63.5q0 -31 29 -53.5t70 -45.5l134 -74q67 -38 119 -84t84.5 -103.5t32.5 -131.5zM627 569q0 53 -44 90t-110 78q-61 -41 -88 -76.5t-27 -91.5q0 -63 48.5 -98t109.5 -68q55 43 83 78t28 88z" />
<glyph unicode="&#xa8;" d="M881 1325q0 -37 -13.5 -68.5t-36 -55t-53 -37t-65.5 -13.5t-66 13.5t-53.5 37t-35.5 55t-13 68.5q0 74 48 125t118 51q72 0 121 -51t49 -125zM432 1325q0 -37 -13 -68.5t-36 -55t-53.5 -37t-65.5 -13.5t-65.5 13.5t-53 37t-36 55t-13.5 68.5q0 74 49.5 125t118.5 51 q72 0 120 -51t48 -125z" />
<glyph unicode="&#xa9;" horiz-adv-x="1374" d="M696 303q104 0 192.5 33t151 98.5t98.5 163.5t36 227t-36 227.5t-98.5 164t-150.5 98.5t-193 33q-104 0 -192 -33t-151.5 -98.5t-99.5 -164t-36 -227.5t36 -227t99.5 -163.5t151.5 -98.5t192 -33zM696 141q-131 0 -247.5 46t-204.5 134.5t-139.5 215.5t-51.5 290 q0 162 51.5 288t139.5 214t204.5 134t247.5 46t248 -46t205 -134t139 -214t51 -288q0 -164 -51 -290.5t-139 -215t-205 -134.5t-248 -46zM373 834q0 86 16.5 158.5t53 123.5t97 80t148.5 29q82 0 148.5 -27t121.5 -70l-79 -139q-41 29 -83 51.5t-91 22.5q-59 0 -85 -46 t-26 -173q0 -133 26.5 -182.5t92.5 -49.5q31 0 71.5 20.5t87.5 55.5l93 -137q-45 -43 -115 -82t-166 -39q-70 0 -127 21.5t-98 69.5t-63.5 125t-22.5 188z" />
<glyph unicode="&#xaa;" horiz-adv-x="677" d="M406 954q-61 -61 -130 -61q-86 0 -134 51t-48 137q0 59 23.5 100.5t63.5 66t92.5 35.5t107.5 11v37q0 25 -11.5 37t-56.5 12q-23 0 -56.5 -8t-80.5 -33l-45 134q53 27 103.5 38t103.5 11q76 0 130 -28t71 -87q6 -18 8 -37.5t2 -42.5v-221q0 -63 7 -101t17 -67l-141 -41 q-10 16 -15 28.5zM381 1182q-72 -4 -100.5 -26.5t-28.5 -65.5q0 -33 15.5 -52.5t37.5 -19.5q39 0 76 45v119z" />
<glyph unicode="&#xab;" horiz-adv-x="1216" d="M602 137l-205 -114l-325 432v133l325 422l199 -121l-207 -375zM1135 137l-205 -114l-326 432v133l326 422l198 -121l-206 -375z" />
<glyph unicode="&#xac;" d="M641 211v330h-596v268h885v-598h-289z" />
<glyph unicode="&#xad;" horiz-adv-x="796" d="M74 410v268h649v-268h-649z" />
<glyph unicode="&#xae;" horiz-adv-x="1374" d="M696 580q80 0 145.5 24.5t114 73.5t75 122.5t26.5 172.5q0 98 -26.5 172t-75 123t-114 73.5t-145.5 24.5t-146.5 -24.5t-114.5 -73.5t-74.5 -123t-26.5 -172t26.5 -172t74.5 -123t114.5 -73.5t146.5 -24.5zM696 446q-100 0 -190 35t-157.5 102.5t-107.5 166t-40 225.5 q0 125 40 222t107.5 165t157.5 102.5t190 34.5t190.5 -34.5t158 -102.5t106.5 -165t39 -222q0 -127 -39 -225.5t-106.5 -166t-158 -102.5t-190.5 -35zM801 696l-125 205h-33v-199h-141v568h188q102 0 169 -43t67 -140q0 -53 -26 -98t-83 -67l137 -205zM784 1085 q0 23 -13 42.5t-60 19.5h-68v-125h64q47 0 62 15t15 48z" />
<glyph unicode="&#xaf;" d="M768 1440v-244h-563v244h563z" />
<glyph unicode="&#xb0;" horiz-adv-x="1003" d="M823 1155q0 -72 -20.5 -133t-61.5 -108.5t-104.5 -74t-149.5 -26.5t-149.5 26.5t-104 74t-61 108.5t-20.5 133t20.5 135.5t62 109.5t105 72.5t149.5 26.5t148.5 -27.5t104.5 -73.5t61.5 -109.5t19.5 -133.5zM616 1155q0 86 -29.5 136t-103.5 50t-99.5 -51t-25.5 -135 t28 -135t99 -51q72 0 101.5 50t29.5 136z" />
<glyph unicode="&#xb1;" d="M631 809h299v-268h-299v-187h-289v187h-297v268h297v330h289v-330zM45 0v268h885v-268h-885z" />
<glyph unicode="&#xb2;" horiz-adv-x="731" d="M627 1100v-187h-531v187l136 114q62 53 106.5 103.5t70 99.5t25.5 103q0 37 -18.5 59.5t-50.5 22.5q-47 0 -69 -34t-34 -77l-176 53q47 129 126 177t167 48q115 0 187.5 -63.5t72.5 -177.5q0 -70 -27.5 -133.5t-70.5 -118.5t-94.5 -100.5t-96.5 -75.5h277z" />
<glyph unicode="&#xb3;" horiz-adv-x="731" d="M639 1165q0 -61 -22.5 -111t-63.5 -86t-97.5 -55.5t-123.5 -19.5q-66 0 -134.5 21.5t-119.5 56.5l55 149q37 -23 78 -40t100 -17q119 0 119 108q0 49 -26.5 74t-98.5 25h-65v160h65q47 0 77 22.5t30 75.5q0 41 -29 58.5t-53 17.5q-33 0 -55.5 -13.5t-51.5 -42.5l-123 115 q53 57 112.5 83t131.5 26q119 0 192.5 -65t73.5 -173q0 -57 -29.5 -104.5t-72.5 -65.5q53 -23 92 -76t39 -123z" />
<glyph unicode="&#xb4;" d="M313 1145l-88 164l449 303l127 -248z" />
<glyph unicode="&#xb5;" horiz-adv-x="1024" d="M92 -442v1456l309 30v-708q0 -78 17.5 -114t64.5 -36q39 0 73 19.5t62 48.5v760l308 30v-786q0 -57 3 -120.5t19 -125.5l-243 -32q-25 39 -50 98q-53 -55 -97 -83t-103 -28q-16 0 -31.5 4t-24.5 9v-375z" />
<glyph unicode="&#xb6;" horiz-adv-x="1370" d="M1260 1450v-1880h-261v1636h-172v-1636h-266v762q-25 -8 -39 -10.5t-41 -2.5q-205 0 -321.5 143.5t-116.5 411.5q0 303 135 439.5t422 136.5h660zM561 1204q-68 0 -108.5 -24.5t-61 -66.5t-27 -97t-6.5 -119q0 -102 12.5 -168.5t32 -106.5t46 -55.5t57.5 -15.5 q18 0 30.5 3t24.5 7v643z" />
<glyph unicode="&#xb7;" horiz-adv-x="602" d="M481 696q0 -78 -52 -131t-128 -53q-37 0 -69.5 14.5t-57 39t-39 58t-14.5 72.5t14.5 73t38 58.5t56 39t69.5 14.5q78 0 130 -53.5t52 -131.5z" />
<glyph unicode="&#xb8;" d="M705 -279q0 -43 -17.5 -80.5t-49.5 -65.5t-77 -44t-98 -16q-49 0 -96.5 11t-104.5 36l43 145q16 -8 51 -17t66 -9t56.5 8t25.5 43q0 25 -15.5 39t-52.5 14h-18l-88 37l41 198h170l-2 -124q74 -14 120 -57.5t46 -117.5z" />
<glyph unicode="&#xb9;" horiz-adv-x="731" d="M160 1442l-80 131l268 178h148v-674h106v-164h-448v164h129v436z" />
<glyph unicode="&#xba;" horiz-adv-x="704" d="M610 1212q0 -145 -67.5 -232t-190.5 -87q-125 0 -190.5 86t-65.5 231t67.5 231.5t190.5 86.5t189.5 -86.5t66.5 -229.5zM432 1212q0 100 -20.5 143.5t-59.5 43.5t-59.5 -42t-20.5 -143q0 -104 20.5 -146t59.5 -42t59.5 41t20.5 145z" />
<glyph unicode="&#xbb;" horiz-adv-x="1216" d="M614 895l205 115l326 -432v-134l-326 -421l-198 120l206 375zM82 895l205 115l325 -432v-134l-325 -421l-199 120l207 375z" />
<glyph unicode="&#xbc;" horiz-adv-x="1624" d="M139 1102l-80 131l269 178h147v-674h107v-164h-449v164h129v437zM1192 1393l-557 -1430h-207l559 1430h205zM1278 506h154v-178h86v-172h-86v-172h-201v172h-342v170l305 534l192 -53l-284 -477h133z" />
<glyph unicode="&#xbd;" horiz-adv-x="1624" d="M139 1102l-80 131l269 178h147v-674h107v-164h-449v164h129v437zM1528 186v-186h-531v186l137 115q62 53 106 103.5t69.5 99.5t25.5 102q0 37 -18.5 59.5t-50.5 22.5q-47 0 -68.5 -33.5t-34.5 -76.5l-176 53q47 129 126 177t167 48q115 0 187.5 -63.5t72.5 -178.5 q0 -70 -27.5 -133t-70.5 -118.5t-94.5 -100.5t-96.5 -76h277zM1192 1393l-557 -1430h-207l559 1430h205z" />
<glyph unicode="&#xbe;" horiz-adv-x="1624" d="M1192 1393l-557 -1430h-207l559 1430h205zM639 825q0 -61 -22.5 -111t-63.5 -86t-97.5 -55.5t-123.5 -19.5q-66 0 -134.5 21.5t-119.5 56.5l55 149q37 -23 78 -40t100 -17q119 0 119 108q0 49 -26.5 74t-98.5 25h-65v160h65q47 0 77 22.5t30 75.5q0 41 -29 58.5t-53 17.5 q-33 0 -55.5 -13.5t-51.5 -42.5l-123 115q53 57 112.5 83t131.5 26q119 0 192.5 -64.5t73.5 -173.5q0 -57 -29.5 -104.5t-72.5 -65.5q53 -23 92 -76t39 -123zM1278 506h154v-178h86v-172h-86v-172h-201v172h-342v170l305 534l192 -53l-284 -477h133z" />
<glyph unicode="&#xbf;" horiz-adv-x="987" d="M328 860q0 43 16 82t45 67.5t67 45t81 16.5q45 0 83.5 -16.5t67.5 -45t45.5 -67.5t16.5 -82t-16.5 -82t-46.5 -66.5t-68.5 -44t-81.5 -16.5t-81 16.5t-67 45t-45 66.5t-16 81zM96 -150q0 82 21.5 142.5t53.5 109t70 90t69.5 87t53 97.5t21.5 122v30h313v-57 q0 -88 -21.5 -154.5t-53 -118t-68.5 -90.5l-69 -75q-32 -35 -53 -68t-21 -71q0 -90 127 -91q61 0 127.5 29t130.5 66l112 -240q-72 -47 -175 -89t-224 -42q-211 0 -312.5 84.5t-101.5 238.5z" />
<glyph unicode="&#xc0;" horiz-adv-x="1169" d="M799 0l-74 371h-295l-76 -371h-331l387 1450h340l405 -1450h-356zM477 610h199l-64 322l-37 227l-34 -227zM256 1749l127 248l448 -303l-88 -164z" />
<glyph unicode="&#xc1;" horiz-adv-x="1169" d="M799 0l-74 371h-295l-76 -371h-331l387 1450h340l405 -1450h-356zM477 610h199l-64 322l-37 227l-34 -227zM426 1530l-88 164l448 303l127 -248z" />
<glyph unicode="&#xc2;" horiz-adv-x="1169" d="M799 0l-74 371h-295l-76 -371h-331l387 1450h340l405 -1450h-356zM477 610h199l-64 322l-37 227l-34 -227zM583 1671l-190 -141l-141 151l276 236h111l276 -236l-141 -151z" />
<glyph unicode="&#xc3;" horiz-adv-x="1169" d="M799 0l-74 371h-295l-76 -371h-331l387 1450h340l405 -1450h-356zM477 610h199l-64 322l-37 227l-34 -227zM680 1554q-37 0 -61.5 12.5t-45.5 25.5l-38 26q-17 12 -40 12q-27 0 -49 -19.5t-39 -51.5l-182 77q14 37 35.5 81t53.5 82t74 63.5t95 25.5q37 0 61.5 -12 t44.5 -26l37 -25q18 -12 41 -13q27 0 49.5 19.5t38.5 52.5l183 -78q-14 -37 -36 -81t-53.5 -81.5t-73.5 -63.5t-95 -26z" />
<glyph unicode="&#xc4;" horiz-adv-x="1169" d="M799 0l-74 371h-295l-76 -371h-331l387 1450h340l405 -1450h-356zM477 610h199l-64 322l-37 227l-34 -227zM977 1710q0 -37 -13.5 -68.5t-36 -55t-53 -37t-65.5 -13.5t-65.5 13.5t-53.5 37t-36 55t-13 68.5q0 74 48 125t118 51q72 0 121 -51t49 -125zM528 1710 q0 -37 -13 -68.5t-35.5 -55t-53.5 -37t-66 -13.5t-65.5 13.5t-53 37t-36 55t-13.5 68.5q0 74 49.5 125t118.5 51q72 0 120 -51t48 -125z" />
<glyph unicode="&#xc5;" horiz-adv-x="1169" d="M799 0l-74 371h-295l-76 -371h-331l387 1450h340l405 -1450h-356zM477 610h199l-64 322l-37 227l-34 -227zM829 1769q0 -104 -63.5 -172.5t-181.5 -68.5q-119 0 -182.5 68.5t-63.5 175.5q0 106 63.5 172.5t182.5 66.5t182 -68t63 -174zM651 1769q0 33 -13 62t-54 29 t-54.5 -29t-13.5 -62q0 -31 14.5 -60.5t53.5 -29.5t53 29.5t14 60.5z" />
<glyph unicode="&#xc6;" horiz-adv-x="1531" d="M1022 881h344v-267h-344v-344h434v-270h-749v371h-261l-124 -371h-349l559 1450h930l-35 -268h-405v-301zM520 610h187v643l-60 -217z" />
<glyph unicode="&#xc7;" horiz-adv-x="991" d="M815 -279q0 -43 -17.5 -80.5t-49 -65.5t-76.5 -44t-99 -16q-49 0 -96 11t-104 36l43 145q16 -8 51 -17t65 -9q31 0 56.5 8t25.5 43q0 25 -15 39t-52 14h-19l-88 37l31 155q-203 45 -300 242t-97 520q0 150 27.5 285t88 237.5t157.5 163t237 60.5q119 0 207 -43t159 -113 l-110 -237q-51 43 -111.5 82.5t-128.5 39.5q-41 0 -76 -22.5t-60.5 -74.5t-39.5 -136t-14 -207q0 -147 16 -249.5t44 -167t66.5 -93t86.5 -28.5q37 0 69.5 12t61 29.5t52 37t40.5 35.5l108 -237q-70 -59 -145.5 -96t-159.5 -48v-73q74 -14 120 -57.5t46 -117.5z" />
<glyph unicode="&#xc8;" horiz-adv-x="956" d="M446 881h345v-267h-345v-344h435v-270h-766v1450h772l-35 -268h-406v-301zM129 1749l127 248l448 -303l-88 -164z" />
<glyph unicode="&#xc9;" horiz-adv-x="956" d="M446 881h345v-267h-345v-344h435v-270h-766v1450h772l-35 -268h-406v-301zM340 1530l-88 164l448 303l127 -248z" />
<glyph unicode="&#xca;" horiz-adv-x="956" d="M446 881h345v-267h-345v-344h435v-270h-766v1450h772l-35 -268h-406v-301zM499 1671l-190 -141l-141 151l276 236h111l276 -236l-141 -151z" />
<glyph unicode="&#xcb;" horiz-adv-x="956" d="M446 881h345v-267h-345v-344h435v-270h-766v1450h772l-35 -268h-406v-301zM891 1710q0 -37 -13.5 -68.5t-36 -55t-53 -37t-65.5 -13.5t-65.5 13.5t-53.5 37t-36 55t-13 68.5q0 74 48 125t118 51q72 0 121 -51t49 -125zM442 1710q0 -37 -13 -68.5t-35.5 -55t-53.5 -37 t-66 -13.5t-65.5 13.5t-53 37t-36 55t-13.5 68.5q0 74 49.5 125t118.5 51q72 0 120 -51t48 -125z" />
<glyph unicode="&#xcc;" horiz-adv-x="669" d="M168 1200h-125v250h582v-250h-125v-950h125v-250h-582v250h125v950zM-14 1749l127 248l448 -303l-88 -164z" />
<glyph unicode="&#xcd;" horiz-adv-x="669" d="M168 1200h-125v250h582v-250h-125v-950h125v-250h-582v250h125v950zM197 1530l-88 164l448 303l127 -248z" />
<glyph unicode="&#xce;" horiz-adv-x="669" d="M168 1200h-125v250h582v-250h-125v-950h125v-250h-582v250h125v950zM333 1671l-190 -141l-141 151l276 236h111l276 -236l-141 -151z" />
<glyph unicode="&#xcf;" horiz-adv-x="669" d="M168 1200h-125v250h582v-250h-125v-950h125v-250h-582v250h125v950zM727 1710q0 -37 -13.5 -68.5t-36 -55t-53 -37t-65.5 -13.5t-65.5 13.5t-53.5 37t-36 55t-13 68.5q0 74 48 125t118 51q72 0 121 -51t49 -125zM278 1710q0 -37 -13 -68.5t-35.5 -55t-53.5 -37t-66 -13.5 t-65.5 13.5t-53 37t-36 55t-13.5 68.5q0 74 49.5 125t118.5 51q72 0 120 -51t48 -125z" />
<glyph unicode="&#xd0;" horiz-adv-x="1144" d="M1069 741q0 -174 -27.5 -312t-92 -233.5t-169 -145.5t-258.5 -50h-407v639h-90v244h90v567h372q152 0 262.5 -40t181 -126t104.5 -220.5t34 -322.5zM735 733q0 90 -5 172t-28.5 143.5t-69.5 98.5t-128 37h-58v-301h142v-244h-142v-371h62q76 0 121 30t68.5 88t30.5 145 t7 202z" />
<glyph unicode="&#xd1;" horiz-adv-x="1175" d="M774 0l-313 739l-78 228l18 -242v-725h-290v1450h311l293 -694l78 -228l-17 244v678h289v-1450h-291zM682 1554q-37 0 -61.5 12.5t-45.5 25.5l-38 26q-17 12 -40 12q-27 0 -49 -19.5t-39 -51.5l-182 77q14 37 35.5 81t53.5 82t74 63.5t95 25.5q37 0 61.5 -12t44.5 -26 l37 -25q18 -12 41 -13q27 0 49.5 19.5t38.5 52.5l183 -78q-14 -37 -36 -81t-53.5 -81.5t-73.5 -63.5t-95 -26z" />
<glyph unicode="&#xd2;" horiz-adv-x="1159" d="M1085 739q0 -381 -124.5 -577.5t-387.5 -196.5q-258 0 -378.5 196.5t-120.5 573.5q0 166 26.5 304.5t87 236.5t157.5 153.5t239 55.5q256 0 378.5 -190.5t122.5 -555.5zM748 723q0 68 -3.5 157t-19.5 167.5t-50 133t-95 54.5t-95 -55.5t-50.5 -134t-20.5 -166.5t-4 -156 q0 -74 4 -163t20.5 -165t50 -127t95.5 -51q61 0 95 50t50 126t19.5 165t3.5 165zM209 1749l127 248l448 -303l-88 -164z" />
<glyph unicode="&#xd3;" horiz-adv-x="1159" d="M1085 739q0 -381 -124.5 -577.5t-387.5 -196.5q-258 0 -378.5 196.5t-120.5 573.5q0 166 26.5 304.5t87 236.5t157.5 153.5t239 55.5q256 0 378.5 -190.5t122.5 -555.5zM748 723q0 68 -3.5 157t-19.5 167.5t-50 133t-95 54.5t-95 -55.5t-50.5 -134t-20.5 -166.5t-4 -156 q0 -74 4 -163t20.5 -165t50 -127t95.5 -51q61 0 95 50t50 126t19.5 165t3.5 165zM461 1530l-88 164l448 303l127 -248z" />
<glyph unicode="&#xd4;" horiz-adv-x="1159" d="M1085 739q0 -381 -124.5 -577.5t-387.5 -196.5q-258 0 -378.5 196.5t-120.5 573.5q0 166 26.5 304.5t87 236.5t157.5 153.5t239 55.5q256 0 378.5 -190.5t122.5 -555.5zM748 723q0 68 -3.5 157t-19.5 167.5t-50 133t-95 54.5t-95 -55.5t-50.5 -134t-20.5 -166.5t-4 -156 q0 -74 4 -163t20.5 -165t50 -127t95.5 -51q61 0 95 50t50 126t19.5 165t3.5 165zM577 1671l-190 -141l-141 151l276 236h111l276 -236l-141 -151z" />
<glyph unicode="&#xd5;" horiz-adv-x="1159" d="M1085 739q0 -381 -124.5 -577.5t-387.5 -196.5q-258 0 -378.5 196.5t-120.5 573.5q0 166 26.5 304.5t87 236.5t157.5 153.5t239 55.5q256 0 378.5 -190.5t122.5 -555.5zM748 723q0 68 -3.5 157t-19.5 167.5t-50 133t-95 54.5t-95 -55.5t-50.5 -134t-20.5 -166.5t-4 -156 q0 -74 4 -163t20.5 -165t50 -127t95.5 -51q61 0 95 50t50 126t19.5 165t3.5 165zM674 1554q-37 0 -61.5 12.5t-45.5 25.5l-38 26q-17 12 -40 12q-27 0 -49 -19.5t-39 -51.5l-182 77q14 37 35.5 81t53.5 82t74 63.5t95 25.5q37 0 61.5 -12t44.5 -26l37 -25q18 -12 41 -13 q27 0 49.5 19.5t38.5 52.5l183 -78q-14 -37 -36 -81t-53.5 -81.5t-73.5 -63.5t-95 -26z" />
<glyph unicode="&#xd6;" horiz-adv-x="1159" d="M1085 739q0 -381 -124.5 -577.5t-387.5 -196.5q-258 0 -378.5 196.5t-120.5 573.5q0 166 26.5 304.5t87 236.5t157.5 153.5t239 55.5q256 0 378.5 -190.5t122.5 -555.5zM748 723q0 68 -3.5 157t-19.5 167.5t-50 133t-95 54.5t-95 -55.5t-50.5 -134t-20.5 -166.5t-4 -156 q0 -74 4 -163t20.5 -165t50 -127t95.5 -51q61 0 95 50t50 126t19.5 165t3.5 165zM971 1710q0 -37 -13.5 -68.5t-36 -55t-53 -37t-65.5 -13.5t-65.5 13.5t-53.5 37t-36 55t-13 68.5q0 74 48 125t118 51q72 0 121 -51t49 -125zM522 1710q0 -37 -13 -68.5t-35.5 -55t-53.5 -37 t-66 -13.5t-65.5 13.5t-53 37t-36 55t-13.5 68.5q0 74 49.5 125t118.5 51q72 0 120 -51t48 -125z" />
<glyph unicode="&#xd7;" d="M281 674l-226 227l205 205l225 -227l228 227l205 -205l-228 -227l228 -225l-205 -205l-228 225l-225 -225l-205 205z" />
<glyph unicode="&#xd8;" horiz-adv-x="1159" d="M1085 739q0 -381 -124.5 -577.5t-387.5 -196.5q-115 0 -206 41l-68 -149l-227 92l108 235q-106 193 -106 551q0 166 26.5 304.5t87 236.5t157.5 153.5t239 55.5q123 0 213 -45l59 129l234 -92l-105 -222q100 -186 100 -516zM410 723v-77q0 -40 4 -81l272 596 q-18 35 -45 54.5t-61 19.5q-61 0 -95 -55.5t-50.5 -134t-20.5 -166.5t-4 -156zM748 723v67q0 36 -3 72l-270 -581q18 -29 44 -46.5t61 -17.5q61 0 95 50t50 126t19.5 165t3.5 165z" />
<glyph unicode="&#xd9;" horiz-adv-x="1206" d="M1096 467q0 -129 -36 -223t-102.5 -156.5t-159.5 -92.5t-208 -30q-131 0 -222.5 33t-147.5 95.5t-81.5 153.5t-25.5 210v993h327v-969q0 -147 37 -199.5t123 -52.5q92 0 134 58.5t42 193.5v969h320v-983zM234 1749l127 248l448 -303l-88 -164z" />
<glyph unicode="&#xda;" horiz-adv-x="1206" d="M1096 467q0 -129 -36 -223t-102.5 -156.5t-159.5 -92.5t-208 -30q-131 0 -222.5 33t-147.5 95.5t-81.5 153.5t-25.5 210v993h327v-969q0 -147 37 -199.5t123 -52.5q92 0 134 58.5t42 193.5v969h320v-983zM486 1530l-88 164l448 303l127 -248z" />
<glyph unicode="&#xdb;" horiz-adv-x="1206" d="M1096 467q0 -129 -36 -223t-102.5 -156.5t-159.5 -92.5t-208 -30q-131 0 -222.5 33t-147.5 95.5t-81.5 153.5t-25.5 210v993h327v-969q0 -147 37 -199.5t123 -52.5q92 0 134 58.5t42 193.5v969h320v-983zM602 1671l-190 -141l-141 151l276 236h111l276 -236l-141 -151z " />
<glyph unicode="&#xdc;" horiz-adv-x="1206" d="M1096 467q0 -129 -36 -223t-102.5 -156.5t-159.5 -92.5t-208 -30q-131 0 -222.5 33t-147.5 95.5t-81.5 153.5t-25.5 210v993h327v-969q0 -147 37 -199.5t123 -52.5q92 0 134 58.5t42 193.5v969h320v-983zM996 1710q0 -37 -13.5 -68.5t-36 -55t-53 -37t-65.5 -13.5 t-65.5 13.5t-53.5 37t-36 55t-13 68.5q0 74 48 125t118 51q72 0 121 -51t49 -125zM547 1710q0 -37 -13 -68.5t-35.5 -55t-53.5 -37t-66 -13.5t-65.5 13.5t-53 37t-36 55t-13.5 68.5q0 74 49.5 125t118.5 51q72 0 120 -51t48 -125z" />
<glyph unicode="&#xdd;" horiz-adv-x="1050" d="M690 592v-592h-328v592l-374 850l352 28l152 -462l36 -140l37 140l150 462l346 -30zM428 1530l-88 164l448 303l127 -248z" />
<glyph unicode="&#xde;" horiz-adv-x="1038" d="M518 1221q227 0 345 -121t118 -338t-118 -342t-345 -125h-72v-295h-331v1450h331v-229h72zM446 551h58q94 0 134 47t40 160t-40 160t-134 47h-58v-414z" />
<glyph unicode="&#xdf;" horiz-adv-x="1183" d="M1120 322q0 -174 -94 -263.5t-272 -89.5q-61 0 -134 13.5t-122 42.5l61 213q43 -20 77 -31.5t85 -11.5q53 0 83 29.5t30 86.5q0 53 -24 94t-59.5 78t-77.5 71t-78 72t-59.5 83t-23.5 102q0 68 26.5 115t58.5 87t58.5 81t26.5 96q0 106 -125 106q-84 0 -113.5 -49 t-29.5 -153v-1094h-310v1063q0 215 115 341t346 126q94 0 168 -22.5t125 -62.5t78 -95.5t27 -118.5q0 -100 -28 -155.5t-61 -90.5l-60 -62q-28 -28 -28 -73q0 -37 25 -67.5t61 -64.5l81 -71q44 -37 81 -84t61.5 -106t24.5 -135z" />
<glyph unicode="&#xe0;" horiz-adv-x="956" d="M864 258q0 -57 3 -120.5t20 -125.5l-238 -32q-12 23 -23 52l-22 58q-49 -53 -110.5 -85t-133.5 -32q-141 0 -220 85t-79 233q0 102 42 173t113 115t161 63.5t188 19.5v59q0 57 -25.5 85t-103.5 28q-45 0 -108.5 -17.5t-128.5 -52.5l-76 217q78 39 167 62.5t179 23.5 q88 0 160.5 -18.5t125 -57.5t81 -100.5t28.5 -147.5v-485zM565 473q-123 0 -167 -44t-44 -122q0 -59 17.5 -96t62.5 -37q35 0 66.5 21.5t64.5 58.5v219zM129 1364l127 248l448 -303l-88 -164z" />
<glyph unicode="&#xe1;" horiz-adv-x="956" d="M864 258q0 -57 3 -120.5t20 -125.5l-238 -32q-12 23 -23 52l-22 58q-49 -53 -110.5 -85t-133.5 -32q-141 0 -220 85t-79 233q0 102 42 173t113 115t161 63.5t188 19.5v59q0 57 -25.5 85t-103.5 28q-45 0 -108.5 -17.5t-128.5 -52.5l-76 217q78 39 167 62.5t179 23.5 q88 0 160.5 -18.5t125 -57.5t81 -100.5t28.5 -147.5v-485zM565 473q-123 0 -167 -44t-44 -122q0 -59 17.5 -96t62.5 -37q35 0 66.5 21.5t64.5 58.5v219zM340 1145l-88 164l448 303l127 -248z" />
<glyph unicode="&#xe2;" horiz-adv-x="956" d="M864 258q0 -57 3 -120.5t20 -125.5l-238 -32q-12 23 -23 52l-22 58q-49 -53 -110.5 -85t-133.5 -32q-141 0 -220 85t-79 233q0 102 42 173t113 115t161 63.5t188 19.5v59q0 57 -25.5 85t-103.5 28q-45 0 -108.5 -17.5t-128.5 -52.5l-76 217q78 39 167 62.5t179 23.5 q88 0 160.5 -18.5t125 -57.5t81 -100.5t28.5 -147.5v-485zM565 473q-123 0 -167 -44t-44 -122q0 -59 17.5 -96t62.5 -37q35 0 66.5 21.5t64.5 58.5v219zM500 1286l-191 -141l-141 151l277 236h110l277 -236l-142 -151z" />
<glyph unicode="&#xe3;" horiz-adv-x="956" d="M864 258q0 -57 3 -120.5t20 -125.5l-238 -32q-12 23 -23 52l-22 58q-49 -53 -110.5 -85t-133.5 -32q-141 0 -220 85t-79 233q0 102 42 173t113 115t161 63.5t188 19.5v59q0 57 -25.5 85t-103.5 28q-45 0 -108.5 -17.5t-128.5 -52.5l-76 217q78 39 167 62.5t179 23.5 q88 0 160.5 -18.5t125 -57.5t81 -100.5t28.5 -147.5v-485zM565 473q-123 0 -167 -44t-44 -122q0 -59 17.5 -96t62.5 -37q35 0 66.5 21.5t64.5 58.5v219zM594 1169q-37 0 -61.5 12.5t-44.5 25.5l-38 26q-17 12 -40 12q-27 0 -49.5 -19.5t-38.5 -51.5l-182 77q14 37 35.5 81 t53 82t73.5 63.5t96 25.5q37 0 61.5 -12t43.5 -26l38 -25q18 -12 41 -13q27 0 49.5 19.5t38.5 52.5l182 -78q-14 -37 -35.5 -81t-53.5 -81.5t-74 -63.5t-95 -26z" />
<glyph unicode="&#xe4;" horiz-adv-x="956" d="M864 258q0 -57 3 -120.5t20 -125.5l-238 -32q-12 23 -23 52l-22 58q-49 -53 -110.5 -85t-133.5 -32q-141 0 -220 85t-79 233q0 102 42 173t113 115t161 63.5t188 19.5v59q0 57 -25.5 85t-103.5 28q-45 0 -108.5 -17.5t-128.5 -52.5l-76 217q78 39 167 62.5t179 23.5 q88 0 160.5 -18.5t125 -57.5t81 -100.5t28.5 -147.5v-485zM565 473q-123 0 -167 -44t-44 -122q0 -59 17.5 -96t62.5 -37q35 0 66.5 21.5t64.5 58.5v219zM891 1325q0 -37 -13.5 -68.5t-36 -55t-53 -37t-65.5 -13.5t-65.5 13.5t-53.5 37t-36 55t-13 68.5q0 74 48 125t118 51 q72 0 121 -51t49 -125zM442 1325q0 -37 -13 -68.5t-35.5 -55t-53.5 -37t-66 -13.5t-65.5 13.5t-53 37t-36 55t-13.5 68.5q0 74 49.5 125t118.5 51q72 0 120 -51t48 -125z" />
<glyph unicode="&#xe5;" horiz-adv-x="956" d="M864 258q0 -57 3 -120.5t20 -125.5l-238 -32q-12 23 -23 52l-22 58q-49 -53 -110.5 -85t-133.5 -32q-141 0 -220 85t-79 233q0 102 42 173t113 115t161 63.5t188 19.5v59q0 57 -25.5 85t-103.5 28q-45 0 -108.5 -17.5t-128.5 -52.5l-76 217q78 39 167 62.5t179 23.5 q88 0 160.5 -18.5t125 -57.5t81 -100.5t28.5 -147.5v-485zM565 473q-123 0 -167 -44t-44 -122q0 -59 17.5 -96t62.5 -37q35 0 66.5 21.5t64.5 58.5v219zM764 1384q0 -104 -63.5 -172.5t-181.5 -68.5q-119 0 -182.5 68.5t-63.5 174.5t63.5 173t182.5 67t182 -68t63 -174z M586 1384q0 33 -13 62t-54 29t-54.5 -29t-13.5 -62q0 -31 14.5 -60.5t53.5 -29.5t53 29.5t14 60.5z" />
<glyph unicode="&#xe6;" horiz-adv-x="1447" d="M827 453q8 -145 57.5 -200.5t127.5 -55.5q72 0 133 27.5t117 62.5l104 -201q-86 -63 -181 -92t-194 -29q-117 0 -190.5 43t-124.5 113q-72 -78 -146.5 -113t-169.5 -35q-141 0 -220 85t-79 233q0 102 42 173t113 115t161 63.5t188 19.5v59q0 57 -25.5 85t-103.5 28 q-45 0 -108.5 -17.5t-128.5 -52.5l-76 217q78 39 167 62.5t179 23.5q100 0 154.5 -37t91.5 -86q43 53 104.5 89t153.5 36q113 0 190.5 -41t125.5 -114.5t69.5 -174t21.5 -217.5q0 -12 -1 -33.5t-3 -35.5h-549zM565 473q-123 0 -167 -44t-44 -122q0 -59 17.5 -96t62.5 -37 q35 0 66.5 21.5t64.5 58.5v219zM969 870q-66 0 -97.5 -50t-42.5 -173h277q-4 119 -40 171t-97 52z" />
<glyph unicode="&#xe7;" horiz-adv-x="864" d="M754 -279q0 -43 -17.5 -80.5t-49.5 -65.5t-77 -44t-98 -16q-49 0 -96 11t-105 36l43 145q16 -8 51 -17t66 -9t56.5 8t25.5 43q0 25 -15.5 39t-52.5 14h-18l-88 37l31 151q-168 29 -255 165t-87 360q0 131 30.5 237.5t89 180t142.5 113.5t192 40q104 0 179 -34t141 -93 l-97 -211q-51 41 -97 72t-105 31q-78 0 -124 -76t-46 -248q0 -84 12 -142.5t33.5 -95t51.5 -53t67 -16.5q59 0 105 29.5t93 66.5l103 -197q-41 -43 -105.5 -77.5t-144.5 -49.5v-79q74 -14 120 -57.5t46 -117.5z" />
<glyph unicode="&#xe8;" horiz-adv-x="983" d="M362 453q8 -145 57.5 -200.5t127.5 -55.5q72 0 133 27.5t117 62.5l104 -201q-86 -63 -181 -92t-194 -29q-231 0 -344.5 146.5t-113.5 398.5q0 127 28.5 230.5t84 176t137 112.5t190.5 40q113 0 190.5 -41t125.5 -114.5t69.5 -174t21.5 -217.5q0 -12 -1 -33.5t-3 -35.5 h-549zM504 870q-66 0 -97.5 -50t-41.5 -173h276q-4 119 -40 171t-97 52zM148 1364l127 248l448 -303l-88 -164z" />
<glyph unicode="&#xe9;" horiz-adv-x="983" d="M362 453q8 -145 57.5 -200.5t127.5 -55.5q72 0 133 27.5t117 62.5l104 -201q-86 -63 -181 -92t-194 -29q-231 0 -344.5 146.5t-113.5 398.5q0 127 28.5 230.5t84 176t137 112.5t190.5 40q113 0 190.5 -41t125.5 -114.5t69.5 -174t21.5 -217.5q0 -12 -1 -33.5t-3 -35.5 h-549zM504 870q-66 0 -97.5 -50t-41.5 -173h276q-4 119 -40 171t-97 52zM350 1145l-88 164l448 303l127 -248z" />
<glyph unicode="&#xea;" horiz-adv-x="983" d="M362 453q8 -145 57.5 -200.5t127.5 -55.5q72 0 133 27.5t117 62.5l104 -201q-86 -63 -181 -92t-194 -29q-231 0 -344.5 146.5t-113.5 398.5q0 127 28.5 230.5t84 176t137 112.5t190.5 40q113 0 190.5 -41t125.5 -114.5t69.5 -174t21.5 -217.5q0 -12 -1 -33.5t-3 -35.5 h-549zM504 870q-66 0 -97.5 -50t-41.5 -173h276q-4 119 -40 171t-97 52zM492 1286l-191 -141l-141 151l277 236h110l277 -236l-142 -151z" />
<glyph unicode="&#xeb;" horiz-adv-x="983" d="M362 453q8 -145 57.5 -200.5t127.5 -55.5q72 0 133 27.5t117 62.5l104 -201q-86 -63 -181 -92t-194 -29q-231 0 -344.5 146.5t-113.5 398.5q0 127 28.5 230.5t84 176t137 112.5t190.5 40q113 0 190.5 -41t125.5 -114.5t69.5 -174t21.5 -217.5q0 -12 -1 -33.5t-3 -35.5 h-549zM504 870q-66 0 -97.5 -50t-41.5 -173h276q-4 119 -40 171t-97 52zM891 1325q0 -37 -13.5 -68.5t-36 -55t-53 -37t-65.5 -13.5t-65.5 13.5t-53.5 37t-36 55t-13 68.5q0 74 48 125t118 51q72 0 121 -51t49 -125zM442 1325q0 -37 -13 -68.5t-35.5 -55t-53.5 -37 t-66 -13.5t-65.5 13.5t-53 37t-36 55t-13.5 68.5q0 74 49.5 125t118.5 51q72 0 120 -51t48 -125z" />
<glyph unicode="&#xec;" horiz-adv-x="585" d="M168 0v793h-111v241h418v-1034h-307zM-55 1364l127 248l448 -303l-88 -164z" />
<glyph unicode="&#xed;" horiz-adv-x="585" d="M168 0v793h-111v241h418v-1034h-307zM156 1145l-88 164l448 303l127 -248z" />
<glyph unicode="&#xee;" horiz-adv-x="585" d="M168 0v793h-111v241h418v-1034h-307zM293 1286l-191 -141l-141 151l277 236h110l277 -236l-142 -151z" />
<glyph unicode="&#xef;" horiz-adv-x="585" d="M168 0v793h-111v241h418v-1034h-307zM686 1325q0 -37 -13.5 -68.5t-36 -55t-53 -37t-65.5 -13.5t-65.5 13.5t-53.5 37t-36 55t-13 68.5q0 74 48 125t118 51q72 0 121 -51t49 -125zM237 1325q0 -37 -13 -68.5t-35.5 -55t-53.5 -37t-66 -13.5t-65.5 13.5t-53 37t-36 55 t-13.5 68.5q0 74 49.5 125t118.5 51q72 0 120 -51t48 -125z" />
<glyph unicode="&#xf0;" horiz-adv-x="1036" d="M463 1366q-53 72 -127 160l219 73q57 -59 111 -122l139 75l92 -145l-133 -72q96 -158 150.5 -348t54.5 -426q0 -139 -32 -249.5t-90.5 -187.5t-142 -118t-188.5 -41q-109 0 -192.5 41t-140 115t-86 176t-29.5 225q0 242 116 391q51 66 120 109t159 43q47 0 79.5 -11.5 t67.5 -35.5q-12 59 -27.5 107.5t-33.5 91.5l-143 -78l-93 145zM649 526q0 92 -9 152.5t-25.5 97.5t-41 52.5t-57.5 15.5q-27 0 -49.5 -14.5t-38.5 -49.5t-25.5 -94t-9.5 -147q0 -72 6.5 -131.5t21.5 -102.5t39.5 -67.5t59.5 -24.5q80 0 104.5 83t24.5 230z" />
<glyph unicode="&#xf1;" horiz-adv-x="1040" d="M406 0h-304v788q0 57 -3 121t-19 125l244 33q14 -25 28.5 -55.5t26.5 -65.5q66 66 131 94.5t143 28.5q84 0 141.5 -29.5t90.5 -78.5q29 -43 39 -97.5t10 -136.5v-727h-307v735q0 113 -76 113q-39 0 -72 -18.5t-73 -59.5v-770zM655 1169q-37 0 -61.5 12.5t-44.5 25.5 l-38 26q-17 12 -40 12q-27 0 -49.5 -19.5t-38.5 -51.5l-182 77q14 37 35.5 81t53 82t73.5 63.5t96 25.5q37 0 61.5 -12t43.5 -26l38 -25q18 -12 41 -13q27 0 49.5 19.5t38.5 52.5l182 -78q-14 -37 -35.5 -81t-53.5 -81.5t-74 -63.5t-95 -26z" />
<glyph unicode="&#xf2;" horiz-adv-x="1028" d="M961 518q0 -125 -29 -226.5t-85 -174t-139 -112.5t-192 -40q-225 0 -336.5 145.5t-111.5 407.5q0 256 114.5 403.5t337.5 147.5q111 0 193 -38t137 -109.5t83 -174t28 -229.5zM655 520q0 94 -9 157.5t-26.5 102.5t-44 55.5t-61.5 16.5t-61.5 -16.5t-45 -55.5 t-27.5 -101.5t-9 -156.5q0 -174 32.5 -257t110.5 -83t109.5 82t31.5 256zM164 1364l127 248l448 -303l-88 -164z" />
<glyph unicode="&#xf3;" horiz-adv-x="1028" d="M961 518q0 -125 -29 -226.5t-85 -174t-139 -112.5t-192 -40q-225 0 -336.5 145.5t-111.5 407.5q0 256 114.5 403.5t337.5 147.5q111 0 193 -38t137 -109.5t83 -174t28 -229.5zM655 520q0 94 -9 157.5t-26.5 102.5t-44 55.5t-61.5 16.5t-61.5 -16.5t-45 -55.5 t-27.5 -101.5t-9 -156.5q0 -174 32.5 -257t110.5 -83t109.5 82t31.5 256zM375 1145l-88 164l448 303l127 -248z" />
<glyph unicode="&#xf4;" horiz-adv-x="1028" d="M961 518q0 -125 -29 -226.5t-85 -174t-139 -112.5t-192 -40q-225 0 -336.5 145.5t-111.5 407.5q0 256 114.5 403.5t337.5 147.5q111 0 193 -38t137 -109.5t83 -174t28 -229.5zM655 520q0 94 -9 157.5t-26.5 102.5t-44 55.5t-61.5 16.5t-61.5 -16.5t-45 -55.5 t-27.5 -101.5t-9 -156.5q0 -174 32.5 -257t110.5 -83t109.5 82t31.5 256zM512 1286l-191 -141l-141 151l277 236h110l277 -236l-142 -151z" />
<glyph unicode="&#xf5;" horiz-adv-x="1028" d="M961 518q0 -125 -29 -226.5t-85 -174t-139 -112.5t-192 -40q-225 0 -336.5 145.5t-111.5 407.5q0 256 114.5 403.5t337.5 147.5q111 0 193 -38t137 -109.5t83 -174t28 -229.5zM655 520q0 94 -9 157.5t-26.5 102.5t-44 55.5t-61.5 16.5t-61.5 -16.5t-45 -55.5 t-27.5 -101.5t-9 -156.5q0 -174 32.5 -257t110.5 -83t109.5 82t31.5 256zM608 1169q-37 0 -61.5 12.5t-44.5 25.5l-38 26q-17 12 -40 12q-27 0 -49.5 -19.5t-38.5 -51.5l-182 77q14 37 35.5 81t53 82t73.5 63.5t96 25.5q37 0 61.5 -12t43.5 -26l38 -25q18 -12 41 -13 q27 0 49.5 19.5t38.5 52.5l182 -78q-14 -37 -35.5 -81t-53.5 -81.5t-74 -63.5t-95 -26z" />
<glyph unicode="&#xf6;" horiz-adv-x="1028" d="M961 518q0 -125 -29 -226.5t-85 -174t-139 -112.5t-192 -40q-225 0 -336.5 145.5t-111.5 407.5q0 256 114.5 403.5t337.5 147.5q111 0 193 -38t137 -109.5t83 -174t28 -229.5zM655 520q0 94 -9 157.5t-26.5 102.5t-44 55.5t-61.5 16.5t-61.5 -16.5t-45 -55.5 t-27.5 -101.5t-9 -156.5q0 -174 32.5 -257t110.5 -83t109.5 82t31.5 256zM906 1325q0 -37 -13.5 -68.5t-36 -55t-53 -37t-65.5 -13.5t-65.5 13.5t-53.5 37t-36 55t-13 68.5q0 74 48 125t118 51q72 0 121 -51t49 -125zM457 1325q0 -37 -13 -68.5t-35.5 -55t-53.5 -37 t-66 -13.5t-65.5 13.5t-53 37t-36 55t-13.5 68.5q0 74 49.5 125t118.5 51q72 0 120 -51t48 -125z" />
<glyph unicode="&#xf7;" d="M666 1106q0 -39 -14.5 -73t-38 -58.5t-56.5 -38.5t-70 -14q-76 0 -129 53t-53 131q0 39 14.5 72.5t39 58.5t57.5 39t69 14q37 0 70 -14t57.5 -39t39 -58.5t14.5 -72.5zM666 246q0 -39 -14.5 -73t-38 -58.5t-56.5 -39t-70 -14.5q-76 0 -129 53.5t-53 131.5t53.5 130 t126.5 52q37 0 70 -14.5t57.5 -39t39 -57t14.5 -71.5zM45 541v268h885v-268h-885z" />
<glyph unicode="&#xf8;" horiz-adv-x="1028" d="M961 518q0 -125 -29 -226.5t-85 -174t-139 -112.5t-192 -40q-76 0 -139 19l-55 -127l-209 92l71 155q-117 143 -116 414q0 256 114.5 403.5t337.5 147.5q35 0 64.5 -4t58.5 -10l51 119l221 -93l-71 -151q117 -146 117 -412zM655 520q0 41 -2 77t-6 67l-201 -461 q27 -20 68 -21q78 0 109.5 82t31.5 256zM371 522q0 -43 2 -81t6 -70l199 463q-29 18 -64 18t-61.5 -16.5t-45 -55.5t-27.5 -101.5t-9 -156.5z" />
<glyph unicode="&#xf9;" horiz-adv-x="1024" d="M926 258q0 -57 3 -120.5t19 -125.5l-243 -32q-25 39 -50 98q-53 -55 -113.5 -84t-138.5 -29q-98 0 -159.5 30t-95 79t-45 111.5t-11.5 127.5v701l309 30v-708q0 -78 17.5 -114t64.5 -36q39 0 73 19.5t62 48.5v760l308 30v-786zM162 1364l127 248l448 -303l-88 -164z" />
<glyph unicode="&#xfa;" horiz-adv-x="1024" d="M926 258q0 -57 3 -120.5t19 -125.5l-243 -32q-25 39 -50 98q-53 -55 -113.5 -84t-138.5 -29q-98 0 -159.5 30t-95 79t-45 111.5t-11.5 127.5v701l309 30v-708q0 -78 17.5 -114t64.5 -36q39 0 73 19.5t62 48.5v760l308 30v-786zM373 1145l-88 164l448 303l127 -248z" />
<glyph unicode="&#xfb;" horiz-adv-x="1024" d="M926 258q0 -57 3 -120.5t19 -125.5l-243 -32q-25 39 -50 98q-53 -55 -113.5 -84t-138.5 -29q-98 0 -159.5 30t-95 79t-45 111.5t-11.5 127.5v701l309 30v-708q0 -78 17.5 -114t64.5 -36q39 0 73 19.5t62 48.5v760l308 30v-786zM512 1286l-191 -141l-141 151l277 236h110 l277 -236l-142 -151z" />
<glyph unicode="&#xfc;" horiz-adv-x="1024" d="M926 258q0 -57 3 -120.5t19 -125.5l-243 -32q-25 39 -50 98q-53 -55 -113.5 -84t-138.5 -29q-98 0 -159.5 30t-95 79t-45 111.5t-11.5 127.5v701l309 30v-708q0 -78 17.5 -114t64.5 -36q39 0 73 19.5t62 48.5v760l308 30v-786zM903 1325q0 -37 -13.5 -68.5t-36 -55 t-53 -37t-65.5 -13.5t-65.5 13.5t-53.5 37t-36 55t-13 68.5q0 74 48 125t118 51q72 0 121 -51t49 -125zM454 1325q0 -37 -13 -68.5t-35.5 -55t-53.5 -37t-66 -13.5t-65.5 13.5t-53 37t-36 55t-13.5 68.5q0 74 49.5 125t118.5 51q72 0 120 -51t48 -125z" />
<glyph unicode="&#xfd;" horiz-adv-x="1019" d="M763 33q-25 -104 -52 -190.5t-71.5 -150t-112 -98t-171.5 -34.5q-59 0 -138 20.5t-151 77.5l107 209q29 -18 74.5 -40t86.5 -22t69 22.5t46 88.5l25 84h-107l-321 1014l321 37l148 -641l32 -222l33 220l123 643l299 -37zM412 1145l-88 164l448 303l127 -248z" />
<glyph unicode="&#xfe;" horiz-adv-x="1024" d="M408 985q41 41 99 63.5t111 22.5q92 0 157 -42t105 -115.5t58 -174t18 -217.5q0 -270 -88 -413.5t-282 -143.5q-49 0 -95.5 14.5t-80.5 36.5v-411l-308 -47v1935l306 45v-553zM539 848q-59 0 -129 -62v-575q29 -16 60.5 -25.5t53.5 -9.5q33 0 57.5 15.5t41 54.5 t24.5 105.5t8 168.5q0 72 -5 132.5t-19.5 103.5t-36.5 67.5t-55 24.5z" />
<glyph unicode="&#xff;" horiz-adv-x="1019" d="M763 33q-25 -104 -52 -190.5t-71.5 -150t-112 -98t-171.5 -34.5q-59 0 -138 20.5t-151 77.5l107 209q29 -18 74.5 -40t86.5 -22t69 22.5t46 88.5l25 84h-107l-321 1014l321 37l148 -641l32 -222l33 220l123 643l299 -37zM903 1325q0 -37 -13.5 -68.5t-36 -55t-53 -37 t-65.5 -13.5t-65.5 13.5t-53.5 37t-36 55t-13 68.5q0 74 48 125t118 51q72 0 121 -51t49 -125zM454 1325q0 -37 -13 -68.5t-35.5 -55t-53.5 -37t-66 -13.5t-65.5 13.5t-53 37t-36 55t-13.5 68.5q0 74 49.5 125t118.5 51q72 0 120 -51t48 -125z" />
<glyph unicode="&#x131;" horiz-adv-x="585" d="M168 0v793h-111v241h418v-1034h-307z" />
<glyph unicode="&#x152;" horiz-adv-x="1558" d="M1049 881h344v-267h-344v-344h434v-270h-735v37q-41 -37 -101.5 -54.5t-114.5 -17.5q-229 0 -343.5 195.5t-114.5 574.5q0 166 26.5 304.5t83 236.5t145.5 153.5t214 55.5q68 0 113.5 -20.5t91.5 -49.5v35h741l-35 -268h-405v-301zM580 217q57 0 101 21.5t67 50.5v872 q-47 41 -81 57.5t-87 16.5q-61 0 -95 -55.5t-50.5 -134t-20.5 -166.5t-4 -156q0 -74 4 -163t20.5 -165t50.5 -127t95 -51z" />
<glyph unicode="&#x153;" horiz-adv-x="1533" d="M913 453q8 -145 57.5 -200.5t127.5 -55.5q72 0 133 27.5t117 62.5l104 -201q-86 -63 -181 -92t-194 -29q-104 0 -173.5 38t-115.5 103q-43 -66 -109.5 -103.5t-162.5 -37.5q-225 0 -336.5 145.5t-111.5 407.5q0 256 114.5 403.5t337.5 147.5q98 0 163 -39t105 -104 q43 66 108 104.5t163 38.5q113 0 190.5 -41t125.5 -114.5t69.5 -174t21.5 -217.5q0 -12 -1 -33.5t-3 -35.5h-549zM655 520q0 94 -9 157.5t-26.5 102.5t-44 55.5t-61.5 16.5t-61.5 -16.5t-45 -55.5t-27.5 -101.5t-9 -156.5q0 -174 32.5 -257t110.5 -83t109.5 82t31.5 256z M1055 870q-66 0 -97.5 -50t-42.5 -173h277q-4 119 -40 171t-97 52z" />
<glyph unicode="&#x178;" horiz-adv-x="1050" d="M690 592v-592h-328v592l-374 850l352 28l152 -462l36 -140l37 140l150 462l346 -30zM918 1710q0 -37 -13.5 -68.5t-36 -55t-53 -37t-65.5 -13.5t-65.5 13.5t-53.5 37t-36 55t-13 68.5q0 74 48 125t118 51q72 0 121 -51t49 -125zM469 1710q0 -37 -13 -68.5t-35.5 -55 t-53.5 -37t-66 -13.5t-65.5 13.5t-53 37t-36 55t-13.5 68.5q0 74 49.5 125t118.5 51q72 0 120 -51t48 -125z" />
<glyph unicode="&#x2c6;" d="M487 1286l-190 -141l-141 151l276 236h111l276 -236l-141 -151z" />
<glyph unicode="&#x2dc;" d="M586 1169q-37 0 -61.5 12.5t-45.5 25.5l-38 26q-17 12 -40 12q-27 0 -49 -19.5t-39 -51.5l-182 77q14 37 35.5 81t53.5 82t74 63.5t95 25.5q37 0 61.5 -12t44.5 -26l37 -25q18 -12 41 -13q27 0 49.5 19.5t39.5 52.5l182 -78q-14 -37 -36 -81t-53.5 -81.5t-73.5 -63.5 t-95 -26z" />
<glyph unicode="&#x300;" horiz-adv-x="2" d="M-862 1364l127 248l448 -303l-88 -164z" />
<glyph unicode="&#x301;" horiz-adv-x="2" d="M-651 1145l-88 164l448 303l127 -248z" />
<glyph unicode="&#x302;" horiz-adv-x="2" d="M-514 1286l-191 -141l-141 151l277 236h110l277 -236l-142 -151z" />
<glyph unicode="&#x303;" horiz-adv-x="2" d="M-418 1169q-37 0 -61.5 12.5t-44.5 25.5l-38 26q-17 12 -40 12q-27 0 -49.5 -19.5t-38.5 -51.5l-182 77q14 37 35.5 81t53 82t73.5 63.5t96 25.5q37 0 61.5 -12t43.5 -26l38 -25q18 -12 41 -13q27 0 49.5 19.5t38.5 52.5l182 -78q-14 -37 -35.5 -81t-53.5 -81.5 t-74 -63.5t-95 -26z" />
<glyph unicode="&#x308;" horiz-adv-x="2" d="M-98 1325q0 -37 -13.5 -68.5t-36 -55t-53 -37t-65.5 -13.5t-65.5 13.5t-53.5 37t-36 55t-13 68.5q0 74 48 125t118 51q72 0 121 -51t49 -125zM-547 1325q0 -37 -13 -68.5t-35.5 -55t-53.5 -37t-66 -13.5t-65.5 13.5t-53 37t-36 55t-13.5 68.5q0 74 49.5 125t118.5 51 q72 0 120 -51t48 -125z" />
<glyph unicode="&#x30a;" horiz-adv-x="2" d="M-240 1384q0 -104 -63.5 -172.5t-181.5 -68.5q-119 0 -182.5 68.5t-63.5 174.5t63.5 173t182.5 67t182 -68t63 -174zM-418 1384q0 33 -13 62t-54 29t-54.5 -29t-13.5 -62q0 -31 14.5 -60.5t53.5 -29.5t53 29.5t14 60.5z" />
<glyph unicode="&#x2000;" horiz-adv-x="1005" />
<glyph unicode="&#x2001;" horiz-adv-x="2011" />
<glyph unicode="&#x2002;" horiz-adv-x="1005" />
<glyph unicode="&#x2003;" horiz-adv-x="2011" />
<glyph unicode="&#x2004;" horiz-adv-x="669" />
<glyph unicode="&#x2005;" horiz-adv-x="501" />
<glyph unicode="&#x2006;" horiz-adv-x="333" />
<glyph unicode="&#x2007;" horiz-adv-x="333" />
<glyph unicode="&#x2008;" horiz-adv-x="249" />
<glyph unicode="&#x2009;" horiz-adv-x="401" />
<glyph unicode="&#x200a;" horiz-adv-x="110" />
<glyph unicode="&#x2010;" horiz-adv-x="796" d="M74 410v268h649v-268h-649z" />
<glyph unicode="&#x2011;" horiz-adv-x="796" d="M74 410v268h649v-268h-649z" />
<glyph unicode="&#x2012;" horiz-adv-x="796" d="M74 410v268h649v-268h-649z" />
<glyph unicode="&#x2013;" horiz-adv-x="1077" d="M74 408v268h930v-268h-930z" />
<glyph unicode="&#x2014;" horiz-adv-x="1665" d="M74 408v268h1519v-268h-1519z" />
<glyph unicode="&#x2018;" horiz-adv-x="581" d="M475 1518q-47 -66 -73.5 -118t-43.5 -106q43 -23 70 -64.5t27 -94.5q0 -76 -51.5 -128.5t-127.5 -52.5q-37 0 -69.5 14.5t-57 39t-39 57.5t-14.5 70q0 59 19.5 120.5t51.5 119t74 110.5t87 98z" />
<glyph unicode="&#x2019;" horiz-adv-x="581" d="M86 1020q47 66 73.5 118t43.5 105q-43 23 -70 65t-27 95q0 76 51.5 128t127.5 52q37 0 69.5 -14.5t57 -39t39 -57t14.5 -69.5q0 -59 -19.5 -120.5t-51.5 -119t-73.5 -111t-87.5 -98.5z" />
<glyph unicode="&#x201a;" horiz-adv-x="581" d="M84 -248q47 66 73.5 118t43.5 105q-43 23 -70 65t-27 95q0 76 51.5 128t127.5 52q74 0 127 -53t53 -127q0 -59 -19.5 -120.5t-51.5 -119t-74 -110.5t-87 -98z" />
<glyph unicode="&#x201c;" horiz-adv-x="954" d="M455 1518q-47 -66 -74 -118t-43 -106q43 -23 69.5 -64.5t26.5 -94.5q0 -76 -51 -128.5t-127 -52.5q-37 0 -69.5 14.5t-57.5 39t-39 57.5t-14 70q0 59 19.5 120.5t51 119t73.5 110.5t87 98zM885 1518q-47 -66 -74 -118t-43 -106q43 -23 69.5 -64.5t26.5 -94.5 q0 -76 -51 -128.5t-127 -52.5q-37 0 -69.5 14.5t-57 39t-39 57.5t-14.5 70q0 59 19.5 120.5t51 119t73.5 110.5t87 98z" />
<glyph unicode="&#x201d;" horiz-adv-x="954" d="M494 1020q47 66 73.5 118t42.5 105q-43 23 -69.5 65t-26.5 95q0 76 51 128t127 52q37 0 70 -14.5t57.5 -39t38.5 -57t14 -69.5q0 -59 -19 -120.5t-51 -119t-74 -111t-87 -98.5zM63 1020q47 66 74 118t43 105q-43 23 -69.5 65t-26.5 95q0 76 51 128t127 52q37 0 70 -14.5 t57.5 -39t38.5 -57t14 -69.5q0 -59 -19.5 -120.5t-51 -119t-73.5 -111t-87 -98.5z" />
<glyph unicode="&#x201e;" horiz-adv-x="954" d="M514 -248q47 66 73.5 118t43.5 105q-43 23 -69.5 65t-26.5 95q0 76 51 128t127 52q37 0 69.5 -14t57 -38.5t39 -57.5t14.5 -70q0 -59 -19.5 -120.5t-51 -119t-73.5 -110.5t-87 -98zM84 -248q47 66 73.5 118t43.5 105q-43 23 -70 65t-27 95q0 76 51.5 128t127.5 52 q74 0 127 -53t53 -127q0 -59 -19.5 -120.5t-51.5 -119t-74 -110.5t-87 -98z" />
<glyph unicode="&#x2022;" horiz-adv-x="942" d="M743 739q0 -63 -21.5 -118.5t-58 -97.5t-87 -65.5t-105.5 -23.5t-105.5 23.5t-88 65.5t-59 97.5t-21.5 118.5t21.5 118.5t58 96.5t87 65.5t105.5 24.5t105.5 -24.5t88 -65.5t59 -96.5t21.5 -118.5z" />
<glyph unicode="&#x2026;" horiz-adv-x="1751" d="M1673 180q0 -47 -17.5 -88t-47 -71.5t-69.5 -49t-85 -18.5q-47 0 -87 18.5t-68.5 49t-46 71.5t-17.5 88t17.5 88t46 72t68.5 48.5t87 17.5q45 0 85 -17.5t69.5 -48.5t47 -72t17.5 -88zM1096 180q0 -47 -17.5 -88t-46 -71.5t-69.5 -49t-86 -18.5t-85 18.5t-70 49 t-47.5 71.5t-17.5 88t17.5 88t47.5 72t69.5 48.5t85.5 17.5q45 0 86 -17.5t69.5 -48.5t46 -72t17.5 -88zM518 180q0 -47 -17.5 -88t-47 -71.5t-69.5 -49t-85 -18.5t-85 17.5t-68.5 48t-46 72.5t-17.5 89t16.5 88t46 72t68.5 48.5t86 17.5q45 0 85 -17.5t69.5 -48.5t47 -72 t17.5 -88z" />
<glyph unicode="&#x202f;" horiz-adv-x="401" />
<glyph unicode="&#x2039;" horiz-adv-x="714" d="M623 137l-205 -114l-326 432v133l326 422l198 -121l-206 -375z" />
<glyph unicode="&#x203a;" horiz-adv-x="714" d="M305 514l-207 375l199 121l326 -422v-133l-326 -432l-205 114z" />
<glyph unicode="&#x205f;" horiz-adv-x="501" />
<glyph unicode="&#x20ac;" d="M461 451q20 -139 65 -192.5t117 -53.5t121 35.5t82 66.5l108 -207q-82 -72 -168 -103.5t-174 -31.5q-199 0 -304 122t-138 364h-143l30 186h99v100h-129l30 187h111q14 109 46 201t85 158.5t128 103t177 36.5q106 0 190.5 -34.5t155.5 -104.5l-110 -201q-51 43 -101.5 72 t-117.5 29q-72 0 -112 -59.5t-54 -200.5h305l-31 -187h-283v-100h261l-31 -186h-215z" />
<glyph unicode="&#x2122;" horiz-adv-x="1478" d="M961 772l-72 227l-45 168l-6 -182l-13 -358h-194l53 823h227l80 -301l35 -139l31 139l80 301h237l53 -823h-198l-12 350l-7 190l-43 -168l-63 -227h-143zM416 1280v-653h-205v653h-191v170h601l-31 -170h-174z" />
<glyph unicode="&#xe000;" horiz-adv-x="1050" d="M0 1050h1050v-1050h-1050v1050z" />
<glyph unicode="&#xfb01;" horiz-adv-x="1218" d="M801 0v805h-332v-805h-303v805h-127v229h127v121q0 170 85 272.5t257 102.5q47 0 98 -8.5t99 -28.5l-62 -219q-47 16 -92 16q-49 0 -65.5 -35.5t-16.5 -91.5v-129h639v-1034h-307zM1130 1393q0 -39 -14 -75t-39.5 -62.5t-60.5 -42t-74 -15.5q-41 0 -74.5 15.5t-58.5 42 t-39 62.5t-14 75q0 78 53 134t135 56q39 0 73 -15.5t59.5 -42t39.5 -60t14 -72.5z" />
<glyph unicode="&#xfb02;" horiz-adv-x="1308" d="M1307 37q-41 -29 -105.5 -48.5t-120.5 -19.5q-90 0 -144 33t-83 88t-37 129t-8 156v1118l305 45v-1145q0 -57 2 -90t8 -50t19.5 -21.5t36.5 -4.5q12 0 32.5 6.5t38.5 16.5zM682 1034l-33 -229h-180v-805h-303v805h-127v229h127v121q0 170 85 272.5t257 102.5 q70 0 129 -13.5t125 -48.5l-78 -211q-31 16 -64.5 25.5t-68.5 9.5q-49 0 -65.5 -36.5t-16.5 -92.5v-129h213z" />
<glyph unicode="&#xfb03;" horiz-adv-x="1849" d="M797 1034v121q0 170 85 272.5t257 102.5q47 0 98 -8.5t98 -28.5l-61 -219q-47 16 -92 16q-49 0 -65.5 -35.5t-16.5 -91.5v-129h639v-1034h-307v805h-332v-805h-303v805h-328v-805h-303v805h-127v229h127v121q0 170 85 272.5t257 102.5q70 0 129 -13.5t125 -48.5l-78 -211 q-31 16 -64.5 25.5t-68.5 9.5q-49 0 -65.5 -36.5t-16.5 -92.5v-129h328zM1761 1393q0 -39 -14 -75t-40 -62.5t-60.5 -42t-73.5 -15.5q-41 0 -75 15.5t-58.5 42t-39 62.5t-14.5 75q0 78 53.5 134t135.5 56q39 0 72.5 -15.5t59.5 -42t40 -60t14 -72.5z" />
<glyph unicode="&#xfb04;" horiz-adv-x="1939" d="M1313 1034l-33 -229h-180v-805h-303v805h-328v-805h-303v805h-127v229h127v121q0 170 85 272.5t257 102.5q70 0 129 -13.5t125 -48.5l-78 -211q-31 16 -64.5 25.5t-68.5 9.5q-49 0 -65.5 -36.5t-16.5 -92.5v-129h328v121q0 170 85 272.5t257 102.5q70 0 129 -13.5 t125 -48.5l-78 -211q-31 16 -64.5 25.5t-68.5 9.5q-49 0 -65.5 -36.5t-16.5 -92.5v-129h213zM1937 37q-41 -29 -105.5 -48.5t-119.5 -19.5q-90 0 -144.5 33t-83 88t-36.5 129t-8 156v1118l305 45v-1145q0 -57 2 -90t8 -50t19.5 -21.5t35.5 -4.5q12 0 33 6.5t39 16.5z" />
<glyph horiz-adv-x="2" d="M-948 1749l127 248l448 -303l-88 -164z" />
<glyph horiz-adv-x="2" d="M-696 1530l-88 164l448 303l127 -248z" />
<glyph horiz-adv-x="2" d="M-580 1671l-190 -141l-141 151l276 236h111l276 -236l-141 -151z" />
<glyph horiz-adv-x="2" d="M-483 1554q-37 0 -61.5 12.5t-45.5 25.5l-38 26q-17 12 -40 12q-27 0 -49 -19.5t-39 -51.5l-182 77q14 37 35.5 81t53.5 82t74 63.5t95 25.5q37 0 61.5 -12t44.5 -26l37 -25q18 -12 41 -13q27 0 49.5 19.5t38.5 52.5l183 -78q-14 -37 -36 -81t-53.5 -81.5t-73.5 -63.5 t-95 -26z" />
<glyph horiz-adv-x="2" d="M-98 1710q0 -37 -13.5 -68.5t-36 -55t-53 -37t-65.5 -13.5t-65.5 13.5t-53.5 37t-36 55t-13 68.5q0 74 48 125t118 51q72 0 121 -51t49 -125zM-547 1710q0 -37 -13 -68.5t-35.5 -55t-53.5 -37t-66 -13.5t-65.5 13.5t-53 37t-36 55t-13.5 68.5q0 74 49.5 125t118.5 51 q72 0 120 -51t48 -125z" />
<glyph horiz-adv-x="2" d="M-240 1769q0 -104 -63.5 -172.5t-181.5 -68.5q-119 0 -182.5 68.5t-63.5 175.5q0 106 63.5 172.5t182.5 66.5t182 -68t63 -174zM-418 1769q0 33 -13 62t-54 29t-54.5 -29t-13.5 -62q0 -31 14.5 -60.5t53.5 -29.5t53 29.5t14 60.5z" />
</font>
</defs>
</svg>
